<mxfile host="Electron" modified="2024-01-25T11:36:25.635Z" agent="Mozilla/5.0 (X11; Linux x86_64) AppleWebKit/537.36 (KHTML, like Gecko) draw.io/22.1.21 Chrome/120.0.6099.109 Electron/28.1.0 Safari/537.36" etag="Bb_93ktYvdfi2IY_D7fB" version="22.1.21" type="device">
  <diagram id="5h5BvE9GPSGwY_MgCiZ-" name="Page-2">
    <mxGraphModel dx="598" dy="1626" grid="1" gridSize="10" guides="1" tooltips="1" connect="1" arrows="1" fold="1" page="1" pageScale="1" pageWidth="900" pageHeight="365" math="0" shadow="0">
      <root>
        <mxCell id="5-3XioVFCl6JB0ejhThV-0" />
        <mxCell id="5-3XioVFCl6JB0ejhThV-1" parent="5-3XioVFCl6JB0ejhThV-0" />
        <mxCell id="5-3XioVFCl6JB0ejhThV-51" value="" style="rounded=1;whiteSpace=wrap;html=1;fontSize=30;" parent="5-3XioVFCl6JB0ejhThV-1" vertex="1">
          <mxGeometry x="80" y="-555" width="1510" height="985" as="geometry" />
        </mxCell>
        <mxCell id="5-3XioVFCl6JB0ejhThV-31" style="edgeStyle=orthogonalEdgeStyle;rounded=0;orthogonalLoop=1;jettySize=auto;html=1;strokeWidth=10;" parent="5-3XioVFCl6JB0ejhThV-1" source="5-3XioVFCl6JB0ejhThV-3" target="5-3XioVFCl6JB0ejhThV-18" edge="1">
          <mxGeometry relative="1" as="geometry" />
        </mxCell>
        <mxCell id="5-3XioVFCl6JB0ejhThV-43" style="edgeStyle=orthogonalEdgeStyle;rounded=0;orthogonalLoop=1;jettySize=auto;html=1;entryX=0.25;entryY=0;entryDx=0;entryDy=0;fontSize=45;strokeWidth=10;" parent="5-3XioVFCl6JB0ejhThV-1" source="5-3XioVFCl6JB0ejhThV-3" target="5-3XioVFCl6JB0ejhThV-39" edge="1">
          <mxGeometry relative="1" as="geometry">
            <Array as="points">
              <mxPoint x="450" y="-245" />
              <mxPoint x="450" y="-245" />
            </Array>
          </mxGeometry>
        </mxCell>
        <mxCell id="5-3XioVFCl6JB0ejhThV-47" value="OAuth2" style="edgeStyle=orthogonalEdgeStyle;rounded=0;orthogonalLoop=1;jettySize=auto;html=1;fontSize=30;strokeWidth=10;exitX=0.833;exitY=0.05;exitDx=0;exitDy=0;exitPerimeter=0;" parent="5-3XioVFCl6JB0ejhThV-1" source="5-3XioVFCl6JB0ejhThV-3" edge="1">
          <mxGeometry relative="1" as="geometry">
            <mxPoint x="635.5294117647059" y="-407.3299999999999" as="sourcePoint" />
            <mxPoint x="792.4705882352941" y="-567" as="targetPoint" />
            <Array as="points" />
          </mxGeometry>
        </mxCell>
        <mxCell id="5-3XioVFCl6JB0ejhThV-3" value="" style="shape=image;verticalLabelPosition=bottom;labelBackgroundColor=#ffffff;verticalAlign=top;aspect=fixed;imageAspect=0;image=http://131.188.43.108:8080/reactapp/images/369b022222badf37b2b0c284f4ae2284.png;" parent="5-3XioVFCl6JB0ejhThV-1" vertex="1">
          <mxGeometry x="400" y="-365.33000000000004" width="471.04" height="106.89" as="geometry" />
        </mxCell>
        <mxCell id="5-3XioVFCl6JB0ejhThV-32" style="edgeStyle=orthogonalEdgeStyle;rounded=0;orthogonalLoop=1;jettySize=auto;html=1;strokeWidth=10;" parent="5-3XioVFCl6JB0ejhThV-1" source="5-3XioVFCl6JB0ejhThV-5" target="5-3XioVFCl6JB0ejhThV-17" edge="1">
          <mxGeometry relative="1" as="geometry" />
        </mxCell>
        <mxCell id="5-3XioVFCl6JB0ejhThV-38" style="edgeStyle=orthogonalEdgeStyle;rounded=0;orthogonalLoop=1;jettySize=auto;html=1;fontSize=45;strokeWidth=10;" parent="5-3XioVFCl6JB0ejhThV-1" source="5-3XioVFCl6JB0ejhThV-5" target="5-3XioVFCl6JB0ejhThV-14" edge="1">
          <mxGeometry relative="1" as="geometry">
            <Array as="points">
              <mxPoint x="446" y="281" />
              <mxPoint x="446" y="281" />
            </Array>
          </mxGeometry>
        </mxCell>
        <mxCell id="5-3XioVFCl6JB0ejhThV-5" value="" style="shape=image;verticalLabelPosition=bottom;labelBackgroundColor=#ffffff;verticalAlign=top;aspect=fixed;imageAspect=0;image=data:image/png,iVBORw0KGgoAAAANSUhEUgAABHQAAACuCAYAAABX5lrsAAAgAElEQVR4Aey9eZBk2V3fmxEOXgQR748XxCMIB48/jJ8dRJh4BmEMtmVhPdvwwELCCGQkgwELIWNhIYE0WDsCLaN9ZiSwhCRGI422WXqb6e7pfd+36bWqt6quNTOruqc7q6q7a/+9+GT2t+v06Zv7zazMql9GnLiZN+/yO9/z2873nnNuxvzjCDgCjoAj4Ag4Ao6AI+AIOAKOgCPgCDgCjoAj0FUIZLpKWhfWEXAEHAFHwBFwBBwBR8ARcAQcAUfAEXAEHAFHwJzQcSVwBBwBR8ARcAQcAUfAEXAEHAFHwBFwBBwBR6DLEHBCp8sazMV1BBwBR8ARcAQcAUfAEXAEHAFHwBFwBBwBR8AJHdcBR8ARcAQcAUfAEXAEHAFHwBFwBBwBR8ARcAS6DAEndLqswVxcR8ARcAQcAUfAEXAEHAFHwBFwBBwBR8ARcASc0HEdcAQcAUfAEXAEHAFHwBFwBBwBR8ARcAQcAUegyxBwQqfLGszFdQQcAUfAEXAEHAFHwBFwBBwBR8ARcAQcAUfACR3XAUfAEXAEHAFHwBFwBBwBR8ARcAQcAUfAEXAEugwBJ3S6rMFcXEfAEXAEHAFHwBFwBBwBR8ARcAQcAUfAEXAEnNBxHXAEHAFHwBFwBBwBR8ARcAQcAUfAEXAEHAFHoMsQcEKnyxrMxXUEHAFHwBFwBBwBR8ARcAQcAUfAEXAEHAFHwAkd1wFHwBFwBBwBR8ARcAQcga5EYHFx0ZJKV1bGhXYEHAFHwBFwBOpEwAmdOgHzwx0BR8ARcAQcAUfAEXAElheBJBKn3L7lldTv7gg4Ao6AI+AItA4BJ3Rah61f2RFwBBwBR8ARcAQcAUcgRQRi0mZhYcHKlfDYFEXwSzkCjoAj4Ag4Ah2DgBM6HdMULogj4Ag4Ao6AI+AIOAKOQDkEQoJGJM78/LyVKzomPK/ctX2/I+AIOAKOgCPQjQg4oWOWOPc6DP7Nfu9GxXCZHQFHwBFwBBwBR8AR6CQElI9B1IjEmZubM8rs7Oz9on06JiZ2OqlOLosj4Ag4Ao6AI9AMAquO0FEykLRVwE9rm3QP7Wum0fxcR8ARcAQcAUfAEXAEVhMCyp9iMgciZ2ZmJrHwH+QOxI5yO11nNWHndXUEHAFHwBFYuQiseEJHgTvcKqiHWz3FCbd6wlPPNjxf38P78D2URd9Xrop5zRwBR8ARcAQcAUfAEWgOAfIl5VPkV+RmEDnT09M2dPOOHR29bXfu3CmWu3fvGoX/OCYmdjz3qr8thFmz2/rv7Gc4Ao6AI+AIVEJgRRI6cbBRAsBWJIuSgZCsCYfrlnvaU21/eI3w2nwP7x3KFMtbqcH8P0fAEXAEHAFHwBFwBFYTAsqTlMeFZA7EzZPnJ+wHnhm3vQMTNjU1VSy3b5cIHv53UqcxbRHu4TbMX+v5Hl5D3xuTys9yBBwBR8ARCBFYMYSOgoO2YZARkSKCRaRLSM7wFIeipzps9aSn1m14rq4X3kP3lRySK5RV8msbNpZ/dwQcAUfAEXAEHAFHYLUhoJyIfInciXxKORvEzdfP3rLMM+NFUufQ4C0rFAo2MVEid/if/IzjOU8P2LiWrrva8KylvsKGbZinKncNt8prtQ3/0/fwGuG1a5HFj3EEHAFHwBEoj0BXEzphQAgDjoKHAouIFJErSgJC0oaAT9GTncnJSQsLiUFSCY/hu87X9UQGiezh3pJDcim5QG4PeOWV1f9xBBwBR8ARcAQcgdWHgHI88iRyJvIo8ipyLXKvr525WSR0IHV+8NlxOzb0it28ebNI7Cg3Ix9zUqe67oS5tXLScnm18ljltdpqv7bKx3UdXTe8V3XJ/AhHwBFwBByBJAS6ktAJA4CCPMFBgYLAQRBRYBGBI3JFxI3IGIganuZQbt26VSwkAiqvvPKKVSo6jq3O1/W4tu4D2cO9kSMmeMKgp3p4wEtSWd/nCDgCjoAj4Ag4AqsJAeV65EcidMilyKvIt756+pX7hA6kzg89N26nBq4XczdyM47hWCd1qmuNcuxqebVya+WzSVuOoSgfJ9el/cI8V/dj6x9HwBFwBByB+hHoKkIndPoiOxQUROKIyFGgIXiHBI7IG4gXETGQNTdu3CiW69ev2/j4+P0yNjZmYcnn80YJ9/E9PIdrULgm19Z9uCdJhUiemOBR0FPAU9BTXcP619/UfoYj4Ag4Ao6AI+AIOALdhwD5jwgGciTyJY3OIbf625dvPEDoQOr82PPX7fTAWDEfc1KntjZXnimslVtDyMR5tXJrclk9uNSWfSrhg8w4zyWH5166b21S+lGOgCPgCDgCIQJdQejI0SugK9DoSU01EgcSRQSOyBsRN5AxImlyuZwNjGRt/5Wsffd01v72RM6+cDRvHz+Ytw/sy9u7duXtbdvz9vvb8vbHO/P2vr2l/x47mrMnT+bt+2eytvVi3q4MZY1r6boifGKSRwQPAbAauaOgFwY+8PCPI+AIOAKOgCPgCDgCKxkB5X/kQuR8mm5Ffkde95VT1x8idCB1/sHz43Z+sPTQjePKjdQhtwrzq5WMZbm6KddWji0yJyRyRN6ED0eVX+vhJVv2KccNH2JqhDrX1MNL5be6fzn5fL8j4Ag4Ao5AMgIdT+jIwYfBvByRo6cFECQhicNImZjAuTaStXXnc/ahfXl7y9Yx+7kNY/bDz44lJgQkBfUWhvu+ekPe3rotb58+nLe153J2aahE8sQEj4IfMovcCYMeT0biwBcmHmDjH0fAEXAEHAFHwBFwBFYiAsoBIRnIiSB0IBfIm8jxvnyyfJ72E2vGrHcwVxxJ7aROee1Qvk1+GZM5Gg0F3uSs8cPRcJS6vscPMZXjci3aLyR1uKfy2vIS+j+OgCPgCDgCSQh0LKGjwKIgDomTRORoShVECE8B9KRAJI5G4Fwdztl3TuftnTvz9qp1+boJmnoJnXLH/8y6MXvPnry91JOz0WyJ4CH4EfgIkARKgh510agdBb5qxE5SA/s+R8ARcAQcAUfAEXAEuhkB5YIhoUPeR85H/lSJ0CEf+8m1Y0YeSL5VjtTRSJHVSiwIY+XaIs4gYHI3J2zrlZu25fIrtvniddvUO24be8bsxQv5++WF8zmjhPs4hmM5h3O5xvCNieJ0OXJb7kGbCntk8I8j4Ag4Ao5AfQh0JKGDQ1dgIbAquIRTq0IiBwKEoE6Q1kgcpjv1Defsr4/l7LUvpDfyphxR08h+3sTw+o1jxpQtZEVmkg2tvUOdaiV2hJkHw/oMwI92BBwBR8ARcAQcgc5GQDmhCB1yQAgdHoKRN/2vE9XzvJ9dN2Z9w1kndRKaWjmkcm7ybUbQaGTOl04+uOh0IzmvzvnU0VeKbce141E6kiNBRN/lCDgCjoAjUAaBjiJ05MgVuGshcjT0EyKH0TiDozl76lTOXr8pv2yjcBS06tn+wDPj9jtbx2zHxaVpWRq1U47YqTQNq0x7+25HwBFwBBwBR8ARcAS6CgHlheUInb85XlvOx1T4azWSOspJuwqoBoUVvsq7NTpH09q+eOLhRafryXHDYx89cuOBtYx8lE6DjeanOQKOgCNwD4GOIXQUOHk6oCcEBG49JWBopp4UaA5vOK3qynBp4WJGvYSBoxu//9S6seJizP0juSJJlUTs8HSKJxsEwpjYEZZs/eMIOAKOgCPgCDgCjkA3IyDCIYnQ4WFerYQOOeEvvpi3oZHkkTrKqcIpQKshlxK+1Ft5dzgK6onjyYtON5Jjf/Lw9eLIKkagh6N0Qsy7WVdddkfAEXAE2o3AshM6BBGVmMjREwKCCk8JtEaOplYxRen8QK64Lg4jXBoJLJ18DnV6/74xYwFnEhaIHa2xw1BjAqHW14lJHbAUru1WKr+fI+AIOAKOgCPgCDgCaSEgwiEmdMgH6yV0yPsYxc06hkzXCtfU0bou5FQhwcD9V/JH+IaEDjkmD1DB5/Fj6eXYnzhUWlqAa5Pbg3mM90rG2uvmCDgCjkDaCCwroSPCIQwklUbliMgheJ8byNvvbattiG0nkza1yPajz43bV0/kiq9CJ/lgZBLEjtbXiUfrKAlxUidtc/HrOQKOgCPgCDgCjkC7EVCeGBI65ECNEjrkXm/akrdszkkd2lL4itCBZIFs0aLTjx2tvkZRLfksx3z8YOkBJdcWoaNpV8pb261ffj9HwBFwBLoZgWUjdETm4LwpBBEFaqYShaNyIC8gMSAzeKLyiUM5W4kjcqoFQxb023oxX1w8WdOweMIRjtbRcGGwFLEjrLtZUV12R8ARcAQcAUfAEVidCIhwUJ5IjhgSOrwAo1oOlfT/72/L339YljRSZ7XkUjG+EDrhotNfOJLeA1QIHfJ5cnvuQVvGhA7y+McRcAQcAUegNgSWhdARwRASOQy31BSrcK0cjcphehWv+ubVk0lBeTXte/PWMbs0VFpfp9xonXgKljCvTS38KEfAEXAEHAFHwBFwBDoDgZhwSIvQIXd8x84lUkejnzWlXUTDSn9AloRvqwidjx0ovdHVCZ3OsK1ukAJ6r2dqwY4V5q3vzoLdXXDCrxvazWVsHwJtJ3RELMRkDqNyNMRTa+VAVjC96uJQzt6y1YmckLRiGtamntIbscK1dRi+SqKjBZOTni7RBv5xBBwBR8ARcAQcAUegGxBIIhzSGKGjvOqRPSVSR/kU115NpE4SvhA6mtKW5ggdCB1ye64Nzj5CpxsscHllpNfSf2fB/m5kzt53edo+0Tdj38/OWs/UvN2aXTDnd5a3ffzuy49AWwmdSmQODh0yQm+wIqhqVA7khYKubx/E4kP7HpwDzpxkgnCYiISLzUGkqR2WX/1cAkfAEXAEHAFHwBFwBCojkEQ4pEnokFt+ZP/qJXWq4fv5w41NaUvK2Z3Qqazr/m8yApA6+ZlF23VjwV5/+q5lDt62X3n5jn1zdNZOFOYsO71YHLnj5E4yfr53ZSPQNkJHJEI4MoehrFovBxJCq+kztzaXy9nHDqY3ZzcpqKyUfa/ZkLez15amYEHqxE+XnNRZ2YbstXMEHAFHwBFwBFYqAtUIh0bX0InzwE8dKr2AYrWN1KmGrxM6K9Wyuq9eEDuFuUXbMj5vv3DyrmW2TVlm/5S999IdO3Rr3m7MLtr0wqL5XITua1uXuHEE2kLolCNzmGKl9XIgIRh+CZnD+jC/vNGnWMWJRqXfP/jsuH3/TPb+gsmaBx6+QcBJncYNxc90BBwBR8ARcAQcgeVBoBrhkBahQ571xaMPTmePH5AlTWVfHlTSu2s1fNMmdBiB71Ou0mu/1XYlyJqZhRKxs+vGvP1riJ2Nk5bZNmG/cea2bb0+a4W50oyE1YaN13d1ItByQqdWMkfr5ey+nDefYvXgtKpKRE783xeOLr0FKyR1tK6OFktmpJRPv1qdRu+1dgQcAUfAEXAEugmBaoRDmoQOedVXT6wuUqcavk7odJO1rB5ZIXYm5xet786ifT87b5mDdyyzpUTs/MrLU7Y+N23ZmQUfsbN6VGLV1rSlhE69ZM4L51fn68hjUqbZ34/sXXpjA09AmMoWLpbspM6qtXevuCPgCDgCjoAj0HUIVCMc0iZ0yMOePr30gCxcn7DSSye6Dth7AlfD1wmdbm3Z1SE36+bcnl+0lycW7V0XZy2za8oymyYts3PC/vPZ20ViZ+DuvBM7q0MdVmUtW0boVCNzGMLKCBItfvytl329nGaJnPD83906ZqPZXHEKWzlSZ6W/hnNVWrRX2hFwBBwBR8ARWGEIVCMcWkHokFM9e7Y0UodR5CuZ1KmGrxM6K8ygVnB1bs6abR6ft8zhu5Z5cdIyGyYss2vC3ntxynbemLHc9Hxx8WRfY2cFK8EqrFpLCJ16yZzHj6a3en5Iaqz277/4Yt6ujWQfInVYu4gFqcM1ddRmq9AGvMqOgCPgCDgCjoAj0MEIVCMcWkXo/MAz48bocdZ8SSJ1NOK52x+QVcPXCZ0ONo4uEU39DLat/jBi59rdRfvzy7OW2TxpmTUTlllXsMyeCft0/5S9PDFTXGNnftEXT251W/j124NA6oSODDZ+m1W4AHI4MucvDnTe4scE8J9cO2av2zRm79iRs08cyNkXjmTtb49n7elTWXvm9Kg9dSprXzyaLf73yJ6cvW17zl69IW8sTtxJRNKr1uWtd7A0Ukdr6oSvNF+Ji/u1x3T8Lo6AI+AIOAKOgCPQDgSqEQ6tInTI58gJt/Q+TOrEaxN2M6lTDV8ndNqh5Sv3HvQJ6QdOFArFLb9b/YHUYX2dDfl5y+y9bZm1E5Z5vmCZ9QX7x0cn7Mnh29Z/Z85m2kAwtbqufn1HoCWETkjm8PSC+cbh26w0zeoThzpjZM5PrBmz39+WLxI2Z/pHbXR01LLZbPHV6bw+nSczlQrHUDiHcqY/a987nTWInp9at/yEFeTUleF8cXpbSOrQLnq6RJuJjHOzcAQcAUfAEXAEHAFHoFMQqEY4tJLQgdThYd3eSzkbGxt7YKTOSiF1quHrhE6nWEJ3yYFesYbn1StX7MiRI3bo4EE7euSIXbx4sbi/1bVhLNDU3KIdKyzajx+9a5kXJi3zXKE0Wmdbwd7ZO2lbr9+1G7PzNgcD5B9HoEsRSJXQESEgQkdkDgFvcnKyOP+YIauQI185vrxkzqs3jBkBqmdgibxBLoI1r06HdKIgrwpr0YRF+9nqeM7lGlxLJM+pvtJInp/bsHzkzs+uG7OB0dxDiQhTr+JROl2qyy62I+AIOAKOgCPgCKxABKoRDq0mdCB1fui5cTt4JbsiSZ1q+DqhswKNqsVVQqd4cHz50iXbv2+f7dyxw3Zs317c8ru3p8foH9IPSaPQ5yw38md6wezs5IK9+dxM6fXmjNShvFgarfP14Sk7OzljE3ML1vqxQy0G3i+/KhFIjdCpRObAzrKYHMQHZMf3z2SXZVoSr0P/yP68vdxfGkkTEzgiaxjFgrwU3hClwkLOcdF/Op5zdR3qGxI8jN45cXW0OD2LIbztnpr1b14ct5H8eFE+6sGoKY3S6eahwqvScr3SjoAj4Ag4Ao7AKkGgGuHQDkKHnO2Hnx2z41dXHqlTDV8ndFaJoaVYTXSK/tChQ4eKRA5kjgrkDqROT0+PXblypTiCh1E8zZT+vr7ilC76M0mf2UWzoelF++PeGctsniqtq/NswTJrCpbZVbAPXp60XTfuFEfrzPraOkkQ+r4ORiAVQicmcxjxAdvKfEnIHEgPjBoy56We9r+a/MfXjNmXjmZtaGS0OGoGOTT6BrlE3EByMJKIgtwUSI+wwCarhPt1vM7nWtRbBE9I7jByp2cga+/ZnWv7mju/unncxq+X3taAzFogWaN01JYdrLMumiPgCDgCjoAj4AisIgSqEQ7tInQgdXg4ePpa9elXjBboluns1fB1QmcVGVtKVUX3eZB9YP/++0SOCJ3idscO27lzp+1KqezZvdvOnD5d7KOhz0kf9vJ680cusVjyVGn6FaQOZfOE/c7ZCVuXm7LR6XmbWfAFk5Mw9H2diUBqhA6GCysakjkQHhAbkCaMVDl8pb0EBkH3704sjcbRVKqYxBEZg7yQNZAcFEavxEXDAuP9/NZ5XINrcV0InpjcgUyCVILYuTo0au/a1d7pZ2/ZNl4kmpANWamTCB0lH52pri6VI+AIOAKOgCPgCKw2BKoRDu0kdCB1eFB4fqBE6pBT8gCPnI+cinwwXJ9QeVW5TmYntGU1fJ3Q6YRW6i4Z0ClmQhw8cCCR0IGAOXH8eJGEgYhpupw5Y+fPnSv2OcuN0gFBSJ1XZs3edmGm9FpzETqsrfPChL3qeMG+Mzppl2/P2N15n4DVXVq3eqVtmtDBYBUIMCCtmwOhAWHACBUIjIGRXPHNUe2aZvTu3XnrGxopOhOIHEbIaCoVBAuBNyRwRNCIsKEeKpAdlYqOY6vzdT1IHhE8IncYEUQCEBI7ey5mjTdStQuft++6XmyfMPmg/ZR4rF6T8Jo7Ao6AI+AIOAKOQCchoDxTDw3JXfTAkAdk7SZ0yNV4oUbvYGn6Va2kTidhGspSDV8ndEK0/HstCKBT9IFePnXKdu/a9QCpw+9TJ08W+yF6GJ7GdvruXZufmyv2SyvJyPrH/XcW7XWnpy2z4d5CyRA7kDrrC/b3Dk/Y14cn7PTEXZuYmy+SQJWu5/85AsuNQFOEDsaqICAyB0KDQAt5AXEBkQJD+3vb2kNWsPDwwUtLU6tE5PD0JCRycByQLiJgIGNC0ob6JBUID0rSf+wLryGCR+SOiB3IJGQJiR0wGs1m7VOHssVXZLaa2GFxP2RwQme5TdDv7wg4Ao6AI+AIOAKVEFCu2UmEDnkabzK9OlSZ1CE3VO5IPTrxUw1fJ3Q6sdU6Xyb0HrLz7JkzduDAAdu3d29xxA6jcXjYzv/L9ZlZNDs3tWCvOj5tmXUTS9Ov7pE6f//whP31wIQdv3XXbs7OW4ea7nLB5/ftMASaJnREbijIQpRAWECgQKbw5OTLJ9pD5rxnT4kUgRxh9AtOBNJERA7kRUjkhCSOCBoF3XBLoKtUwmP1XdcTwROSO8igKVnIxsghsMK5MQ3ryJVR+8fPt+6NWD/y3LidHHzl/ggdSC3kVNLRqQlHh9mOi+MIOAKOgCPgCDgCbUCgGuGwHCN09OCNB4n9w6PFHK7cSJ0wv+rEHKsavk7otEHJV+gt0P3bU1M2MjJi1/r7bXRkpNgHYv9yf+7ML9rBmwuW2XnbMmsnSmvpaArWuoL9o6MFe2KgYIdv3SmO1FlwVme5m8zvXwaBhgkdnL8CAEYJYcFIFIgKkRQQFAevtH4R5B98dty+d/rhUTnViBzkpoiEUZ3S2uq6ug+kSRKxw2gmCDASAYgoCCnW1vnVF9Mnwn7s+XF7eWC8SHRBvEEuhYSO6l5GX3y3I+AIOAKOgCPgCDgCbUVA+aYeHvKAjhyPvGm5plyJ0GH7Cy+M2cBINpHUIcci91O+2Yl5VjV8ndBpq7p3zc2YugQpwpo0+ZlFuz5jNjG3aLxRqls+yP/06LxltkyVXmUuQoftuoJlDk3Yl4cKdqJw127PL5iTOt3SsqtLzqYIHQgLAlQYYDXVCmJiJJsrzjEOg17a35nDfPJqicyBQNKoHOSAXEoakaOgivwKrOG2WRUIr6XvIbkTEzskJpqGpdE6JCisDv+BfemROizid3ZwrIgRBJLwIdFAphCPZjHw8x0BR8ARcAQcAUfAEUgDAXIpcpQw3+wkQofc9pc3jhXzXuWi5Fnhg7NOJnWq4euEThpavPKucXPWbH1+3n7i2F3LbJ+yzK7b9oc9M/byRPcwOkgKCfV61tN5cfLBUTqQOhsK9nPFhZILdnZy2qbmlm+a2MrTIK9RWgg0ROiEJIWCK8SJplrpiclfHGjdtCGCJ4sI9w6MFke0QCBBhiiAam0YPRlBznJETlpglruO8FLAJCkREUaAZ2STpmGJEANDkgKmYD11Ktv0YskQXz1Dpde1Mw2N+wijOMkoVw/f7wg4Ao6AI+AIOAKOQLsRUP6knLPTRujoYeWvbx6zbC730EgdjYaO8y3q1Qmfavg6odMJrdRZMkCCfGNk3jLbbpfWoHm+YJk1EyVS5NBdu3Kne0bqYIbHC4uW2XP74VE6xbdfFey3zvD2q4ni26/u+NuvOksZXRprmNARKSFCguAKSQCpAhHxcn9rp1q99oXSnGVGsmjhY57WaNQJJAmyLSeRE+sXAVNF+EHsICfEEzILR03BEqnz7Zcbf7U5i/ZdHColGLRPiJMwQh5KpyQXMXb+2xFwBBwBR8ARcARWJwLVCIflXENHZI62b9k6VnwY100jdarh64TO6rS7SrW+dHvB/q8jdy3zfLT2DATIi5P2++dn7PvZeVuXq61syM/b7hsLduxW/eVEYdHOTi5Y71RtJTttdjcaaANB9eErc5bZmDBKB7LqpQn70OWCrctN2sj0nM13CBlbqY38v9WDQN2ETkhI6EmJRueEb7V63abWjc5hWOvg8Ghx3jRkjkaciMxJGpUjudku90eyiESJR+tA6oSjnZohdX5+/Zj1DZd/WhQSXpJrufHx+zsCjoAj4Ag4Ao6AIyAEyE/ImZR3duoIHZE6b9uev0/q6EFaOP2q03Kvavg6oSNN9K0QKC4mzIiWcM0ZfYfkeWHSMi9NWWbL7drK1tulaVs7pyxTb9l12zIH79oPHamt/FXfrI1MP9wfPMACyfvuLL3xSvVhC1G1r2Cf6ivYzutT9gpvvhIYvnUElhmBhggdgqpGloQLIWua0PfPND9FSEEx3hbfJjCUTOYgC2ROGCg16oRg1WkfESjCE7nDEU8Ef0bTkAxoseTvnM7XPP3qNRvydq3MIn0awUQ7djJGndZmLo8j4Ag4Ao6AI+AItBeBaoRDJ43QUd76JztzD5E64YPHMFdVPtheVJfuVg1fJ3SWsPJvJQQO3VooTVEKSQ99h/zgVeDrUyxcL6UC8cOInvhzY8bsnb2zpTdeUQfVR9s1Bfv3pwr25MiEnZm4azMLi07qxCD672VBoC5CRwEHAoBABHkSjs7RQsi8SUkBLc0t68BcHnyYzOFJjQiKpACJ3J36CTEVsaMpWMI2JnWeOlV9+tUvbeSNCw+PzImx4p5O6HSqdrhcjoAj4Ag4Ao6AI1CNcOhEQof89/17SyN1tM5jOOU9fgCpfHA5Wrsavk7oLEerdPY9h6YX7bUnmXIVER8QIRsn7U8vztpTI/P23dHmyrdH5u0rw3P20auz9qErc6mUb47OW37mYXx5O9euG/OW2Tz5cL1E6mwp2Lt7C/ZiftLGZuZstoP7mA/X0PesVATqJnRC0iEencN6Nl86Vp1saITk+dHnxu1Mf7a4AHI4zSomKLpxxImCuMgVjX4SYcYTHZE61B2cP1Jhwek3bB6z0Vy+OKqHUVPxQtFaN6cbsVqphuj1cgQcAUfAEXAEHIFkBKoRDp1K6JDvfuxg55M61QRkniwAACAASURBVPB1QidZL1fz3ukFs+IUpUN3S4shQ3hA5myeKr4xCsLn1lzpDVKsT9NM4To3Zs0YQZNGKZR5tTqP//vuLFomrJOIHG3XFCxzYMK+MlSwo7fuFN961bnDBlazhq6uutdM6ISkQ7nROazsz6uxGyFsqp2zrbdE5vCUI1wzp9LInG5qSuGroFqO1NE6Rayr88aXHh4J9ZZt45YfG39goWimbq0E4qub2tNldQQcAUfAEXAEHIF0EFBupPyTnIYHXXqraicTOuS3nzu8lMNqTZ1Omn5VDV8ndNLR45V2FV5bfuTWgn28b9Z++9y0vfXCjH1teK5Iiix0KcuRn160t12YKU3vEokTbzdN2NsvFGx9ftLy0/M+SmelKXYX1qcuQkejcwioEClxQP3GqdrXd6lG4IT/f+JAaR5yPGR1pZA5od6I2AmxDkfq8CYxRtyQEIyMXbdXrV8idd66c9yu37hRTHBC0oupWysRqxC3+LtwjLfxcf47fQQc89ZjKozTv5NfsdsRkG5o2+31abf8wi3etlsOv9+DCNAe5EXdSuiQ00I65fOl0dOdRupUw9cJnQf1sZZfsQ/R71rO7aZj4G2YdlSYNbszv2jzXUrkCHNGAz02MGeZ9QlvuxKxs7ZgmYMT9vXhgp2dnLbb/hpzwbeit7Jhtp32aYjQYcqO1neBXGAaUC6Xs59cm/7oHN5olc1mi69C50lMp84/TrNhpTBJpA4kmhZLBvve7E37kefG7U/2lN72xT4w4pjw6Y+mWXFNiu6RptztvJbkT3vbzjp0873Swr2bMUhT9rTwjK+Tpowr/Voxdo38bhdGjchW7px2ydwp9ymHQ7P7O6V+K1UO2qfbCR1InSdPPkjq8JAuzNUgrJZjOnw1fJ3QediymvUZSec/fJfO2IOs0wvzdmd+1u7Oz9nC4spdDHhyftG+m50vvnq9OIVMJE64ZWrZpgl7tK9gm8am7MbsfGc0lEvRNAJJdlnvvqaFaOACNRE6qghBJnw6QiDiKQPTf545m/7aOT/47Lj1DCwtggxZAVEBmdRJi8k1gHvVU4R5TOow0ob6kwCABW0QFhE5mmIFTpA5ShC6lcwRHuGWulQq1DkslY4Nrxt+r9pQHXZAKHul7/WKnXStSnjW8l/SNeuVq1uPT6p7NcxCXQ7tOem8pOuzr9s/5eoV76+1nvF5/E7Cs5Z9SdeqVY5qxyVduxaZKh2TdM1qcnTj/0n1rIQL/7mtdV5L0460TZiDdtOUq3DU+XdPL02/CkdTk98tV25bDV8ndOz+g9DQp7Tal3SCJZI5TM3N2IFXhuybw2fsuewFG7k7YfOLD78lqhPkbVaG2/OL9kxuoTKhA7mztmD/8XTBvjkyYQN3Z1MZmRTqVqXvzdaxFedXkjf8rxX3bvaaoXx8r2bXlf6Pr8XvdnxqJnQQniQHcoCgA6Gg0TkMIeWtSmHASuP7Y0eyxZE/4bo5IipCkkLgtQOwdt5D9RL2JDLUm4AvYgc8wqLpVSJywqc9XEfXbGc9Gr2XZNU2NqAw6aae9ZbwfL6H19c9w22j9WjVeaFs7fge4hNjVyv28XnhNeM6tAq35bpuXL+w7nwPsakVz/C48Hy+x9eP779cONR631jeVv0OcQoxDLEt9z08PsY8lLfWOofHhefzvZyc3LecfPH+WuXlft38qYRdq20tvne3Y9kpegCOtB06TX5D3tOthA758ZqzD7/kg7x6uUidaviuVkIntuc0/HDolzvdJzMa5+LUDfvVk+sss+Fjlln3Ecus+6hlXvq8fWv4rN2cvdspLiI1ORih871qI3QgdHi7156C/fVAwXqmpm26zkWDYt1q9ndqANRwoWZlTTq/htumekgsQznbDu213PdydhzfI9UKRBeri9BRINV0K54sQLb0DmZTJ3N+em3+/lSrcK4xwW41kDlqJylDmITSDiJ2SGziwn9SOpSMc3Udtp3+CWVNMjDVTTiUwwJdCUsSTpwb4sU1ZZjhvUOZlhu/UBa+h3LyXfInbeNj9Tu+pn7r//C6wl/YlcM/xpvf4Tm6juQM76X7s+3mT1gPvod1VL2FQ4hNEnaVdLkctt2gz3H7VsIs1EPhF25DfOPvum68X+fH7ZDUBvG+sM10vq6n++i+bGv5hMfzXdfRdXWf8N6xXOV+h+foOrqu7hPfvxaZO+WYUHbVh63qqDqzFRZJWIW2xvf4GJ3LNrym7hPeO5SpU3DqRjlkC+BNe7SS0PkX69LPaeOHnD/wzLhtvPAwqUO90DnpFjqFPkmPWtV21fBdTYSOsNY2tGfZuOw+9AWxn+B36EuS/g/P1zV1D7V92P6SqVV6EF6Xew3eLdjbz22xzHPvt8y332WZp99pmW//iWW+96eW2f4lW5/rLZI6hblpS7swKohpXu2e3MUaOo8PzllmQ4U1dCB0mHa1pWCf6Cu97WqyxnV01IbahvrF97D94+/xse3WDcmsbZI8sczh76TjdS1tQx1sxXfdh20oj+SUHco2k+w23qdj2ep8XU/3CO/binpVJXQkAIIhJJWIA+nnj6Q/3UpvtWJ9nmpTrVoBTCddU20gpZCSSGnirf7X8Tq/k+oUyyIZtZXsqgt1lMHIkBQoIRgp6GVYeNqlEu7Xd52n6+i6y2mQMS7hb2HDNsZH9hnrQqXfwpatrhdvdYyuAzbCCdyEoTCtttXxnKvrdCreIfb1fk9qK7AN8UxTn4Ur20b1GZmX85OEmfBiKx2sdRueW+67rtWoXgv3Svosmwrrl4Rz+L/OkdzNyim7rEVe7qn7hzIlydwJ+0IZ+S7ZQ+zStDWwDHGs1PbdhmUntGc5GdS22AKxg3Zo1QidP9s2YH+z/2rqDyqTSJ3tvVkbGxsrrkWp6VfUDb1SbJQeSdfLYdTM/mr4rgZCR/gKi9CXhD44jhe0lXyCfK22ykHZap+2Ooct15Avkb/SPeXLJE8oZzNtXu3cmYV5O35ztDgaJ/Odd5fIHAgdlWf/p2X2P2kf6N1tH7m4N/XyFxf32ZeuHbdvDZ+xbw+fTbV8f+S8nS7k7e7C3EMw8JYr3taVWTdhmXDdnPg7hM4LBXv/5YLtunHbblZZRydsN7Wl2pat2rvWrc7VtdjqHg9VKoUdunZ4P8lQq8w6Tuex1fV0fbat+ITX1z0lB3LJ7ogvskfZqGy23FbHyYa5Rui/21HPmggdKo4wCIewOKZwutXPbUh3utUbNj44Ooc1YgCReyODgGlVo7dCkZq9ZpIiql2kkMJFihqe0+z9W3l+KKdkpy5JBiajQR8UKOO1hEjyKhWtOcR5WnNIwTYpsIYOSPKFMrcSG107vF/Y7jFGIknkjOKt/pezkcNRHdkKe+3jGI7XtcBI+AtDYVoOd/2v40O8hblkkgyhPqv+wqNTt5KTrXSFeghTsAzxXG59TsIY2dv9iXErh5n0V7oYb/W/dEl4S5e11X6O4xpxO6Cn0lm2sV7rvyR95nqSg/tIn6UPYV3j7zomrn8lOUNZYzn1u5y82HE1+wtlbLdeVLtfKFuIHZhXa2N8UIhdUjsLP22TcAx9mfRR+id96xQ7q4ZnJ/9PW9PGYAq+6C7t0orXlr9n+6BduHDBHtvX33JSh7Ui911eflKnGr4rmdAp50ew23K+BP2rNw+SH2Gb5Et0zdAnh75EcUG+LpS7FbZ7e37Wdl2/ZpkX/mppdI7IHI3U+c6fWeZ7lPc0X777HstQGP3T6vLc++2Dl/bY9Zk7D0BH9tN3Z9Eyh+5YZk0NhM66gr27t2Avjd+2GzMPk0O6eNhWtJ/aMtYv2puiWBJv9b/iW6UYo3unsZX80j3ZRpL8scz6LdnZhvILC11b90pDbl1D19Q9dE/JL8yxPdl1nCOE9qvv5ew4tGHlgdyL+0oGySQZm93WTOggCBVGSJIgTbc61Z/+6ByeWLAuj0bnACr3FSiAkTYQzQLZjvNV53ArxdA2/E/f2yFbI/eQfGyRvxYDUwKOMUEqUtBFpuVRSO5U0B8V7dOWYzmPwjUUYLl+nKAnOZ8kvBvBoJZzhJPuCU6xE8JhyhGFzoi6hCVMGORwOJc6hvXUbzliXZtrgZHwF4Yx9sI53FbDXPJIDjk/OUDhwLbTPqFscTvFbRVjqY5kNX0Gy0b1uZxOdwLGwi7GDX+PLsQ62Ix+h3pNO4RtEbZDOZ9STZ8r+Q9hrXqq3my1r5oPjP1fvfYnG0zyeeXsT7JJ3k6wPcki7KrhJr8VtvFqiB2d0FZpyaC2xo6wY/wAcQibZIQLrwSPR8A0+vu9O4ast7fXLl68aJ/aN5DadcvJ80PPjduhK8tL6lTDd6USOvIl8nON+JLQD8e5kGI22zh+yB9zfpJPRseT/HK5WJKWrek6jNA5xgidzZ+1xBE6kDhbHrO/t/8b9r+nUDL7nrTMrq9YZutjLS8/cuApO35rtPi2LtWX7czCom25Pm+ZTVOlNXLiUTnx73UFe2dvwTaPlSd0knSMNmw2x1Hurr5xqBe6Z1i3Rr/rWthINftQHyPsd+i7/lPuFcvPtWWHumejMofn6Vq6NveJ8Ue2pDyhkVyQPCPOBeN+jWSRbKG8jX6vSOjoRtyYyiuIIiyOiCD6kf35VIPdqzckj87h3rGyNlrplXCe2qbcttPrKLml1EkGps5W2ImRcalzyxpOFN60hj6qQAgmFf3P8RTOVaBVcA0DKwZeLqi2yvnEbRdiFeKEMxRGsSMS4UJdVNhHwX5jh6M6ytHquqGT0zVpgxB/YSlsY9y1X8fFmCfh3S5HH2PdyO+wfdBntVEYMIRn2E7Uu936jC2prZMwlk6rTmxb/dG9QuxIUNLSb9kw9VZhn9qikl5Ld9mi1+HvJH2mPWlX2VeIdVLSFfo/6U2Y5HF+LKc6DPgt+T5kkWyN2l+YgCTpBrKqrVqtE5WuLxlC7EJbC/VmtceOSjh223+0O20e5qLYbisInUd2Dtvly5ftypUrxfLxfcOp5rlJxM4PPztmJ/tyRTvGtvEl+BF8ADot/xH76LTasRq+K43QkR9RvcG1mg+mPcrFbcWDcn449Ms6RufEOVEcRxTDyCPijmGsD9QnrQ9r1/A2qz/t2WGZZ99nmaf/ZGm6Fevp7PhrW5u9aAN3CimVW9Z/+6Zdvv1Ky8vQ3Ynim7tirHLTi/b609PVR+dA7NybcvXIpYJtGZ8qO0JHuob/CnUsjFWK8+gYfk15Cfqmwj7+p7QrXpeTHT1E/jBHkWzlZJf8yE4J86O4j59GviHZ2cbYx/IL96ScvFx+VcmOYxtWXWP7TaOe0uGqhI5AUIKN0qFcBBwc1C+8kO50q++feXh0joJZ7LhUCd92DwK1GBhBS85NjkGdGHVgMCT07/S1nL3Uk7NvvZy3LxzN2/v35u1t2/P2a5vHDHLwJ9eO2c+sG7NffDFvb9k6Zn+yK29/dXDM/uZ43p45m7Ndl3J2baSkc1wzDKzlDFL6KIKxlXopvGSH6riEjhRHFCcZIlywUxX2UZKIKwUIOVq2cnC6tq4JRsJ/56W8fe1k3j52IG9/vHPMfr2I+5j9xJox+9l1Y/bLG8fsd7eO2bt3j9nHD+btb0/kbfflpc4xjhL5uHaItxIY6tkKR5+GxahtwmARBmvkDokc4amAQb1jfT43kLcdF3PGa20fP5qzD+/P2x/tyBdxfU2CPr9rV84+WcQ1Z+vO5+zA1Zz1j+Tukw8hvrQ7bYlN0b4xxnGHIc1AUw5vYdgK/ZY+KYkAfxX5FY6J9frKcN6+cWrMPn5ozN65M29v3jpmr31hrOhLfmrdmP2HF8fsD3fk7aMHxuzrJ/O2pTdvnBP6jxjrpGCOLYclichB3tj+lFz0j+YN+3v6dN4+czhn79ld8nHISlzG7/27F8fsP20ds3fsyBcfvjx+rCRv7h45FeoHWAgrdAPdjX1dqBO0XTs/0pXQ3uQPlZx57Ghni7T3Xmp32pz2xqbQV+wX20tzhM6f7xqxq1evWl9fn/X39xfLB3aPtJzU+bHnx+3steojdbDD0BbTaIlq+K4kQke+RDjGcTvOr9CzSnH7yNW8vXghb0+ezNunD+ftvXvy9nvb8va6TWP28+tL+RBbfrMfX/2pQ2P21RNLcTv0ycpDw1yNWKCYjZ/DBtoRs/WWq3dd2G6ZrU9Y5oWPW2bjp40RLry+/JUV9Jar2cVFW5+fs8zOqcpr52iUDoTOpoJ99ErB9t64bbcS1tAJdS3Us1jHFOdpc3ya8hLl78qT+T/OLxSvQ52QbnP/Zj7yC1wvjLflYq3kD+WW7NSJ/5WbodMidpJyfWHXiPw6VzjE2Et+5ViSWzk5/cvewZx9/dSYfWBfvpjz0b9RHk7fku9v2Fyy6c8cKeVjo7nkXDC031blVXUROgAA+DQGlR7N5oyV+pOeNjSyj2A2OjpaHDkBuABA0EZJUSQahMZpVkEbUQ4/p3kEajUwdEwBVE6NjgcGNpLN2dpzOXvHzjH78TXpkYl0gD52MG+Hryx1hsOgGnaEkzpnoW6qns0jZvefiIfOVIEgxkmOSGQLeMWF/8BSdQsdrJysAkucwHBuNpcv4v8H28fsR55r3PYZYk5HGTLo0lDpqSQySR5koH5JgSrGOg2c672G2jgpWOCv8JXoCXWoFDAGR3NFYhES8h883ziesb999YYx+4sDY7b/StZyuRK+lTrvyKqAGieJqivbtD+6dtr6naTjxBQV+RV0Dr3uHymRvBAgMZa1/iZZ/96ZXNFGhDX3Q5fjYI6OxAX8lWQk2TZyoi/fOFXqKNQqV9JxrNtBIvLEsbydG3jQ/rB7/C8yhHoRx+BW6EM5/Qr1BF0pl5zFuJFI0harMXaUw7Jb96MD8hPYDrrZSkIHImdgYMAGBwfvlz/b1fq3X5HXXLhnk/gpxULZovyzYo9so9l2rYbvSiF0hJf8iHwJOqXcirxDcRt/SDsov8KXXB3OFckbchhymSQfW+8+fDIdRojJC4Ol3A2fH+dFSbFEOtGq3IiROqPTk3bwlWF7auiMPTPaY/13bhlkz0r6XLuzYK89edcy66usnSNCh9eW7yjY5/tv2fFbdyzpLVehvokQkZ7F8Uo6RrvHuTu/2S+dILbF+QX5A3qMPqShC6HsoZ0oT5GNIAfyKJ+qJL9yszjXl39D/jjXqFfHQrll52DCtcPcPOxnSnYe0P3pnjHj4V29NszxcCI89PvumVJ/Kc4FW5lX1UToAK6AoAFpPITcejHfUIXLgfQ/duaKnQ+AxYlSccCPlbPexvXjlx+B0MDkGGo1MIIbT5bpMKVJIJbTwx99brz4FOXp02M2lM0XdT3JeZZzQDgQ1bdZ5LmOHFJoh9hGb65gv7Tpuv37jeP3Cx3SWovOe93GcRsdK009o54qCi4EkmNXc/bbW8aMpKMcbs3s5+nVc+eWmG2cvTqWeipFEERnYmcPRu38qG3VLuizdFmBOkwIFezwmQS6U/08xcvZL21srz5/53TeBkbLd95FniXhnKZOh23VSv3GDtDxN75Uml4J/ipKOBjN9Mc7041jEJ0kBCf7K/sOYpsKvgT8kxK8/NiYrTtfGn3TKv/Hiw1IZJQslksUl8P2YntDBtlbteRsNceO0M5Wwnf5CsVBbKZVhM7/3D1aJHOGhoZseHjYRkZGioXvf7QjvbV6ysVMnv7qQUetpE6zbVwN35VA6FTzJfLBeqglIge/eOhqvviQhIcl5dotzf3oACObN/eWyB1iV1Ieig9MitmqK9uWfhYXzGanzaZumd26bjZ502zmrhn7u+SzsGg2Mbdoj1yatcxLNY7OgdRZW7CfPlawrw4VrGdq2qa5UPSRXanfo750szm88ne2b9p64/5DI/RBeXKzeZt0iOso7qJrym/fu/+V+30P5Ki176HcjHPow2y5Wurvq0+F/ODViPyhzJwf5udgI9lDohb7XnMuV5xVkKYNQ/Yy0ptRO/Sn1K8RKYs86EMz9Q3VrSyhE4ISBlAEQSgASHv9nB33Xt/I9QnUAC9HFTZuWAH/3vkIhLokp4YC07ahgRFEwwDaO1Qa5pamgdV7LcgdpmcxHDYOqDhkHFCSUTbiiOKWjHETZnJIu/puppZY8MQpfCLAqA7KpcFscbpGvbg1ejxDGHdfLnUsw+RFWMsf4JNCnwBWrf6oPdgqUCjIKUirbdDlkMgB240Xcpb2GwEbwZnpQnR01XlXkMHnhjiHgaYVWAtPYdlK/c5msxYWRoJuOJc11q1oBMNaz/nzvSXfEQZzcCaOgrUKv9kfJxn7LpemjdZ6v2aPe/3GMTvSl7vv65AnTj7aaXuxjsjePHa02tt13vXld9EBfFMrCZ337ckaZA5EDn5D8ZDv7HvrtnRJ4CS7fdU6RoJki7aIj04aqSO/rHyjmVarhm+3EzqVfAm6hC9O8sEHrpQeviS1Ubv2MX2d/IE8gjy0UsxO8s/UvWWfu7fNzh8z+8pHzT7w22af/zOz/RvN7ky17JZpX/jO/KL93ci8Zbberm0hZI3QeaFgH7pcsGeyEzZ4d9bmI5xjnWtljhP6B/xjrAeNYCafoH6b/C62wv3+n3XpPOD9wokb9/v86k8hv/xaPformcO8Erm5rmxcuTk58IYL+eK0yFbaMqMun733wJp+TfiwWvVFN+TPpTf1tllVQkcNSQJFZwWHh0A4FtYlSQsEphsQLHFWgE0SiZOVYjbSsPWC4cenj4AUU8aFkcqphUFUBkb7s6YNa4e06ml0IzrLmjBMp4gDatzZoW5yRM3qbIgd1wydEs50++Xrqdlfb//Sk0ieQg4ODdunDmVbNiKnWhu88aUxe/laaXqYkln5hOUgddQWbENdpk2QJ9RldcrRZfRl16V88clFtTq3839si3n8EHkhsYNeldPpZoNN7F2EKXi2Wr+ZNkEHjcL3D+9r/VN2tSdPdJOmNaEn4E3he+gDmc7MvG1do91bprRm82PFWJ+UfNBeaetDJf1QHuKxI0Zp9fyW75WvwOeSjxIf8GFprqEDoUMcJCfFh3N9/DlbyJ2R0VF785bW2ye+o3+4tAyB4iCdEuquOJiWHVbDt5sJnTDWyJfEsRs/jA+GfKed8dm/s7W1hH+9fp1RvXrFvR4SJMXs0D8rD22Jp4DMgbz53X9u9u//N7NfyJS2b/mnZl/7qxKp0+EjdW7Omn0vO2+ZLVOWWVvjVCsInTUFyxyYsK8O3bJt16fsldl5i2mzUO/kt0Qs0G5p5vDoLv4wzYEQ8gnYjGKveADulxah87lj48UcSDm++v2hb6tFf0O8JXPYbwIf2TjLR/zJrvbaN+uM5vKlaZRhe4nUCe1Wdaml3jqmIqGjjkvYkCghhA5BLc3pFyzayDVxUiSQBC0qyb3rbVRVzrfLi4AUUnokhxZ2gNEnEhXanVEwjIZpZm2WegNkvcczwmLrxdI8Vo0gwUlIX5VkNWuYtFzoTLmecMPp4QzSDAbnLvfbtWvXimX3+UH7x8+319EltQP+heHGJNLoCH5BDj/EGf1qZdIS6nGsy/gokmvkQpcVLEgIWY+JOfFJdeuUfWDMSEtIVHAOnx7EHYc0dDr0SO3Uby1ueqWv335rc/vIHLUzOLPgPzEO3cDfgbUKv8GfzuP+y9mG52/rfmls6TwMjpaGCteSfIRt2+z30OaI/x47mkW0+8+Xv5AutJLQef/eXHE9Rz3AkZ2yxVbZPzKatTdsbD2pw/SEoXv+OSZ16KzEOTI4NfKphm+3EjrlfAmxWyNqyS3AFh/MYvPv2dNZDxRjf84LPk5fWxo1rtyI+qhzmJZeVNSlwctmH/4vZv8qY/bPgsLv//xTZrvWm108ZXb5THvKlbNm1y6aDfeZ3Rw3q7LGD2+0+sLAvUWQ19RB5kDobJqwt19gdE7Brt6esTvzD08xk00phrUyh8c3hX1nkSLN5MaSXz4X3SIvFA/AtMBYNxv5DaGD/TVDSMV2jv6HZE6Yn/cM8dKcdGSvt768tIKXaBBHasmrqFetn5oJHTUkCoMgLNpWb0UqHf/Nl0ujH5pt1ForvlzHSenavW13fVW/pA5wUhBlmH9azqGSnqX1H4sCw/DKKHEWSR1g6i+HWo9h0l4cL/xwTgQDsONe2AnEUlr1OXOxr/h61u+eGOiokVHUj7WM6ART5yScQ8K3Xoyr2UWox2FbKFAk6TIr4/Nmr7Taph3XgUTlLXF0VMrptBKEtPBup37zCuLTvZft32xofQesUnu9d0+powixA9Yq/GY0wGePpBtXK8lSy3/FEQL3SJ2w0xATqrKTavZUy/+6luwtTCaT7M1jRy2odv8x8hfSh1YTOtgjcYeOEok3+k8hDrGP/4ZHs6mOVC9nk6wfyKg9CIcwDqbZea+GbzcSOrEvCTt5+BI6kLSp2pNR2GktclyuLdPc/6VjD05PV4c4Tb2o6DlO7jX7g1c/SOaI2HlNxuy3frL0/x++xqwd5e2vNfvz3zT70vvMju40m5tNFJ8u8tD0on2ib9Yy226XXj+uaVS1bNcV7P88PGFfHizY9vFJe2Vm7qHpVtxYNkXO1OocHt+An9JDT+Vr6n8kAlFlp+QPfa4eKJMnptVn++zRpdHAejgOXmGuWUXUB7CWvNiB7BxswIi1f5fbxpnxcXVkaaQOmCJns3lVTYSOOi8ALVCYz5mmY+oZKAXPSgqJcnXqR4FjJWybxVgYVEvIFURZjDPN0V5p6mWla/EEm0VV4yQrreHQ4CgMcW4iVSE1wA7cKslXz38nz1+yj+8dTO169dy7lmMhG2JSR0kLzjt0/OCWxifU47Ad5A8VKMKEkDVPWHepljp14jG/tnns/mgdOg7UTcEmbbzbq9+99s/XphuzGm2/zx8aLU7n0GKrbClfPDLakXrD688vDeeLPkf6kJaPi+00tDlsOk7M0MXQ3jx2xAiu3N/yF9KJVhM6kKyK7egcnWUK8TfUwYGRrPGWzEb9Qa3nvWkLD5GWcWC2fgAAIABJREFUZNLDDfnluAMEXvV8quHbbYRONV9CW9LfoGMKsU6OUWtbdNJxrNMWPohpK6lzfLfZf/1XyYTOv8yY/dL/Yfarf9/sV3+0PeX1P2b2xn9k9u3Pm40OwKg8YAL8YuFiyJy3XpixzOap+skcXlW+q7R2zvrcRHEx5LsJo3O4sWxKhE4rc3jlx7Q/vjEmdBrxB5K/nM9Ni9Dhld/YIX5VhE4s/wMNGf0IbR1ZQ/IstHMe/nRKX5PZHoyApi9Hvcltms2rqhI6YUNyQxwgivPFo+klxywYpPVzwgalUbh/Mwxj1O6p/pQShVtk7dYS1oPvjXx0DXWAY+OKE/KnT3f20NZqgZtX27HArBI/JVnNGibYg6VwDAkdbATnlyah86aNndmZDPH/6IGlNXXipCX0E43qbqzvsS7TBiJzCDphoCCh4nXSnbTuU4hdPd8J0if7SlODwmADgaXOA3g3S6K1U79ftSa9eFUPluWOXfPyUHF6I69FZqrjN0+MdHRn4lc2ldYPSRodINvDVzVje7G9eex48AllM9jGvq0bf8tfoBf44XYQOsRZcl58PbkLfl++nziMPRD7WeeGNzWWs/e09v/u1tLLCuJ8Q36ZGNWoX66GbzcROkm+RLFbD2JCMocpVmm10XJchylYepOO9DXteJ3oM/rOm733jWY/G0y3YoTOz2XM3vRPzHavN7vWazZ0pT1l+GqJyJmZfojMQf7ZxUU7O7lg//ex6dpfTR6P2Hlhwv7gfMG+PVqwfa9MFadaJbzcqgiXbComdFqRw5OD4o+UGzPaQ3ma7CGxDcvs1DnIznU0Q4Drcx/ulyahg09Dd0Vs1EroSM6wr4SsxAf1N/HjPJRird7lsM9y9+T15iLi1HeUL1fb1ZNX1U3o0JAI8K5d6TnA39ry8Po5GnoUBqcyercsu6VEbAFcyoS8KjRIpxfJKpxVl7B+9QAc4kHdSTBi49LInM932PSCckZXbT8jMg73PUzqlDNMMKrlIyxpm5jQwfm91NNZndRqOKXxP9PMlGTL8Sf5iloxLtcOnB/jr4SQhB7nGyaEj3R5Qhi3DU8xXrywNJybBAS800wSY3yxF7DlXitdv8F337k+u3r1qj1/8lpHJRmxLuj3kydLPi7sMCTZXjmbqrZf+kAM8thRep0pOCg2yydVw3Gl/i/9AJN2Ejqh76OTQMEP4g+JA8qJrw5l7afXppcXy+7i7R/dW28SHylbxG+mlW+Uw7dbCB3ZiXJy1Qd8YjIHEqQdi1vHbdiK36zN0TdSWodUepFmvE70K7zJat+LpfVyROqwfeM/NPvrD5hNvGI2O2M2N9eewpo58/OJZM6tObMXxuYts+e2ZdZNNDYyZ23BfuNMwf7XYMG2jE9admbWypE54CWf1Y4cHoKFvhU+iXZvNjaHsmNDXI/rcn3ukyah8+nDpQeI+FLl9fUSOmAc2rrydGQdzo11xBtmk+z+0UOlB9XYrOreaNvVReiEzBxD85OEa2QfC9ClrYyJzielnWHAUNCQMtHxVkEhO71IVgyBQj0o1Ev1ZFvLR8cLE66NYoZMqcicP92Tnv40onNpn0MHLVzAVyx5uSSrVjzBknYBS66FwWP4K73DW659YNgHRnP3hylWSmRrwTjpmCQ9xo7BX0GCwEMbkEDBspeTt9v3s6YLvhkSLezYlNPrWn0FuHPsatZvFh5/7kRf14zqYt65FvNDF5JsT7aTZFeV9uk8jx1LT1jL2VglHFfyf6G/wB+TVygn5SFjmm+5inNSdJ370SYqdG5iUqd3MJvaU+tKsYM3FDIlTA83quUbYFftUw3fbiR0lDupM6r8CdxY/BgSpBLO3fYfIybODz740Cvs3IMHPlb+tppOVP0fvbqRN2Pq1Zc/YvaXbzV74hGzl75nlmXK08MLBVe9ZsoHQLgM3l20D1+Zs8yOOt9kpdE5TLNaX7CfPFqwJwZu2Yb8pPXdnrHphcr1C22q1Tk8/qBVhI76ciGhw/3SGqETEjr4MnwtPj7U13JqIYzpt4Zych31ld69u/VEezO+4mDfEhkX51X12GsioSNjF0khZwhAYuaYatJMBcJzv3riwQWRw8ZEBslTrkHbuV+yKPEURigSCghWFAV96tKpRTIiL7JTBwpGRL2oY63KFOPCNbgm91AnWGROpxtXqJv1fIfU4c0DcZIFvsK1VjzRaTDl+BBLJSSQCZsvZFOzwXrqudzH8oRSwxSVyApj6S3YNfKpRY8VJE72543FzZYbj1bf//e25e8vAB6SOsI89Bf14O763VnDf2vRI4b2p217tdicx46UO2KNOMdlPif2F+RV+H+NkGk1oUMuo1yJLb+RQfmN5Dg/kDOWEajFnpo55sP70yV1quHbDYRO7EvIu2gr2oncifiFL+GFFu2YItdM+zZ67j9bvzT9SvGa+itehzkSeKXyYfHhWzdKJM7N62ZMebqXw3I/Smr3qlFgajY5v2inJxbtzWenS+vlPF+wjEiaerbrS4sgf3GgYGvurZszNVeZzFH925XDr0ZCJ7T3sJ+ET0b36Yudvtb5MxkgxsbGlx6aYq8itGQ7tdhPXYROONTqx1Kci7alt/HhVjXadiqHhcoDyCgQAUNEjgI8LCYKRQBRIfHolCKZkJGCvCgQ8ovYiTtp1ZRJ2AgXkTlidDWiYc25zjeuRgMp57HQld5+1WwwBdN2BYNm6rwc527qWRo1gg5Ld9Hbekiz0DFIhzk/SY+xX5E5l4bak7QvB7ZJ93zrttLCiyTDSXrdCO6u391H6KAbvCWCRAk9SMP2ZHdJNqcpLRDYHjseHDkb+q7V8D32F+Qs7SJ0yGMUY8j5wrwPOUKyAMLz5f6spZkjJ/lk9j16sLSmTvwQSbLWk8dVw7dbCJ2k+I2fUv+F9un2NXPK6YP2MwKeehKvqXfsp/G1ypNa4TvQJfoA5EtaJw5Z0Ev+a/WHUTk3Z812XJ+3zME7pSlW9RA44bFrC5Y5MGGf6b9lLIJ8bnLaJuYWrJZaxDZF/fEVyiPTfCirEXu0N/4qicCrB3fJjq6IGFV/jrZMe4QOI8HpJ+LTQ0Kjkp6WkzGMCzyEkl108vaJ46X12tAP6k/7xf67WvuVJXTkFMs1ZJqv/eodGC1OX0DJqUwYjCo1ZrXKpf2/lCfERsQFDYDTRH4MimSX+lBQ0k4qkgsZkRXlR24lLXIEsTJR/6QP+4VNbPxcl/uRcLB4cJp606nG+cjepbVHmgmmwpR2kJ4Jz9U8Qod25zWurRwpAOah78NGpMcj2Zz96xU2VLsWW/rMvXnOInXwdwo8YBUmieV8Reg/XL+7k9BhxFZatocOSA88doxbWrEjtLOV8l16oniI7wkT91aN0OEeYQeJ+6soRiALsZmcCv+IfZzoy9kPP9v6zsRjR5emxRKjJG+YR9fim6vh2+mETuhLFL/BgLaTnpA3bbiQ74oOXi0xudIx684vvRFNOhHm9upbgVvaH3C/cP68PfH44/aRD33IPvSBD9jnP/tZ27ljRzGXbcU9wzqwXs5jA3ONvZI8JHPWFOxnjhXsrwcKtj5fsFMTd4uLINcKWWxT4NKqHN4JnaU3AcsP89bZSjbSSf/9yHPjlr2+RGjJVkPfHep40veGCZ003+aiN1wRjFB2lD7uICQJ3859YbAAYCUVChjITeedOkDeQGAQPCgEdxVYyOUqkoEtciEjyQcyYwA4/biTRj1x/HL+SZjLaYW4iOCSYVHnf7eC1xqJHQMLyoJxmGAlGWilwCZcQ11rVTCI5e+G371DD48UwG9IZythG+sxxwpv9DgpUcde0OPf6RLGvxVtyCgJ/Ac+rhmyEvyFt+t3dxE7xP6BkYfXsWokZksHPHYs6UAasSP2byvht3RF/qIdhA5+LqkzjL5KZ5NihUidQ1eybXmI9ZXjzZE6YFsN304mdEL5k+I3eRjxu3cwZ3ScWhEbO+2aPDxVjkT9yR2xmaQ8NE3/gH1euXLFvvj44/bhD37QPvC+9xUL3z/3mc/YkcOHizKkeU9da3bRrGdqwd5wetoymyYts2aisSlW99bM+bcnWTOnYOtzk3ZpasZ4PflCrWxOm3Oc1UbohDYfxoSwj8TDp06zy0ry/OXhG8V406id1k3o4BRRnEpC1fMf646I0KHzr6GBjSSHMupWbBXsIDZQHgXx4hC0iUl7/OQN+8zRG/bpI9ftU4fHjZWrP3kw39EFGSnIi9zIfyH74PDMuB3AIfzERsXxIrno8JEQ0QH82MHuMqx6dDjpWJIGpuVgL+i1gikjbdAfko5KJBkYS+fkrFrJ7ifVodP3ffzgEmmWhK90M9TXct+FtZJ0jYjCH6HHJOiQOX9xoPVPXDsZd/z14SsPP/kTCY+uSq/BtNJHmLt+d18H46vBG69i26un/UMd8NhR0oM0Ykclu+vW/0JdwT8vF6FDjFD8VrxQPohM2IMeZJH77LucNfxmq/36N19+kNRBDo26Tso7Qv/M92r4dgOho/YoF79/eePqit+/tHGsmLeQvyQ9gKnVV9fjM9C5bVu32kc/8pH7ZI5IHUbrMGpn86ZNtn3btocK523euNHWrllja55/vlj4/sKGDbZ3z55ifwKZ48/8otnozKI9NTpvmQN3LPPCpGUaXS+H8zZP2BtOF+xvBgu2aWzKLt+esdvztU2zCmWLbaqVOfxqJHTQBWxe/rfYH7/X7yRf5w3Erfa7aV7/X7ww3lBfUTpXF6FDkKKD2j+SHqHDkFQIHXV8O53QCQMGwRt5B8YLXaU0lRTwSyeXnkjV0kmTwxIusP9KavRUZOel9pM5PJ3gLTL/cn3eXrMhX3ydKG9ISnNkWSUc+e8Nm5emBRFMcTZJT0fAMOkjbDuxwyt8X70hb2/YmLf/sDFfxJpFgtuFMffCaStZKYdvErbhPnAOsS7XsXzq5fbrsXQMvFk4DbxZzBFdbkcnQfcPt9xbZGW1J3/ldBv8Q8yVgNMJ4Zrjy7joN/rLoqb/fH3Jb7Rj2kSIb73fSVpeta5kf8jdDvvj7TDYXtIIBmKBOgqhncXf1f4eOx5OOpuNHTHWK+G39EXxsJ2EDvcidnNv6Tc6rg4F+9WpUP4Tkjrbe7Ntscvvn8kW7VL5tEgdZC9H6oCrCvUph2+nEzpqC7UD+UA41erTh9sfv/HNitvEbr63Y22lMIZQb+IpcRU8pMvgJF2m/dP6kOs+/9xzxWlWInK0/eD731+cgvWpRx+1z332s/aFz33ugcK0rM9++tP26Cc+cb+w7+lvfcvOnjlTzKFp5/AzNbdoJwoL9se9M5bZOtU4kcNUK9bL2V6wt18o2FMjBds6PmkDd2dL06zCm9b4PfZZTug8HOvQVd5yFeYT6Kj8Fe2dpJ/CFh1Wzk5/XDxFK6Zb0af8fzfkin3L0MbS+P47269bT3ZpUIvqX4+N1kzohECdG0jPMdI56DZCJw4Y/fmbK4bQ+eKJ0qKntHdoVElKhUHJqJTQ4LA4NxzVQBBLQ+GrXeM3NuftiSOjdvzKiI2MjNjo6OhDZWh4xHb0jtpnDmetHU9r9lwpvUISJ0NyFWMqDJPiQ4htJ3R46eD+1f6sHbtcHl9wHxwato3nRuy9u7MtcXyhHkAWKnlF70RCJulrOYyFswJDEim5+3K+LQk5dYO8efOWvP3diZydv7akw/hJFen24PCIHbw8Yp88kLN/+0L7ZIQkZfFvkWnCvp4gJNzVgWhlshPqTNJ3fNSH9+XsxJVhGx5+sAwNDdnpK0P2ob3tWeg0Sb5wH0Tef92asxfPDhuyIS92R+E7+7C/t25t7cgA8gBsL3zyW2snQX5PHcgwIfPYUUp6m4kdSb6u2/fF/oJYqg47I2FasYaOCMs4bquTIZmIHcqBwvghUofOCgugtoNsXX++1DnCNyvvCB92IGcYH2WLbFUP/HiMb6cSOpJfvkS5EjFJnbs0+yyhL46/E7vftj1n3zg5aj39Q2Xz0KuDw7b+7Ggxpvz02vT6U7E8/EamoWwpVoNHHKtDXU7DR3D9rVu2lB2hw7SrdWvX2p5du2zf3r0Vy/69e4tEDrpMO4cfple9Mmv20vi9UTnrG5xeBZHDFCvInL0F++Dlgj07WrDdN6ZsbGbOZlhhucEPMsd62aqHVqt1hE65/PGD+9Prd/7Kizk73NNv/f39du3atWK5cOWa/fftzb9p+Fc2jdvh/iXCNfbV9dhnQ4QOr+tNchyN7OMpe6cTOtUCxtXsjdTwaATDNM/RStvxvPEwAZBvk7OKk4DQYT17Lj1dSaonnZv37M7a2b4SgYMukTyR4FHG761jxFb7+J/j6BSfvDpSPL9Vidabg9f80lEJjTUJU2HLVviWc1hprpCfhK32McrpwKVSpxHcCBzCuBq+g0ND9oXDoy1bHPJD+5aePsWEmRxhiGn8XbYd6rBIyTAZ51WgwqNVW0icbT0lAqcSzjHmtAVtwjl9gyP29Kms/ey61sv7qUMl+1Knp5xug3HSpxP0m9E3z54uESH4gxB3cBW2/Adh0j8waH+4rfkg3qgOvWNHzvoHSh2FJFlDeSF3Tl0Ztn+zId8S3X0ymnaF3YjQq2Z7avvQ7uhAeuxYeoLZTOxIsrdu3yedUTyMCYflInQkV6jLkDr4Q/Q5jCNrz7Xed5DLvNTzMKkDXsgFeZpE6mCzYR1ifDuZ0JHs8cNWTfl/167W+ED5cUZGPnaE+DtczCvDHCkpD5WfxocTV7b3jBYf4uh6aW+/dKw0TToepRPrQRo+Ah262NtrTzz22ANTrhid8+lHH7UTx4/b9L23XWE71UqSTEyxGry7aO9kVA5r5UDIhIsZ1/t9fcF++ljBvjhwy9bkb9nRW7etMMd6OUl3r32ffIN8VisfWq12QifMH7C5X0jpxSWP7Byxvr6+IokzODh4/yEaD84oey4MNTS169UbxmxLb6n/gp8KH4yRR8UPx9Clap+GCJ1zA+lNucIR4tSaecperZLN/i+HEwc7JZ+XR5aSsLQdcbuv9/ix8fsLnpbroAlPOStwKfeElSf5rarDf9yYt/P9JSIHZ4YRo0ew+RgIwSss7KPwP8dxPOfRWePJfKtG7PB2L+k3OpPU8UkyVuHbjmCQ1EYkhp89NFp86o+NkoRAJlAXYRniy/ckfElYzvcNFocbJ92nmX2/FkxrC4cTK1GR7Upn460wlg4rEdeTX+r79VOtJUcYWbO7t0TkSI+5r/QYTIUznQOKfod4c44SRXT6yROjxalDzeBb6VzI1L6RxteJEvbLpd//34v4j6UEXIk3uIcFfRe24ApR8vjhkZb5tSTMwfq5e8RTbIuhnvA99m0kHYzWSbpuM/vevXtpSil+jYQqJnRo46SP2l52JxI1HJ3jsWO8+GbIRmJHEubdvk86I38REw7LSehINvRZ8imWiNShHfHPTItqxu5qOZfYvfNiKSfCJxAzZKNJpA6EiEgRyR/j24mEDrgLe8ktX0KdwZwlIvCfteDWyDHv25OzgaHhYj8mzJHklxWrtVXuxP/EFeWh5EmMrGRaRyNyVDqHEajIxj3DjmPcaUzDR9Ae9B16enrsq1/5ij36yU/aJz/xCftff/M3tmf37mL+i641+rk+Y7Y2P2+Zvbcts6GJtXIgfdYULLOlYP/9QsG+OlSwF/KTdnFqurheTrNkDvVL0k3sEF2g7dN8KLuaCJ0ku4/9FYNFKtlELf8xK+FqX58NDAwUyRtslPwrLOzbf2mkZh+DLT5ztkS445/wB7JJ6hD6Z/ll6lvLpyFChyS+FjBqOaYb1tCRUSpYK1Cr03dpuHnFqQWrdhzzxLGlKUIampnk9GVQwoREHmUMnRXTVFol898eKz0xVwdYhoGjxDhoGwryqGgf/3MchsR5BFQMlI7aowfTT7bes6ex1/xK78JEJcQ3zWCQ1E6MXMBZgTHBh2QA3EiUYmxDjEN8OY9Ego7w2atDqScrEMJholKNhAydYpIOx8ng4GiuIfY9Cc94H0Oh6aSDTazHYCw9FrbYo4r20Q4cx/GxTnNNphgyHSu+d1q/Hwl0GznqxZ+AtRz6zaiza4ND95Pw2H9QFxWwFXEW+oq3t3GkzoazpRFySbaInNIDvkte6iTbo64kJ2m1O9fhrYWyPe6vtqc9iQuyr9Dm+K79HjuqdzIbjR0x5ivhdxwP4wS+nYSOdFi46ndMihBPsAvFbdnkU6da55Nl45AY+y6PFvMbYjd+ATniTgN2qI5DbJPYNb4Pv9ephI4wJ0+Nc3Pk5uUkwiTNLX2XXT1L8Vs5EniBtfyyYrW28tUcQ8wWsYMvJQ+9Njhsv745fZn1GnPuKT0QAV/JX0vH69nSJnfv3LHRkRHr7emxCxcuFDvF5C+NfOjOMvXpeGHR/su5actsm7LM2iamWEHmbChY5mBpitW3Rgu255UpG5qeaXi9nKR6xT4LfwD2tAH6kmYOT26Af0HvFIuT+m5Jcibtk+zoRmhbXB+d5X5pLadR7xo68rfyV6HdIxu2RH7drL1/7ehgcZoVI3PUF+La+BUV2e32i5V9Omtn/e2J3EP9KfDELsr5ZdU1qY3ifTUTOigIN0ZhsqvsLVfVFPviUPrOt1lFbPT8Lx9fGk2CkuGAkpxCNUxQ8jdtaQ3R9aWjpWGqcecG/cRZIjf6SsFIVLSP/zmO48OAyvUwWqYINYpf0nkkVrzmF9shiFfCNTRQYbwcHd7PHXoQYyUpIb7CFR2h6Dc4h/gqiYW4IAFKwqiZfddGGhvhJ3zjgBUmsa16qxVP4VjriQSOwABGwpj7g5/0FVyFcbgN8Q51Gh3jWiHuEEetmFbINeMRaMhVS6Io/Nut3yxUeeZq6Ykq2JMA4AeS/AdtALa0CbhyLOfQbkx9SiuhqaT/nz5UIq/xqdKTSrKGtqfkBts7fnkoVdujQ4PP5B7IA1Z6uoRNkdTTxvFH7R7bHdeQvB47Ssloo7Ejxnwl/JbeyF/gZ0JfvZyEDvgin2RURwM/iM/GNpAVPyO/zKvGK9l9Gv9ho0evlGIMtoUPwz+AnWxVBKxkVuctxrcbCB2wxl9TT3AezbbmgQxxT2QOfpnOeRy/kSOM4eBJUUxRXMHvSS8UW4aGh+0/v5RuvyJ+41Wt/nq5fcfMgtnI9KJ9lzdYHbz3BqtGp1hxHqNyXpqwXzpVeiX5hvyknSrcsVdm520ujWE5AWDyB/JZ6Cf2R3s7obNEuKRF6CiHyOXTsZ0D50tr5vCwn5xPto5vwZ9S+E5b8t//2PVwnxdi6TNH8jaaKxFBHC9foTw/yR8rf0KHav3UTehQAZK4NDsHAAUgKDlODqVPIhFqrVTax8koyyWgvYOtD8xpBPdarvGNUw+uSUJbqHMmBQNfYRI6qjCQnr6WjkHFMrMwKcYVkjkEb5IlBVCMA7lVSFz0nW0YVJM6alz/L/elO1LnC0cfxBUZYlxjw03CuFXBIMT5t7bk72OM88EucZTgK2zBFPnjIqw5juPDJJY2A9u0nz6xXgD+Az3gnrRxNf8Btkn4cr6Swd6h1iwyzNsuegdKo3KQW8491GHqAJYhztRJJcQ9xJwkDR1Rkoi/VpK45+JIS9Yy+oPtSyPQuG+tiWIS/u3Q7+fPlJ6qisyhvcPAGmIvbIUrxwpTSJJvnUyX/A3tkO/oivxdJVuUroT+LbQ9kg3I6jdtSdcvXxhIh6gO7c5jx1Kiiw40EjvSzoE64XqxvyDGoOP4T2x5uQkd5UWSUwQJvhq7xIfENvnY0dbnjhDYL/dXn35FLkchxuBPJK/w7TRCB5yFtfJQdCKMIV87ma6/k39ecy+G4FfjDhq+DOyUK4XxhO/y0fyvuJIUr5kqy7Rg3TON7ZGrDz+wRT/BL8zvO8LezWxibtF6by/Yn12atczGJqdX8Try9QXL7CnYhy4X7DujE7bt+qRduzNrdxcWrfZuc+3oxPpJ24f66SN0SrGuGUIn9FfYEfkZDxnTsJcNpweKa+eQg8UPX/GL9I3Yck/8wECutAg594Yj+dCBcRvMlvp+HMOx5JBxro8NUg/skLghW5SPq1XjGiZ00pyTenVo9D6hg7Kj9J3kZGSUMaFzv+O3ggid75x+kHhIagspWZiwxMnVH+98mKls1sD+YFu2OI9RhoWBYFChcSiIqoOTtFVAjYMpBkmApqPGELs0FxPVHGYMutZOr/ROyUorg0HYNiyALJIVeYUv2IJn6HyQLS5ysMirpJB2Gh8vvdGO64f3a/Y7wYBrcw/8B3JW8x/CNrZp6kqd6SC8bXs6QSGsH+vlDAyVprEpEUQfkBuswKwcxsiqEmIO3hTqzLnUX7qNj6I+4AOhdrpvpCVTyE70Pdyxj9sAzMOP2qCd+s0bRSA2sHP8B/iE2Eu3hWmMK8dyDueKJGHaX9jGaX5/5nRpoWbaT75DpGWoJ7G85Wxve8oj5JgLLtuTXMiCniopiducdud/tTv6Gtqdx44HCZ1GYkeI+Ur5HvuLWG86gdABa+SUrKGexzaJ/8cnP3qw9aQOb5M9P7BE6hBzsFcwjP2I4ohiN34HX9eJhA4+BozxOdQDmdWpQ+afasHLAb52rLSOWi0PFZEpqaALlDBWIzdYKw8lTp25OpTK1BHFpD/cUXr4UilXQneX+4METLF6LjdnmQN3LPN8k9OrmGK1ecJ++VTB/m64tPAxo3Juzs63hMgRfvIDinW0OTmE8mEndFpD6By7mo5PffeO0SKhA7mqfqfydtqQXJDCdwr2++yFV+zP9123vlyJwGGfjlVfqlyuH+ZN6E69tliW0OFCCkZJjhLWX06i2e3Oi6UhoVQcZcfJxZ0BGchybGWUYeAgGNKQNO5KGqGz5txSgk5b4IDitkjCIw6kacxfDPXqdS/m7NrAwP2n1erg0AahkaA7Cpa1BFLakfO5Dp00jWaAkT1xaTDVkWiM+EBfuFetnR8SlnYEA2H9qy+WCC1wwB6V+EkPSJyQR44H+cIH8WFSAAAgAElEQVQin8Fx6A3nUdcwySJRSWPBMskM8SJ5a/UfsQ5LTtl0T0oMv2Rki8/subZE5uDkpbtxYi2My+EcYx7jju5zTWFPW2IzBKVN59MfVfLGl5YWyKVO+ANkUD2QF8zDj9qgnfrNQtEiK4W/ZJWfA8uwSD7FQerHucKzFetuoS905EPyqZItSl5krWZ7zOUO9bKZ7zGZKj+BHJXaHHnLdcI8djzcPvXGjtDOVsr32F/g37BFfBv+v1MIHfBGVsmLrsuHYB/4G/kQ8gGIgY/sz6dmk+XsmWm+5KqKlfInYezBB+LnJCfHgG83EDpxDD+QUqcuxPMv9w0XH/bx0A9M1LkDJ3IP4i14UpAHLJMK/1E4Dn3gXK5BXFEeyj3oSD59YjA13SDvQm7uwf0U+/DF6GmSz263/7i7YNYztWhvOTdjmc1NrpXDFKt1BcvsL9hHrxTs6ZEJ23l9ynLT83aX3DXKSdKuq3xAaP+0tfIHJ3RaQ+j0DqXzkI1RNi+cGXrA5sn7sB/akP5CpYKNhb4Bewv9LXaHbsj2ZH/oTSOfhgmdNNcO+OqJ0orPBA4CHRUOk2sFx0YqmMY5Mso4CVXnbyUROhsvPEzoxM4+xiMOpIdaEEiP9fYXjYoOjp6MoC+0ATqjYCqDQYcoCpwKntrPcQRfzuN8roORYqxcH0KHlc3/dGd6nd9v1TD6KdRX4dyOYKCkZfOF0lQgEU/gA2YkJaEehI5H9il5+S+0Fc4Pgxgdal6/rHs2u/1PwavhY/8hOWNcJauwjWV8/Fj6CbawRccIBsiKHqKb+LtKzj3EOP5OHVXAnTpxLdqMeoWkDsk8+P/V/vTwV/uxlpESRe5JvUKdQe7wE7cBx4d6kmayg4wQapUIkjiwxpjSRsgoPKkryTFrIQmDNLe8YS4knyrZomRlW8320px29eH99ZGpanPJKDwVSz12PEzmoFP1xo7QzlbKd+lO6LPxoZ1I6IA58kpm+WX5EPw+shMHROq8d0/6MSf2R+TtV4aWHqDS2cCfESewRZUwbsjPdeoInVAfwvjxmcPpxjgIsf7+/iLJkkTo0J5gSdtSwFAlxFX72HIc5yA3bYE+gLfiNITOtWvXUl3Q/spwfQ8W2+U/WL5m4O6ifW1k3jL7762VwzSpel9BruMhcrYX7E1nCvbYAG+wmrKeqeniWjnz2GYbKib7l46iB6GOppnj0G/Bl6BH6FWcsyNLPR/JrljN9bgu10dHuV9aPEAzU67ANpYtm0vPlzIb6UDPYLFPSD6GbYrIDUkdcFHBF9DOFPkE7J32j3N98CVvA2+VetopPDaR0OEANaYUEWEUPEliX7cpHQaMgPP+vfmOZo2FRTnFXkmEDit10+EkwUYRUcCwUybFYxvqhpwUyv75I+kG0l97MWd9fX0PETo4FRkUhiQjQu5KRYbG8ZxHXUkKMVIFUhE6L1/sS22Uzjt2LnV+uDc2hXGDI7oVG7P0Tji3MhhghyygSIcXDESulgsMsazyGdov/UB3kJv2AGsFgjVn0yPK8EX4pFhmcJO+Ipc+wrWcPXMtFhCMk+FmfjOKQ51z5AQL2ZccvBx7KLPwlOzxVv9ry7lch7onkTpKFklIfzHl+flxpzPU77BOqoPaoV36/dtbS28REaGGHwhlFP7CUlthGuKpWIitgCVTGprRj6Rzj15emhqGvmCL8sexbkvWENPQ9kSYkIR94Uh664O9a9fSE//Yp6nNw/YO5UPvwd9jR3XdqTd2CPOVtE3SndAOO2mEjnCXXcqHhL4Oe0Z+chh8ErZJOyf5gjT3/ey6MesbLq1bqViEDSIP9kjhO/vwG8QMYmInETrCVbFOHTrpA/L++uZ0Y/in9g/df+ONCB3aTXkoPpr7gxulUg7KfzqOczg3zEORn3uI0PneiYHU9OK7p5fWLEWGMAbGPlt63MotRA5r5Ry8uWD/rWfGMltvW6bRRY8hcyCBNvEGq4niWjnPZyfswCu3bWR6zu7OL7SFyBFesc9qZQ6/mgkd5RKh/ae5zi+jhp86WZpqSR6Pfcr28aHYLiX0Adi4fCrtjo9Srk8cUL4pm0NXmv00ROiQxL4zxcDDE0MpI6Coo0NCqkqnUdlGwZJRIouSehqKxsOZr6S3XJ1MWAsjbAcpX6VAyvSLNBOQtSf7i4QOI2YgWsJgGjKlIndkXNW2HI8x0oYic9DDMJBevXrV3r4lnSfwJFI4Au6H7qBDGHmIb6jn0rswCSQAKwFMk92nvUiARDpwjzjY0+bIFMqYZFOSu5yO4D/6htLBFLlfsyGZEJbTjGUO5QN7EU7oC3rQP5IuIVlt6ozklG3F8iZhnLRP53EdSuiv1HFWHdHzEymPLPmdaKSU9Duun2RXO7RLv79275WRsr9ycQa59AkxDeXkXGGJzfzu1nR1htFE+CFspZwtSl8kK1thGrY97RAmOvsupUemvnVbyfbwo9wjqXMgPIVlOb+Ab/TYkUzu1Bs7Qp1YKd+l27JDdE16jZ10IqEjm5TssksSe8UdcgHsR6TO729rPalDzLwWkDr4MuI9fk0FbOXjsM1OI3TiGBfm5MS3H0lxWQie0p+7ePmBPDSpY4evpoBbrYXjk/JQHq6xliOjgq5cuWL/dG06elGJhEc/5adb7TeIsixGPDqzaGvz85bZe8cy65tYK0fTq7YW7O0XbtmTwwXbMj5pvVPTxVeRp/wCq5rgkd3LZzmhkxzf6h2hI7+KDxC2cTxoxdqGb96St4vXSi/VwCcSd8I+KDaPP5cvxSchlwgd+hvIi51RlMOlZXN1ETrqTFKJLxxJx7nQIWMoozqSABIm2lRela7JglpwkIySBkAeOuGh8lwaTpfASJMMqfdaQ1VeAU1bUMAC5dSTEZFbBNI011f6J2vydunSpWJAI7AR4ETqcC8ZFckQhlVv4Tz0metwPZE5kEeMCiKQbjjVlxpBNTj68OKxnULokLCBgTq86pCXk6+cqck5oSehs5X/AHNwTmutjJ9Zl/z6ZDlOyaMgIHsuJxtveqvXbiod/3cnsg8Q1uCA/0gi85Ct2Y/qK/xDOyVJJ4GkDfC5v5niq1FJoOvRn7gdWpns0D49AyWCJCQfaAPpCXgl4S85K/m8x1IelfiWraWYiD+rJybGba8nV7I9fF2aZCqvF8d34jPQLfkMYSp5ZHseO5IT2kr+Q//VEzua9SGdeL7sMPTb3UDoSPclv/xIOVInm8sZb5pUu7dqywhN8j1iAfarzgiYUkQ04YPw651M6Igcow7Ie/xqeqMQwf9tW0aKeSgP+JgCRR4K4UIMBRv8KjhSGslBOU95KNfk2hqdQx56+fJle/+udF4m8XMblnw2bSyfXW+e16yPmF80OzO5YP/p7EyJyGlmVA7nbizYq44X7GtDt2xttmDHb5VeRY7dLddHNi+f1cocBz1E99JqU8kuf5XU11uuKVfyqcpx4zwHeyKHaoXvZCYDI+77Bkv2T/7D/fCh5Jbyo+RccBkhoYOcyo3AVTknWKehpzUTOrEirjuf7hPJCwOluWl0NtThUeXDSi+HYQpsGkCGSSMpSb480niS1gqFa/SaPIWo5hRoC4qMPA6kvO2m0fsnnfeZvf3W29tbDGgEU0gdyBaCnYgdyAGCoIIrdail6BzOJ4ByPa7L9fVUBDKpp6cnNZJKaxTFnbTQuKXjcqjSudgG0x6hc+RK5Q6v7EDyVdpK9iQ9wfmB/avW5VPRFZh42rscERXKre+yZYJUSM6SVP1mikO1kW3k3kgLEQnlEihkS+sT4h/qDwFG5CuBiFeZJ9ldo/t2XSoFt1C/8ePLrd88NMDO0b16Y0w1nQHHtSlOIQR7CKJKOq2YmKQvavuw3RWrqD84pPWWyl/emNw54N60ubBDTsmV5BNIRD12VM4j6okdSXrR7fukP9Lr2G936ggd4S5bCPMnfKNyKBEoRRvN5uwNG9OJj5V8+es35W1ktJR7Ez/xjfhuCt/ZhzzE688dSo8k+diB2kf2Cb9wm6QLoY/7Ysqvg9956qJdvHixmIdCsIjUIV8kdwxz0DTyUAgj7qGHitx718uXUonVTEUZyT74YDHp4VKId9rfc9NWWitn923LrJtobooVryLfW3oV+VMjheKryAfvzt4blZNeTtUIBrGetjKHJ19YjYROuXziieOtIXTkT3kg/Rf7c8ZbusE+JHbkRyHGY1IH4lT5kfrTig2N6Fh4TlVCpxxYL/en23FnODyA0OlJi2EMK9rMd4EN+EomwiB8NXsjFUcrRVmubbWOsZQvxiEMpGkmVeBAxwNGdLlLWm3C2yxIkCp1KqWr7QwG4FxLh1eyVdtKdvkPEgYcG4kiQQcH+Bub00lY0Y1aO79JckGwiOQg0Umrs4vOPHHkwUWmwQDfIbIafORfqmFa7/9JdQ2JaPSQNk9zLZ0P7Cu97aqSfiMXH8kX+tTQl6RJWEI8kGijeyHZVOtTyVhW4Ui8ggQ81ZdeZwe9gSBSPCQp4H7YkBIB5BGOsV5IVtmeYpVsDxzSerL26g2lkY0xmZokp+Qq194eOyoTOvXEjlgnVsLvWH+6jdCRz1M9ZJ/EAuoish2fgm8eHs2m6pvL5TCMBsIn4Mfwj9gyMrDlN36IONHphA5+Uv6YqRHl6tvI/uXOP3X/RmRPOmfrxfYvjEzYvzVntv/mgv3Ky9OWeamJN1gxImdtwTLbCvbrZwr2+LWCrctN2rnJabsxM1d85fnyUjkljytbLxfz0sxxVjuhQ34U5vIn+9P1AUl2xD76C4/syVnPwNJoPfwmvoici74FeS2ykYshZ5j/EwfoU6MrKo3G65oJnRgslCfNRYeYNyyFbCThbhSAWs+TYSoICw+CSH/+ZqrBo5zitHo/yTnBu1JyLlJHDiru2LRqmFur696u679+44OvdwY/GbeMWjopnRPWOINWdXjp4JHUkUimYX+SPbYXESfY+v/YmQ4pjB/ierHeJnXWY7nizu6mnvSCAHL1D5UWtsW5t5uopq6qLzoEHnF9we3Jk+mREf9sfWnEBvXFN2o0EvdHFyQTOh7Khg20Ur//aEcy8ZCkI7K/cFtNVkZhpelDTvZVH7Eayhd+l6yyvaQ2T4vEq3e6Y/gwwGNHZQIn1qd6YkeoDyvlu/Ra8RD9CTvxaRKC79+79ICRe4RxOvZj9eJLPVQX2Sj5JPeISR3WuWG9m1gX0v7NWliQNuR/EDvkARS+EyMYhfLZg+n5uGZG6Ag/sEMXlIsrt6AOP9aCRerTxnw5r/fpww8+WCRGlMtD69XvpONZK6fvzqJ9ZWiutFZOM6Ny1rDo8YRlDk3Yx64W7JnshO1/ZcoYlXN3vvyDjiS5bG7WbPKmWX64VG5PmM3PJR7ayE7ZuXxWK3Mc7BQiIa08U7KHPiokTLhfWg+GGl1DBxnlB9BfxQQeKOK/fuGF1o7SCW2YfB8/euxK6SGuCHIRO8QR/Dsyyt7IP5Ubq28t/9aIvlUkdEKwkpzma1MEi7eEqENZy9PdRirbzDmhcss4FYAHxgstD7ih4rTqOwtSEgzVGaN+oZOXwsVJuZIqzn31hvYZUKtwaOV1NX85xBjbklGHxiydk761MhgwgkEBQYQOctXa4Y1tS/WQs03yH+/bm06i2gihUw7TLx9PRyZ0CIJ0uX2adCgOyrJZgs6Fa+kl6tR7eLQ+cq1cW6T59OpTh0odNEg/6l6JaIp1md8xjtgiwRlbIXGgndNcOwyCiOsqFioBACv8L/KU+8SyhrZHwoedp/UGmJ9eWxtRhkySS+2t5Atf6LGjOrlTT+wopxvdvL+S/uDHuoXQoQ1UF2w59M3KKemUYRf4gP7hUfv59a3Pq96xo0Tc4MvwERS+Q/QwtaiTCJ0Yt7ij2cocbiVc+z17SsSd4kuc66OfaXxYiJhROacnF+y3z01bZuNk468h16LH2wv23y4U7OmRgm0cm7ALk9NWmJu3uhc9npk2u3bR7Jkvmf3lW80e/e9mu9aWiJ3ZmTSqf9/OFfNamcMrf19thE7YHw3zsv+/vTcNkuu67jzzy3ycjg5FdDg6ZmJ67HE7HD0f2j0thzu6bbndHlvtTba12eq2LXu0uN2ytdiiLYkitVFcJMuS5UUWqYWkdnEBSIAEQBIbsYMAse9r7VkFgmQWCkQBqKoz8cvkn3Vw673Ml5n3ZWUVbka8eLm8fO/c//mf5Z53733kOt87WL7fzPIHTGVdd7zhQ/Hh5J3YGrrRaB1sjtxMfWziAJvyu05ssGVBx4PlEzAC6K1bxqMWMtYeazwOTJ1dJd2ddiqjWOSrJwFcBWGME5lQBpigoJUnXrLvHnnRvnP4on3r4AV78MBEfXtg/7jdv6/a0cadc7Zv7B21r+8ZqW/37R6ye3cN2ld3DthH1g9Gxf/Dm+Yfq02bQicvokE6MPAdBQhLUh6rYptlJMvhu598tP01J3oRDN7zTOdrdmTZmeylGVc+tS2O/1BBp8jdCW/Dquhr1BM+jWkNsXjGXV4FWRXJCDi99GfSQ+jH1WaCDUk7a8zEaveB88WGc4e6KDPZ+f6BxogXxZbQtwmnLC7znWSFz+gvTBzAMNZTFbi7zPnQTSe8CWUN/TScjDWSst2CTjN/kGJH86JOO7Ejj8dL+XvxWvEwzEeXUkHH+xT5Zp9T+pE6xKUzQ2P2Uyvj+eg8X//hTWP1tQS1Lgx7rSv4+W3x1lvrdoQOmMkX499UXCcHODscZ+RvHkbL4ft3PzOf63ODIysedusrKLBcmpmzb4zMWIW1cnicOI8V72SjmPN4zd6wt2b/OMj0qknb/tJlu3Btxlhc+YYXxagi25HnzP78N83+U8Xs9a9ub6iYfekWs5FzN5yy0w+hzyozx1GuebMUdNCJ8PW+gLqBbliOT0wsap/0/109Yc8cv/Ex52FhB07QF8H/E9toi/ratK+dV25Bx4OlABqSkUX6Yjq3vGlXqmB12sh2AMk7FmA9eTwmEIiAAolIwOk0UOAguJCUsxGU29kojrBhpCT3PrBqobQvbotb0Pna8zcOwwydPPiHgTS8MxLzUZExudUv5+pkvRfPNd8RjzmC4TNbuxvBENqNtxfJ7xNwuH1PpEUWuy3oyPljn+95ZjyaT3vySGMIO74gVpANcS7y2futrGIEPibmo3KZn1+kGCG5xI8wvsTk94YTjSeRdHpHUrL6xMF3IvDRsQoSLBbO+YgfnRZ0kNfLGvpphgbH8IntFHRS7GhesGmlj3ZiRxG/sNSOkQ3KX/h4gu9eigUdtQnboF3NijrHB8eMol4rnnT7++3PjtWf4sTCvGx6SMTntsZ5yhLyxSzoEDe8L479hKtu8ezH//PgB3KwTm9wtPId07Nmhy7N2tsPvjoq59EuHkf+6qLHnz1Te+1R5KdfubrwUeRMn2Lq1BPfMnvmEbMtq822PrFw4/vNq8xueYvZL/+vZj/tCjq8/60fNVv9gBmjdNrsUIe4yL7ls8rMcW7Wgo5yHY+x/AG59+bT5fvMVjbOdOmtp+cLO9gduR19D2QlllGYzivq0MYir0IFHSWGoePkMZqtGtLO7ywudH648aQdEm8aq4aiLF+5KtK42McAqgxUmFBsAhfkJGmmw43cdOBQGO3wG4osuqkoRLKC89XQVz1S+93r4t0xQU8QrllHrFlBh84HDoXOdTs6v9mO7ab4UGYw+Obz+WsGoHdxvx2bkq3I0foEHD7//XNx/EdRTNUGJc8aoaOCDjL9+pNxnD8yDQ2P1Iu4ZSVNRXUhPchnhSM2aPd9e+PoAnv+7oEbC8PwNizKI7vkEj/K5PeOV32bCjp5MuVhKlk9hkoa5Pt+OtIddC007As6CvZFYqB4zrFgm6Vv1hSK4XtjFHSEX4odzWNnUT+Xx+Gl/r1sUP7Cx5OlWNCRD1S7FJeyijrkgrTxyEA12kjAZvZ/17aR+pM+edonG08YvWfLUBSfwXXLKOjg28lfuaHQrG3ptwvGyAHiPrwi/6HvQpzAtogbiiGd+AymWK27MGP/bOcVqzx+qfMnWLFWztM1e+vBmn2xvujxpO2bvGITV6/b9OycvdbFpbP78kWz3RvMPvbfzd76E2a//X+ZveVfN97z+Ybtxxu//ZeK2X9wxRyN0uH7L/6F2dTLZrOznUDw2n9k2/JZZeY4N3NBB9/pczP4DK/lEz6+NU5e363veMdTDR+OLyfvQT5qBb6oo1zZ53rwqMirrYJOVmLIvO5uG+n/r6dd4WjUUIxAlatOO5dFwGh1jJwcMohAMlSwQU4VdlAQGwWedjZIyOYLQnQICVQ4YIo63DUhyP5MpMc+C//R4FGGwl3E8u1W0uE7NaydoXOlfX5yXvSRkb0MBo8cmp+SAl/hsRyLbK6VfYS/h/KHCXisIkLRjo7sFz5jt1n+jEVeY3CXaTPYKnbbaREhxLPTz1nt9rrArzx9PN7CyH+7u9j8/JAfZSY7+881itWhLuTbkKXZS7JyvHyfRr2oIBFr8VIWLO4mOcvSt2QlrqLvD26M0+nppqCTYkd+jMjzQUVjRzMuL9XfZIPKubwPW6oFHXQhe1V+RfvkY2gj8Zibgyrq4Mt6sejvF7cP1Qs5p0+frj+u++5n440Ij1HQEQ/CuPGDg/FiWZ4dLvXvGQWqgg59jRgFHaZYvXDV7PtjM1bZctkqKzoclcPUrNU1q2yt2cdO1ew7o5O28eKUnbqcMSrnVfuxsQGz73/Z7I73mt3+B2a3/Z7ZX73N7ENvMvvgbyzc3v8rZr/yuvyCzt/8eSrozM291s+VP/J5BDlKrFHJnSyKrDimuKC8nn4LPoH8Am7Tf2bqVczR993YP/2VL+5u2B/9A+TDv+PnwRfZaQOY+/yUdrZ6tSzoCCw5TwUYhCCIxl5HB4Jo/QAl31zTV4877WC2AqPI72HwFYkAHyWwqbiDYtiQv50NpbJBSIo7KFtFHYxoeHjYzp8/H3U0DEN5ObcKaVyfdnhSKeFQp0ZGg3x0ag6dT4G0iKEfHbxxjZEQZxluaHvgjdFjFziCmFNSmD6JPXubg8vYfaf2FsqPDcBn+Q6Kt0XwanVMzIJOrCmDdHTlx7APbBn9eXuSnov4nW6PydIFXJIuWJm/Fc5FfycmwCXOzTXQexaXQpnK5PfJweajD1vpQrLK92Gz+EgSBnwmvpO7nkUxanYcC+q18sXN5OU3NsWmUFYSeRbFbCZD0d86Leik2NF+MQedFI0d3fqLfvy/bNDnoj6eLLUpVx5j2SyxVnZLrMB28Z/4UeKIijp7z1aNKXhF7bTT4/5xx6CdOHGivt21eSDa9WIWdIQPuQtxJ+aDDTrFrd//x3pvMQs61+bMqtNz9uDojFXWTVnlkQ6KOXoU+drJ+qicrw/X7LFX18phVM5sXoeW769eaTytavJFM7baC2YXRhtr4QyfNfPb0Bmzc8fNPva7Zm/85wunXL3pfzdbdX+acrWECjqKDT4/wy/oppH85l9FehBLDPtmMMz2041+F/Lh34ln5JXkR+TMYX+BdjZ7NS3o8EcBpSAaJmJlzFd9cN/8eh4kzOoMhZ2CVo1r1vBufuO6wkUBWEEYnFCCNmRuZyOAs4GzCImSCVYUTXDCrKfz7PF4w18hJ0894dx0wrge10YO2kPbwvbSvpALW07F6STEMJZ+PseOM/OPhofb4Bwabp7tlVXQYeEuikQq6MihoP/lWNABb3D3nfKxapwCE9z7xVXdrYPSjX/K+q/sV37cJ8Ho/cxQvIIOd0JU0JEvCX13r/k9NNL5mjSSFQx9wuC5E7Og87a1zQs6yMGW99Lvikkhz/uxoJNiR7ECT9HYkceNpfw9vCYWeR+Gf1FReikXdNCL7FY5Je1UnJK/9kUdppG+7uFivOkmH/rajnN29OhRu3PT+SVR0LlzR7w43g1u/fxfeOPzfWJZmO83izHejxCJxqbn7J5z16yyuospVisao3I+dbpmD1drtnr8kp2YaozK8deL9v7AdrMP/FpjUWTWzmH7uYrZXX9iNnAyymVCn0VeXVYOTw5CH9GPuMrqVxRtmGRvlvP0wwgd2uN9Zyu/+bmd/dVPvW1LY7QOuqP/RUzzRR3agw7UD2tml4ULOnlKxSkwfC+m8wpH6aiBWR3fZo0rStxOjhOB2AO0NnDyG8poZ8MA2egAqajj786ANwWdv9gYdzQMJG81QkNtFRd8QYdO4WNHUiAtYgdrT0w0HQklTgtv+CM+lBUMtpzKnh6EruVI2rWTUH6SUp+AL+YIHSXKvlN+biQef+mUd7OwbbtYtzo+1EWYWDA9rAh3ixzzWxnF4cUu6HSrC/Bjk+8LiyQxCzrvfKr5E+ckS57O9Tuy4jskK7bHnaB+K+ik2FG8U140duRxYyl/D6+JRYqHYTxZ6gUddCPbpZ2yX8WqrKLOllNjxtqTRfxyN8c8sOOUfXbjuWjXKWOEjgp7t0QafdgNXkvhv3k3XeCdeFjEX5x7Zc4+caaLYg5TrJ6ctF/dzxOsXraHxyZty4uX7cL0jF31a+UUEaadY3hs+elDZvd+yuyj7zC77ffNVn7D6tO30mPL6xyQH5IP8vkyOU+/FHTkOyUvMUIyZ/nNlUfGezJttagfeMvaCzY42pi5UaSok0fzQgUdjFvBheQwDKT37Ig/9JPHdaviqCkLXFcdA+RBee04njwQOv1e1/Z7ZOpkoz3a8shIBQ9Mzg8OR78zs+NMtT5CQ1jT4RPWHmfeIyfGEhZ0Htwft7BX1BiW2nEPH2lMR2lWqPQOSgls2AmPOeWKIdx0rHAmGhGHjr2dtWsn2AV8kfxyrEq8+q2gwxpQTN+KwScWVw6LCFkF6XYx7fR46QJ9ZhUHKejE6hiwloy/++f9tvclkkn8KJPf3epCPl6+T0WSMqZc6WmPFF/83TZw4vqSJY8L+p1j+Y9k7eeCToodxfxO0diRx42l/H3oL8I8dDkUdNCP7Fe5Fjac1znBzzK6NlbcyuGkpUgAACAASURBVIt9nP9tq+M9hKPMgs57Iy34nofFcvm+OjE/IjsvRrfyF2dfmbNbTl6zypqpzhY/Xlmzyoaavf94zb4+/LKtnpi0g5eu2Mv1x5G7hY9bCdLp79emzV56oTEli3V4mK51/Wp9etfU9as2PD1pF65etisz1zu6Quizysxx1F/2OUM3Obxkb5bz9FtBx8usvFI1C26Ggw39D/o6AyNV+9Cm+LWLTv3D6x+bsOND84slI69GzqFH2uPz5yxCtizo8CeBJIB8R54iw5GBeHe2Bcb/9vAFOz3UeOIVChBJubYKDRBNDcxqXC+/A6NuNtrRLIDT0VZB56vPxbubDt56HCrnB+e8aUDigQzc8wAD+eGh+DwQH5bTnqQcfWKwPpCGfBbe3u7KGqGDDaNDX9DrJhhk+Q3aivz9WtAhIMbiWb+O0IFjZRd0fm7Vwumb8tny1/KVfO4Fv5XsiN/tFtckr3yfiiT4SwovnD/WGjo3Y0EnxY7iBZ0isaOXuU+vrhXGw+Va0FHsVHvxOfjIZkWdJ46WX9SJFRs5T5kFnfdvGI8Wx2O2ud/ONXHhhRvyvTBGN7NrrZlz2+kOizmsl7OqZpXtk3bn2Zo9VK3ZhhcumR5Hnj+huJlUcX67ePUVe2binP3ZkaftDc89ZG/fv8ruHXjejl96wWbmZuefrlXgcrLhXuY46iu3m+OEzZHszXKefiroID8ye7mFu4o69G3BR/1pRqkx3Tv2LKNObZ26x5HBxpIc5KrqI2bpknaGr7YKOnmK5S7BL6yKX+l619PzC4sqiWm3YhU2uJ8+i3zaq6jjgzft9dNUuJP+Hx6Li/Vb1t7YARPGyIHOfSeM9+KBL+hQDEqPiyyWlK86nh1IwVVcgKe871WH9+RQKujQKY+1KHK/r6GD7fri4EjkKVd5w7nlS3rN76VW0CGm3iwjdFLsKBY3SBKLxo5+ynNiyRLGw+Vc0JF/VJvJDXznhBwN/03Sr2mUKw7HnYbfaaekyP/KLOh8Ymsq6BTRQXijvOgNvJk5s/Grc/aVoetWeaKDNXNefYrVL+2r2T8N1uzx8ZptfnHKXrh63a65TircvzxzzWrXpq12fdqmrl8rtPGf6Vmma7XertOfmZt/NDn/WTF2wipP/51Vvvshq3z7/Vb59gessuJ2e9ehNTZ+dcquueNb+TbZr2w3zLtijrLvNscJ2yLZ1d/LuokVs6BTJGcMZcz6jNxedt+fJmZQ1KFPLd/Jjezq+LgxwrMXTw9sZZssllwdn1+WQzMmVHAN+4keg8IFHQDyQUV32ym0AMgPDsa7u+0b/PjhsfrwfZK+TipWvrH9+j6LgLqLjjJFPJL89REfLyycv7R7frqNKoIijzpgoYw4/7CgU8YC2ZJxOe3XnWosPE1SBoZgidPxWMNVOaVeBIPTQ90tGptlW6H88hn9MEIHTMMAhX3FClBU/Jnmg2/EfuWUiyZNWXh2812eLvDfBNJjA/E6A3+yvv8WRVay0+ndK/m/ZslNzBE6N1tBJ8WOYkWdorGjG1/Rr//N8mH+ZtdymXLl8ZffITfw+bdil4o65Mf4jO8fiOfHy8y5yijoKJaRz5Yp+3I5d6v+lOehf1+7PmfrL852Vcz546M1e3CkZqvGa7Zv8opNB2vlMNmKwsyaiTP2t+d229cG99kjY8dbbivGjtmq8VO27+WqHZ6caLkdu3ShXqSZnr1eLwANXKnZP9/2gFW+9+FXizkUdF7dVtxu3x05XC8weTyavQ991nIp6OBvyKli5cs8tjxWQQd9ZPlNcm/1q1UQ12gdiuJcf2Ssan+zq2qMlFlMO/+zjRP1vgM+jRinQRat+g+FCjoCSEGFk/rOvIacx1KuB/JHH5mfeqU7lnSO6ByinLCBKHKpvULy0SYFbCUsdAzpIDKVw+MT4/3hgcbq6K06nnJO6tR4DmDgZ4aXRjIRA7NuzrHxbGOdGjiMnkMOi7/COxV0mjvXbh9bjo3pLmeskYY8FpTRdNgtTpnEG3sJC6XSdZl771/EJbgn30Ig23Yq3jTOT22beC045xWIaW8v+Z0KOo2RnuJ5vz22PMWO5j5O8aZo7CjTnyzWuUN/Efqw5VjQkZ9U231Rh3iijgkxRkWd+/f1f0EjZkEHHIgzYEC8fXB//7df9rxYe3ImdRR9XgK/dGMxy85ZpHjri7NWefZy+2vm8BSrp2t226lGMWfthUt26vJVm2YtVHcxRsxMTF+2W45vsMrjd1jl4Y81tkdutUqR7eGPW+XR24ptK26rj76prPyE1Tf+98O/bIzKUSFH+4c+Yu84sLpeAHLiNn0ru1XeFXI15gidcJ1ArpXXt2gq9Ks/Snb199QnpQjS7wUdmoD8vg1qBzk4bSF+UEvADuj7cqOZdqmw8497xo08frFsdN3x+alXuiEc9h9on391XNARIL5TcO/echzprzzRWGBUFTwI5RsYklaK9A3t1/eS1RfLhK2/+0KH5Hv743W6RFLuKmfdDQ4xBT9vHPyOnOgBY5CB67zd7qmQbj10ynYcPWu7jp+33ScGbM+pIdt7etj2nR21/efG6tuB81Ura9M12HNNtufPjDTdJJtkOjgwboeHLtjRkYt2fOwlO1F92V6qNdbOAT9wxNlnBVLh3YtgcDON0MHWhKnvFGAHb18Xx4GzwDAFHXyWCjpcq5VDLsNPycfAMdoN7+gIyHfT7lWH4/kW4oAvZGW12/sT6aLMZCcVdPqroJNix8I4EjN2lOFHFvucYTz0vhs/u1wLOvKVar/8OLEEnylf7os6X91TTi7ebV6n/8co6ICDMPAFnSeOxmv7b6wes22HTy/IQ8kDZa/kh8r3Yu+zctBO8tBDgxM35KFnJhp9KGxIeajPQeFa1uvk5Vl7z9GrVlkxaZWHasU3ijkbavbxUzX7/ljNNl6cspEr1+3KzPx0J12PaU9HJy/YR09ssjfve8x+ZNuDVtnyjeLbpnutsu5LVln7N823NV+wyhN3W2XVnfPbyk9b5aGPzI/KUTGH/UMfsbfvf9yqV6ckasu9t1ly/TJznF4UdML+XqxBHH6ETrObgC0BDw4Af+lAfWzyTfVf5T9pV1ZhZ6xaNQrksdop/1dk/8Yn5m+MIluRUTptFXQEjE/AvYJHx8qbg8YdRU1h0NxPro1CcOooSA5JFWbk7eeXJ1sYpGkbhSvuqJKsHBsYjf5kK0h1/77xlp0v4Sj9I6sMApJJTjpNr4s0VI07CKdOnbKzZ8/a+fPnbWhoqP64djhABxRM2Og4+o3CUjub/2/4Xtfgemy0jw0Z8jZ+l3ycD1ngK0UvFSLBTLzFlsRb8UGcFd7e3nziErO6fzMUdMA1xJSEBkw1Dex9EZ+Qsf3kaJ0LnBuHrORJOg/1Lb3H3qvNzez2zm3xkuDVR2/0KeK653mWLjiuLH5jl9giNlgkMIY6kK6aYZimXOVjW4SDKXbEix0hf5fDZ3FI8fBmKujIXwoD/JBwwG/i04gxvqjzpV3xfHqRDkg7x8Qq6KiTrH4IOdf20/Ha/fOPVe306dP1PHRgYMCGh4frN2rCPC/MHdvJQTk2/L//nJWH5uWffI9soXz0I5SHwhPwUj4ChspJ1HfK8hevzJp9d3TGKk9NFS/kUPR5tFHM+cuTNXu4WrNNF6ds7Oq1+iPJs67DCB3WzRm5MmnnX3nZTk5dtCOXLhTamGZ1oDZuu18atZ0vDjfdtl0csseqJ+2Ho0fshyON7euD+62y/itW+T6jdNx0q+98sD6C5yvn99pL165kiZ35nbdXcbWsHGc08hT/LNllZ3AWrv3EI3FugJZV0EEptENtCYs61A4oaGIL+FB0Q44YjtjBnn5wcCz6+rWtfOa2MwtH6cCjMJcW+QoXdASMAOGk4Z1eHM9flxhEvrG34axwdgQuOSZ1GHxD5ZhQZD++PMnygjMOmLZiOG9eE8dwPIEYRcCjmjFOCIyxgqXH0eMnmSWv9K+CDoWMmEPUdh4791oxh9EOGBV4IC/YwAE2ZI+16ZzsuQaBkE1BF46rwBPuFXiRUQGU84CPuIrj8HwlkMJV8dVzFbz53iduZQWDm72gg57QW8wFFUmo4Sxc6LSQ4PnQ6XvPI2wb/oWBmcese9/Qzfvdp4utx+TlyrrTGrNgiR6w4U714H2fj33yfZw/FXSaF3TAMMWOxs2BsmNHp76in/8X+oubraCDbuSHyAtkS/KdYVEHn3T39njFjW5iQvjfsgo6+Phjg/HazCKpZ86cMRVzyMWx3TDHI3+IlYNyHs6nTXkobSuahypPVh7KOYlV5I/wRMUcuBMWc+BY+JqdM+MR5f/3c1es8mgbo3NYAPmpmn36TKOYs/HiJbt49brNZFwjvOZifObx5PWiztovNEbqfP/DjSlYK263X97ziA1eqdXX2ikqm3wWtupzL+WbMR8kc3KwsWYj50bP6mdw7az+Ras25MkOl+AhthBrrZm/291YQ0eyw09xsxPZw7Z5v+l9J9xXPgdeXNcXdpAH+6O99O9o84pDo/azj49Hy5dD3+g/v/Op+bV00GkWLt5e2y7oSMm+k+k7B4Oj5Y3SYdQGK/kTqHBYgI2T4vpyUCiniIMKFd7Lz55cRYLyN0qayhYuXgqRs4ZfChvJLZlV0KFYAekJdDGfwPWD5wfrgXRkZOQ1nROgpHeuC8nZ4ECMTefj3HBLwdUHVbin4o3fNwui4qicbBGeZtka8tF+rhWzw3uzFXTCAIuewZR5s96hdvP+7esaowoJBpwfDkj/+KgYgUq2mbcPbZYgia8Uj+AvxVKKu9201f93YKRY8aSX/E4FncWfcoW+U+zoTezI8wdL+fvQX+DHlHvgx5bzlCuvN/l03zFpVtSJeZPC+/lu3scs6CgPVXGdaRLdyBb+9/TZczY4OFiPk+S4xHPyQWI611QeGiP/5BzKQdl3m4eSKyKnZAyLOeSh+GS4pHwEfoUvHlP+IKNz1rUxOufVp1n9xYmafW+sZs9ebDzJKjx3v31mMea1E2fsvzz3kFU2fdUqW75pnzyxxc5cfqltUeWz8vJNHpkd8q3Tz8+fvbGgk9X5b6cBrWSnuBErb2TdK/Jv+ArvY+bJ8pdqj/ymchEVdfCh+BIVdmSL6geqsIMPoO1PHhm1//hYPP1l6Z2CMrGNa2PD6qOHNQ7pta2CDn8SKCKonCkX46Jc/HslrrQfFnW4JoADfl5Rp5mjEhC92IfEEqF8MFZHi6ABcQ6cHYlmNCFheLKIOptcN8sBILN/Sf8QSp1Dr/tfWx3vTv9fbBh9LZDCK4o5Ck7oW8EJA4y1gQEb5+YatA1+4Whk0Dge5Ak3vlew53gFe8mKjNhLWMzJ42eINf8XP7hWKug0ihD4hKIddmEq/wWm6AdeobtdZ+MlgzhjraMjh+xtDBmke29jMd+H7ZW/hpvYEz7m2ZMj0ZIKAjzn5NxcQwFIiSPysPGSbPIlZfK7KD/ysJfc4k2II+dPI3QW6tvzO9Q3tpBix/zU4ZixI4/HS/n7Vvy5WQo68p3CIyuPxK7IQeAUvumWzeV2PMLcstXnbgs6tF3tDn0x8SdWR5N2PLx/qD7ln04ceRexnHyBXEy5Hb6M+BVj41xsykG5DvrkmkXzUOIvcioPlaySk9w9zEPBlC18MTrnpWuz9vZD01ZZWXB0zsM1q6yq2W8eqNkDIzXb8MKl+jSr2Yzzh9db7M88YevK7HW7ePWV+no5PKr85WvTbY3MURu8jYK3zzfh0s6I0wM3nxh7rfOPvtE1eia/8nFYsrXaS/a8/IzctpWdF/191ZHsgk63ObI4rbaAAxvnlf+gfeiGDbzY8CnoSnYInuoHYlvoDr8KBndsi4dDFl4Hzufn06FeOyroCByvaHWK1ElgIeMs4WJ8RwfukYPzU3BwXIAtEqMMOSwpTg2XgluROfbvuq4nlMcP54386lgSlA6fH4s6hclj/4dPN4Z+C7uw4yW8QhxC3UN45CZwQPLbtoxH0zsLUbF2jg+k6BmuKTBJ19K3DLPdfTNDVjAFKxKkiQsX7DfWXLD3rJ+w40PzQ+gp8IABNgAe6JL/enklJ7r3zgpcw1eINQ7GY50KOt0XdLKSQQox3la6eb/txMiCAgd6hJ+t9B/yod3P3ud4XyNfDZexrc9EXD/nTcFCbllJhbjeS36ngs7ijtCBu6G+U+woL3a06yuWwvFZ/CG+EpeJvTdTQUf2JEzUOSG/IL6Qz4GN8jL8X8z14bqJifw3RkGHHFVxDV/iuRDraZXI+sdPj9XXzgFD8jswDfO6GHmoclD2nK9Zh5LYfXRowv79ygm7e8dEfekE+gxs2AK/Kw9V30h5qGQlBymSh16ZnTMWQ65snLIKo26KLIa8smaVZ2t231DNnpiYtIEr+WvmLAXfg4zgcP7KnO16eda2vzRrx6dm7dIM5Z/8l7dP8EanPv96PuINRKYCoX/8IfxUn046Rha2Ii8dG9oY/Q/529OD8QoZjFSSbYFPVo5cRG4dI/nZ+z636gFgwpbVTyxqh/W+4KvTsLacGClt4WRmDXAt+pOtsGm7oANgAglwAAQHESZnjP7o1um3+v+3981Pv8J50WAIB5EhBHKFTkuFCilcBChrr+t4zESkrOCL4lTMibXgVBaOrMYvAwIz3/FCr5I7xMW3I3RQnG/tsXgjHJB798kbCzoKpKF+ZaAy2KJ7/U86EZ85PzzCgMLK7B075jv8FBc/uW3CBkYaXAyLOgqmzTjZCmtkE1dSQWcee/G63RE64A0/wFW+yyeD73p6PJrveudTjUW0m9mafFJoa918Fqc4N20Vr+Ghb+vwyKjFLGARfHxbsSO4C9ZhO+VLesHvVNDpn4KO+Ag3lNym2NFYQwAcwo5YJ7GjG9/Rr/8N/UXYib/ZCjroKcvPK1dQ7kIHDF7hA/8oYmxT/O1k301BR+0mnih2+P4HOVjMG4vER24sKoaooCO7BG/1M5CHrWj+qeP0P/aci3OSmygPJe8jl0SX6kjyFBxh/6OPXLAH9jemgiCnijoc728sZsmMDIrN8Cl8vXzdbO2FGausulSsmMPonLWT9r5jNVtZnbRDl6Yzn2YVXqefP09cNfve6Iz9H7uvWGX9VH378eeu2AOjM3bxmtnMQtjqzZHPyop56PHIQLz+0t3b463ZKL+C3HASLvrckT7q6iPx+vg8za1o0aIZTyS3cFf+q3ZgW7IvbCxr0zH+ONkifga/Sg6NXRGrsTVujB47N2T/dsX4azYp2+x2/6cbiufUHRd0BBjKBhQlZzgdNfKvno3fuBCcD20at5HRxlAzJULq9AM+ikA+lIOscl7egdGW2K88YslhI5cnB0FCxZwj5+OtHh7ixef3rm9U8XH26AtDRR4wEj6SP8RFeuc4jud/SsqRf2SsanSws67byXcMZ/PTVpCX66mjmKVXdNvORlvYpBvxGVwIpBiukqLtZ7M5zeJg9+1tdN5xdiRQ4qNkRt9ebmHtuejxFtbexlJBZyG32inogG+IK3rxuMaeMnrkfOPOCXwQF8QD75OQK8aL86iN4jWcVjvhM7ZK4nfvnnhBGfs+MdTeIutwvxf8VjLezN81w16Ygqf8Hv6B86FXzp+mXOXHEm93HsMUOy7UF5aMHTuacXmp/iafJn+BP/PF6ZuxoCO7EjayLeUw2Bc+SvkL68v87rrsHKaT/KzT/8Qu6Kj/QWwj94p9Y3HjsZHXRopnFXQUx8G/ndzTH8t/2TiXYgztUkea6xJr6ED+Q85af6xhue74jXloWNTBbtQvktx5OSj8qk7P2afPXCs+3YpHlG+frE+1eurCJXv5+owxbcu/GNkycGXOjkzNNt2OTc3aicuzduqVuZbb6VcaI2g4b6tt8MqcjV6Zs7HpuXr7aGPexnE/GJuxysbLVqFYpRFKjFZaO1UvdlH0ynqFdgnuyhvIwXgoTac2FP7v957KXrMRLomXyFPk1Uxu5Tv37Ign+/nh7go6yKtNNiVbkj3hE8GfDbsKN/3GcWzg5jf9XzapvqFsUkWd2I84/29PNaZlY/9cE/tFFtolu5VOOyro8GevcE7MBcIOA4tj/uSj81XkkICxPrPiNNOT6EhjJCpU0HiMBwWgLJSDrGwiuAARGbQXQEX3+p/fh8Ti+uCEPGClYNvLYg6d36OD80O4QoIIF9qR9eJ72sVxtAdc5aAgNjr4+VXxdM6dh6Hh+WkrBGxwE6mRAVkkd54+vV78+ywd0Savn/lkaLw+xLUZb/+fleP2xNH50Tpggn7Vkee8nF8GKbklk8dcWMu+4A364nwkLWnKVaO402lBRxwGV9+xPD8St8hxy+YbR+nQCcFmvE8SD7N44DnR6r3+Lxv13JG/gc8khRRKYwafn3m88QQ4OF+kcNJLfqeCTv+N0Emx48bidMzY0cpPLMXfQ39BLE0FnYYmQ7/vc03v98kbRseq9qYnF7eoE6ugkxfDY99YfMe68aY3Fov0KaSjcK/YH8Zs5aHkfP6mImtqtLpp+pa1E7b3zMIZDOHNbnjiZZds3j8MTc/ZOw5ftcqKguvnPDFpf3h40laNX7LjU9MLnmhFz2LTi7NW2XLZKk9car49eckqT19uFFMoqDTbNl22yvYr9r/svGL/rMX2I7uu2C/tm7bfPjhtb2ux/er+6cZ1efy6ijnaPzppP7H7Sv0JYB4zvQdP6TWrv0ReEmu9p3+3osFRbDyr84+tZOlXsmqvY5Db54/iIeenePEHEQvDneZnklU4C2vklg/EjtTnJmaQe+MT/cZ3bPzOsfyHPprsQ+fTOTmG44WJ+r48wGfz0aFoRTr6mixfQ75O3o79IqP6j7SXtuvVVUFHIMqpKkFTkEXxW0+NtXQ+zTrIRX/7Fw9N1IeAQQyuC8A4Qe/ApCiUIkUhOxvACBxPknbf6zw6r4iAAuSgPRFULEDuvWdGSy+AfW7n/OgcsEEW5AIP4aA2iyR+r99op4w9TKxujbiODvr/0q6xzLsjkhs5JHu7OvT6Co0VfHyx7c83Fy9UkTAx7RBDpMiYVdQRB73MIdYeZ/ibCjo3doLgR7cFHfktjbaIXZQkYB873yhKwgX8EnrEbrI4LBtjX/Tl/wNnsAfZp9onPisgf2dfvMWQ0cOntuXfSUAeyag28blX/O40YfCyIi/twG6FqTjD+dMIndYjdEKdp9ix0J/FiB3i7XLat+LOzTpCRzoGH2EkP0XeiY2FRZ2hkTH75dXjUTseRXN1jotd0An9cewYjsysh6c40k4Ml16a7X3MVnzJ0hvFOG6cFMX6gxvH7exwYwqWbi4q7yefVKcVviCDZBSn2LNuzC/uu1K8oPNMzT51umbrX7hkteuzN4zOYaTO5Zk5++8ssMwULka8tNoYCfPIZOuNx6m3s1GgKrpxfRVx/J7vN162A5NzmdOuhCf4ko9l8fTHIg56ODU4f/O72U015Mp6SV7xUVyknwhv/M3AWEuCvO7h4g/S8DJLVvaSF4zZJDccx47U56YN4IL9vrYxyvqlxhq8+EmOVa1A9qHz6tx8zzHCRTfZKXQxPZN1t4raaKvjGHWHPyu1oAOwIZBqpIIHDoQO7d/ujjc0q1XjP7N1frihRuugOBSJXCg3T1kYnRwbBGl30/+lfEgFJhixlE9HDkJBAOEDCXg0eauqe6u2t/pdxFCnUnggIzKr7ei12Ut65z/SuS80xB7uynSmgaF5R9UqmKI3ZGy1yQnQbulKeoIvvpjT6TSc922YsNPDjRFRnI/zymFk4e6xb4VzGqHT+QidEFv8gucwCWcre2rn999YPX+HD7vHB8j+8A/wz9tgUQ57jstfwWfZphII2obdYPsEh0PnRo1A2k4bWh3LE8K8b8GWxHG1x/uVUAcc73UQk99KxJslOV628L1wlq8QrpwPfaaCTpxRWSl2zNtkN7Ej5O9y+Bz6C3w28VSdjJu9oIOO5aeU26hjA1bKy3UTkWkOb3g8bpxrFSP0e4yCThYfFD/od8S+sfjmNY1RrbpbrhiuONdJDA9jts9D0ZfyUG7CEGM+sLF9fXFD6fO7xq06Pv+kWHBqlod6f0FB5+efb6Ogs7lm/zRUsx0vXbbrszcuGkzPgkegs7Dww9Xr9u3RmdztOyMz9uWB6/apM9fs9tNXc7dbT1+zPzpytT7S5s0Hpy1v+/UD0/U1cBjB02yrbHulMSJnw5RV2Fgzh5FCWQtCU0Da9kp9WlhWr8nbIzkZeYP3W+RiPxdxRsOXd43Wb34rD0PPXI88DG75Pp5kC/fyHcoh4TdcVP4ID9cfj7cgMrN4woIFOCkflnyek/qumf3I54EBtor8+D7yNfAZHr9gX3juBftXj75g/2bFC3bxxcZMCm8byCHskEdb6Fc5N+elHYzSefboYLTcmlH0IT55eXXHI3RaBQ9AEQEQ5m1rileV5fQ73f/6kxP1O+IQD+cL0HSmUSpyQU45MyksS2mQv8gmJbOXQ+Z8Ml6uJecsUuGgweXM0KgxR67TtrbzPx6Rx3V9YQEZswzdG0/4HmOS0YvYtE+dm9jDXWnjrZvHMoe8YrRqA/hLXzL0ZnuO9TrDcaGrkLuMtOlmWCT/vWvnBRu/ML9wt5cbOZBTTkp4C2dkhE9ldnhPD3U3h1Uy+30oP20GWyXgX9sbp9Db7ggdZJRsYA+Hw6C1N+LTB2Sjn9/ZGGkWJoTigvdB4oTnr/ihvf+N49ma8fm1gDM6GnVaJO3jLhP+jGvgB7Aj2aXagtz+JR30gt/EAoJ4Udm8nOIL8tIW+TzaKJ/H+dMIndZ6l849jil2zBdx5Cu07zR2hPxdDp/FHfkL/GYq6CzUrHAiPng7Ay/Zmoo654ZHjRt94luv9t0WdOSTaaP4EMbw2MVhsHn80PxaOmCI/wdTrq14hzyKeT5GZ73nODb+o7iidqiYQ9wivjy4r7t8iRj9/UPzsxeQW7kH15bM8IdNLwo6/7noCB1G22yfUGNPHQAAIABJREFUtG+NTtrByStNnwCl8+ftkYAnS01en7Nak+2la2bjV+dsZLr5xro6rMXDujzNtoOXZm1Pbc52vzxb33ii1S0nr9XXy7lhDR3auuqS3Xnumo1P57ViPtcUT8Hc58Ex+38UaJutOSpuStd5nJSscJE8x/tZzv8/n+mOi97P/N66+SlF4AI+5MLIgHyei6Asfkp22U/Y5+Zc2Cf9XfJS7Ijc++TwuN269cKCPh3FHWyaPjrt9fbhc3NshY3vZKtcR/0aCjrnBwaiDdB4/WPz+CBXM3y6KuiE4KIAOSWRADApIpwdqRrroXhFlvmeTt7Hn60aAYuOBjKosOMVhpwAJIeMU0ZRUqCU12yv4/kvG+finJwbUqEEFXJEKkblPH18rGeYfGJrY6qVOlwKQsguw8kyniw3hUFxrAyJNtNeb/S/+mR8XT90IDuYSn/SGe1hQ768TVzlP5IfTGgDnEVP8IZH88VaZ4SnJXzn8PzoDHji8ZejEubCGVk5juPhk2wq5giGm72gAwfks+SYYwZa+bpNxxt3UPBHCh7olGvLB3ke5/HXfy++K8iIz2oPvge7J5gRjD+6OV4wVruYyqliMe3BJsVtZA25rdiBH+kFv1NBZ/HX0PE6hxPoXVxNsaN5vGw3diiGLKd9GA/DnCON0JnXtrCSf1VeDmbkOb4DcmZozH5qZW+LOjELOvgStY+YR9uId6PV8QWdNsWrTveMaj1wtjH1SvGO6+V1/vBxPlb793lxW/pRHkrsevbkaLQOIiNCtp2/8dHW4Ic86gPAH70Gp+fsrUyRKrKGziM1+/FdNfvh6CU7MXVVp1jye4pav3d42iprpqyy+lJjutjaKXvnkas2MD1n07P5TZQtgm9WHn/Pjri2t+vkcOYSFepvSNeei3qPjPwuObEn9TlUWDw9MBR1dPff7Z4faMC1JKfno0cXPIUpcgtX5RLefvAD2Cl9uX3nqvY/1uevP8XNk+PDF+p9P2zP27VkUm7OPrye+g3k2AMDA9F8D/aqm8DkST63lr0Kn64LOpwoC1wAkHOloYDKs+bLnlYUOmocMKtxM2dYhR2Iqc4USgMkSMCGzACG/NpQXNam39nzH/7Lxnk4J+eGGFxLhRycM0WCvyyhUxW2XZ+p2o5VO18IWWTR3huUjAkMZPjoevXR8ejFOwxu96kbizp0Vrmu9IaeMDYZHs4pa5NBIrd0Jn2pmHN+eNRYcFs4xtq/8ckX6jJ7w8QxhcYpu8rDOBV0Gp2gTkfo5OELp+DAvnPxdc/0wa0nG0UdnDQBh+vJB8n3iMeeu/BAm/9efOc/zfhMoPn73fHm9soeKNSTPNMWBUHkQMYsXns/og4HbQh9SEx+p4JO/xR08uxOheoUO/KLO0Vjh2xsOe1D3uAr8ZtKpFNBZ17bYCW85GPxx8QIcFOnR9gdHxwrff1GxQv2sQo6tNF36sQJfAnxtYwn7bJ4OUsAEFPIdcGQuKc8lDim+N0sD82K25yDc3FOzs019pweNdYI9fjFeP/pnS/WeYC8yEJuoRwUXPUan56zu84VfMrVqwWdh8cu2cCVazrFkt+DBiOFNr44Wx+Rw6icNRdm6iOH5pHKbqbsEJ5ig+CN/SnPfOJo3Btsv7iqMe2H/i55LLaAnwz7SD6H1Ht44PNI+Iic5HacjxzyAxviyrv7dPHZAWDp8VTfSH7N24/6cdQd3r6umP381prGSHP+m2XXsu1mGDFC59CZeFOu3tmLp1x56uaBLOLKQeFgVx6O36Eo4tzoSBHwR0ZH604SWVAaREVxkBY5IT6kYMPotGEMftP37HU8/+UcnItzcm6cMtfCMR8bGLVbNsVb1bxou48PzldAZdgQEiP2HS70WPTljYrzcD7wof0y/p8u4a4P8y25Q8IIJ3DlWjgsrose5LTgnjc+5JMR8j2Bn2PRH5hIZwqiPFnrN58Yjx5E0dnvPJUKOuhuMadcwfNmHMZ+kfG96+NzgMLkY4fmizoKuuIwnPQ8Fnez9uJ5Mz4rEJdVRL5/3/zoHGwJWZCVYOv9S+hbhL+CMm3BhtWxTwWdG6evCU9wY8t76Xd1dNAFfEI38s0f3hyH1zxZg9jGeeEv1+F6YWzxskrvSnAlX4od+YUcxfqiscPjvVzeizfyF+q8y1engs6NmpYfoJPerKiD7RLrjgxU61NnxbUy9zELOmobnVFiCPGTfI64emKonLUp37xmYVGHa+Jjw/iNTPg4v4Vxm7inPBR9KA89cn60NJ18ZV+xgg6P5F53YaYxKsUvCJz1/uGa/cudk/UROudeWT4FHSyLiMtIHAo7bEwHCx/HfqMFNj7Jb+XFO2avxLa1b+wdrRdffFGH+BpyM4uTYb9I/oFizpYTcR+kwYCLdvIH79M8nsQC2kYbiQfYDzeGOpkGf/++al0mzkHbQ7sGH23Yrb8mbRkeHraVB+I96QpfiSzkxVwP3xEWYMW7KCN06mQPKmfq5AM0QgCKiPHN58ejE7ioQbAyN4H/5GBjPQsITzCT8pARQgAeMmtDaeGm3ziW/7Dxf87FOTk3hQcWIP3T9eUElmbtZuTCplMNMiAb8kNETwiMQlV5kaLI3jspn2Cha3XIvn2gHD1zt+Kpo42ijhwW7UMftBEZ2OS8ZHzs+Y6N3xVA+S/BH52hr9ODI6U9AYLO/NnxhmG26vgKY+GL3jy+MTu8N9uUK/ksuI8NCGP5KzgMJ44Oljeq8Kt7GutCEQTkf+R34KY4nMVjcdrzGe5jA57PnJu7iTx2tZmv6PQ37lZigwp8yOP9i3wLXA5fveQ3OKBP+UASmWZFhyxZkdcnEeiA89F2zt9J8pCF+x89PY+plxeOcn3kyMJTMut38Zq2IiucQlb01S8FnSy7wxZS7FhY3GkndogLy2kPr33nHV8Np/F3xO5U0FmobfkCcBN2zXLzA+erxvS+LL8U87sYBR1aK06Eftnz4k9KuCkDFqw9dMjdXCS+hHmo4rPitfb6nhgfxm31G3aeHCltSYY3rL5QzxW4PnYUdhDBVa8rM3N2fGq2sUBw1sLAYWFny6R9e+SSHZtqsrCMTt5ne9pNvKR4ceTwYTtw4ICdOX3aai+/XI+9nYgrG8yKx/JdsdexIlZsPDZ0Q1FH3MzLLeEkfOB3n0fCR/A4dHY4+ig+1rvFdyMb18U+wD8v1/H2rtyBfBPZ67nYiy/atw9eMNad6dRfgd1zr84EQbbQrpGTLctuwWlwcNA+tD7eotE/PLTwYSN5uWu0gg5EF3FbBQ4IEnveYCfK+9nHJ+wz26r23OnG3XKScmRDiSSVbChTG8kwmz6z13H8h/9yDooCxwdG60+uKmMdjqJtvW/v/KLQkA/Se+eNg0FX0ls7zkr/8bqWYeEM1HFgRE1Reds9jg4xw9vAXIbHdXEO6hjTbr8hGxu/cxw65L+cA2NkSlesNXOy2vPNA40hkGEg9bqQHuS8vOPif8gO71JBp5F4djLlKvRXYUIIZ+AH3PjQpvI4/La1469NI8R/yOd4DsNXz2H/XnzmePkmz+eHD5TLZ4YLIzOcJMjhX4oWS3rJb+wbWwc7JQ15QVH25/fyd1k8AXfOnwo6xbAVlil2tNdxbid2eO4ul/ehv0gFnWKa9faG/yKfaFbU4YEAZUzx8flQzIJOFi/Ik4iN+HyKVP7aMd8z8v+ZYyP13NHnoa3id6u4/ejBkWhrcITtJV/aP9Ao6NAnaHUDZmbO7OI1s98+MG2VlTmP7/ZFnY01+7uBSdtTe8VmXWHIs1U6g49lb+rj+OvnvaewdfbMGduxfbtt3LDBNqxfb89u3mz79++v51ecq92Xtz/l8vgun8t/NvI6Oui8UdQZWdBH8twMc0n1i8hpyOvULzp4Jn4xBxnv2H7j6BPfP5XewE8vzxvvw16evGSMOIv1CHgGfhw5N/xaQczn5eCnTTiRu9N/5JHlGyI+4QqMWPqB66Ar7LVZfh21oAPoHnAfOEiiRWCcLAB8cGN5jjZ0Yq0+o8A/21C11UdG68UYlENhhg1SZ236nWOHR0Zt9ZEx+/CmcWMYeqvrlf37X26ev8tL8AD7vM6WNxgZTpG917U3Ljp2Kjr8455ysaCyzfQV6Qte0aGVAWIIfoN7bPzOsXJY206UN4pBumahaK6NPooEUuGrIEDglQ0hfyrodFfQyfJXBHQFWyWEPHae4Cg9lrH/k2eqduTcfGIIN8VhOOM57N+Ly3Ce/+CTsIWnj8V/klXYbu6ucE3kUbBplRx6v9JLfmPnYJUKOos/Qie0uxQ7WvuWdmOHt7Pl8j70F/hpcg2Sa/xfGqGTr2mwE35Fijo7To9FXfg0jB2xCjp5voT+Br5e3Cj7xqpuzBB7iTWK34rhPmbzPi9uU8gpY91Gj/+dOxtTSXzMxgeTZ2Z1osGYR41/bfh640lPvniT9X5dzT56ctK2vnjZrnDDOIOW5FngAE5lbxcmJup+gty51TY0OFgv5qx/5hnz26aNG+3w4cP1Qih21O7L2x5Y+5vfcGH/+fFS8kvy1r/eMWpDw43iBNz0/SOuLT56TnIcuSTTh767b7i0UXsbTs6v7ao+Efjgo8RFj3WII8UNbP38hcno+FHU/ube0ToGqgPAVfDTxmewYmABxZyTZ8/bv43Y/2dKGtfAjxHrdDMSW83CqJSCjgfdd0YRRp19yIOgH9hYDpG9A+v0PdV3phT82uoJYxj8RzZX7ZNbq/VCFI9a++XVjeINQ1Spend6ndj/A1OwBWMVc0SEVo7bG0+r9+hZuvZ6xjC5Lo6CxVLBMXYbw/P9wqoJu2/PmB071xhmKAPE2MJNnV6McOOxEXvzmvJGYEhO+HFosLHmjzqVOPVm+sjCNhV0FnKp0xE68NtzGAeJPhQk1FkgKfvi7vL9FO0gMfzqc6N27HyjuON5jE37TbwWnylK3rmtGv2R5OJwuN91Zn7RPXiZVzDO8yO95DdY4Q9le83ucmTJK56EHOF8+DnOn0boFBuhE9pdih0LfZq3tU5iRxaHl/p3ob9IBZ32NCofRkcJP4bdKd75mxj4Mzosz54sb73Hsgo68iW+Pfh9YpW3qbLe/8G6ceNprOeGFsZvxWvtFbfpNH9n34iVseZk2M5/v3LCJl5dyNl3EOFBVgdRDGOtmJOX5+x1u65Y5ZEWo3RW1ex3D07auguX7KVrM5nrzHDDd9fOnTcUTXwBpR/fM2qHfhT20+5LvivMH5RjYm9vfKK8fgizDr71/KidHRyuFx/gns8tQ05SAHr80LCxwHLIoVifkYl2h8WKZlwMcaQPhU7Iw9667oVSZP3V1eO259RQvbBDn5GirTYVcphm9fe7RqL3dZkuSv8De1GO3Wx6ZPSCDkTPChwIIfDDog6P1I5Fkpv9PBBAxRxIIKcN9iJCM8cdw1EpmGqUzr17e6tfinCM/vrCjjG7/3lGTo3WR7NQ8Ll9S9Xe+VSj08vTeXrFl3/Ys9AwW3Uq5byUpKDDVNBZqLNuCjryVz7Jla+iMKkOOzb1h0/3lseMPnvf+kYRmbvPPzg4Vh958+SRUXtwX9W+tKtqH3u2wederHvgbQWbJtBkBWP4qrsrcDjv1Ut+k7Ckgk5/rKEjPkj/PslNsWOhf+skdgjj5bQXXxQP4YrvEKUROq21DYbCEbsDy7yiDjHvmeNjpdysjF3Q8W1Se9TR0ygdnhbjY1iZ78lJ6AzfunnMvrxrrF6wWXN0tD6anCdN3rK5am9fN24/8/hE6dPb1E5k2na6EQd1oxcbKtovmJ6ZswdGrltl3ZRVskbm6LsVNatsn7Tvjk7a4UvTdi0jB6BouGfPHtvy7LOlbUyVYtpUrOLQ9m3buiroiKPef5HPayT4k8fKzy/hAAMRPr11zO7dM2aMCHvm2Kg9fmjEvrF3zO7ePmpvXVP+iHQ4yewNcsiixQq8mzBUzqCaAnn6c+cvlmbf4PYfHxu3dz9dtb/ZMWorDgzbt58ftru2jdofPz1W2jIdm0411vCBI0VGMJVS0BHwHnyRWAoIizp/24M74HJsy3X/nmfaK+agn25fnEN69jr2nWGqsL/fw2Dab/p99zONSjRBDMcjw1Qgzev8ZuGaCjoLOzw422467J7DChQU29S5VMAdHq3WE7B+41ev5WE6Jzadx2cwFKeb+Zde8rsbfvh45vmhDgM4cP40Qqf4CB2PKVxJsWOhX8OuO40dzexuqf4W+otU0OlMk2G8w/Z8EUSdTPwaRZ0njsYv6sQs6MiX4Efwz/Il8INcS/F7YLQafVHXXsfebq739X2NpQg6vQlDb+HU5Tl777GrVlnRZJTOwzWrrKvZZ89M2lOM0rk+Y+GYFvimPiAd+lI2t64gN3OKbKdOnbJtW7cuKAIx5ergwYP14hf208lL/isrh1DRMfbiyN3wpcz//sjDF2xkbH66PrkUtQF40Sx/bIXhW0oapVMmFnnnZv1Z/C/coN8IRq0GAZRW0JGT9QqQo80r6vD427zGpe+zEz7hoiej4LRwjq1G5nTqlLIcWZaOw87w+ZGxmzKYcgdmZGzhXZEswwx1Ily93aSCzkI76LagE/qqMMFV4sHdhGODvZlCKLvutz3TEwky+BkSZfiIrRfhc+g7esnvVNDpn6dceR6IA2FHTJ1KeJZiR/e25jFfqu/FFcXDVNDpXJNgKTy97eHH6TjI/lTUWXF4LGpuXkZBx7fHF6h8/N5xpvdPm+2HGP6hTY2bvejT3+3XTcVmnWjPsiuzZltfmrXKjles0uyJV6tq9mO7a/ZQddKOTE3bdAfTlPx1e/Uen3Li+PF6UYcFkRndQzFnz3PP1W9iUTTs9OX56X2YbI1Yx4iMfuBL2TLQ188bndOMix7D0MYpfOw4u3zwu3NHowCbNYIJjMCCzb9KLehwIV00rJ77og4OBkfDXd/HjpQ3b7dski7W+Zmypk5Wr4s5oY6bdYZ3nr65gilrB1EAkONSkU2dX7DCLmQj3jCFK7/L+WMzOH90zDnTosiN4k6Mgo7H2ye4YK7RZgQMcN9yqrxHmS+WDylyXaYyDow0ipPezxTl82LyOxV0+regg/+TnwuTNPm6FDvmF0QEo1axI7S15fDZ84SOaCrodKdV5R1hbh4Wdehokl9+/0C8ok7sgg5IqD3N4jd9DJ7+WiTeLZdjGDlajXQTBpxfvGa24eKsVZ6+bJVHc0bqUOx5qmafO1ezNRNTdvHq9dwnXnXH4rj/hkOvXL5s586erRdxdu/aZYcPHbIXL16s+9xuriZ+yt7CWKdROn+6YXxZ8xM+Zo3wLhLXwFD4qV9EHFC/CF/1JxuWflGHp3UNdTCCqfSCDgYQElmKUFFHFUoVdfafG7ObZehZN0GDjuy3DzQv5mAkvuKJLsp4ZRla2BnGiL/+/PJ2VtInull/ovFIZw2ZC6datdKLMPX2IseVCjrzI3ViFnSEObrBdtRxUFFHPurB/TcHj8VnipNHM4qT2Hi7d/nkf4R1L/idCjr9WdBRfhAmaSl2dBc7ZGPLaR/6i1TQ6V67YCpcw0KIRupQVFVR5/59cYohZRR08nwJPNHUK+I3xan/75ml3+lTbG62Z53IM8MLb8LgX9WB9nloUUa9fM3sGyMzjade5Y3UWVmzyo5J++ZIzXa+/IpNXu98dEtRuVodB9eV26n9xJ5evbJsLeQnUwNjPX67GTcW4zdy9b1nF85YKJpDen/l80afn4Nfr9eUjI3lyiON+I/vpc8HR4pg1JOCDsbiFZEXOBipo7vgTFN53zKvVHZDAjpYjBRQpRPsNAJEnaxeFXOy9Bt2hv0orHf1eHHZbnDu9L8/ONh4PKAv5sgoi+pFzt87rrIKOgr66EmFp1DOdoNeKD/tl/wxi3sq6JCsFZ1rmteW0E+BAXcsJbvn8Wd33BxJIY++xNdQRPR8lp+Bnz4pBMMir5AfnE/8iF2wpKDTDT/ECyWDuosN3zgv518Ka+igPzo0H94cpyD571Y0HtsZA1sVdVLs6D52FLG/pXZM6C/wyeQ8cJp4EnNR5Fu3NG6UcW6uodgtXyd/sNQwzJJXbZH9+XyDog7t90Wdr+zpvqhTZkFHPPG+2sdvilPc/eYpO53md0vhf/QR6Dz7uI0+u43bcIinXk1en7Ovs0gyI3VYN0eLImvPd4/V7K0HJ+17Y5N2fGraZoqlBlk07fo7+I2f2Lxpk91377317al162xwYKDr0TdFhQttTfllWDzddXZ5zlT54aH5QoX6qxrhXTSHbGbfGtG7+mic/GYx7Pzt6+af/qX+DDYLV/DN8Fg8CnnXs4IOF5YQYeBQh0lVNoKo7gg8uP/mmqZThEA/+/jEa1N5SKTpZNIRiuWsQ5IU/RzqV87KB1PkJZjyKPgibV1qx1BcWHG4kZB73YBBp44LIwbLsMO79lj3iZXwDQs6WbIW5YGOk+NVgige4HT7taCD7JIbPyXs5aOwM1/UYS4wOheOy23PwmzPnbkxKcRPo0vuGMDLooFYvNBeOAvjMvlddkGHIknsgg5xUAEd/oETWMvPCsdwr9851tueOr8xCzo8BrdbbJFfMis3SLFjPq53EjtCTiyHz95f4HsUT1TQ4akpsfwvBR1i1M1Q0MmyP/kNfHJWUYcnLHaDdVkFHbVFfsTHlrAd+86NL9uREIzMOXA+/k2Y0I9Up+fsW4zU2XQ5e00dijpPTtoHjtdsZXXKzr5yLfMx5uF5y/jMo6a/953v2N133WWfvP32+nbnHXfY1+67z1gMmXjZi5ePdVl2hs+hCPfo4e5srBv7LOO/n9h2Y6FCN46LjDzxesnDz9cP8N3/Y328eFAGHlnnfB3LdAzNP9mK/oZybbjic22Pid73tKDDRb0ylHD65A2l6I4AHWIUc+B81X79yeVZAMhSat53dBw/t7Nx5wiDV8IvpRN8s4wDzHv14lphMKUzogo0nWGKdczp/dNlMNfR6wr9PHG0eTEHowQftlZ68ViqoIN9gCH6j13Qwd58BzLsrLfLIcmvoKUEXFX0WNPvwJ1Oaiz5kVuyZ/mosKjD1DpW7fdcWA7vf3PNhJ0byS7mZBX8wKydl8e4bH53yw9xQnyQT9MInbIKOsRCdegV0CVLHtb6HR/jbU8FHWJqrBE6FHSysJWsRfyc2uH5wP+VF6TYMX3D3bl2MBW2y2EvfnhO44sVT3pV0BH+yLOcXt5vyM+RT2YVdSjifnZ752vqlF3QEVdatePkUNW4Qboc4rXawE2YwwMLiznqGIZ5XTc8xgLGp+dsxfhMY6HklZMLR+u8up7O/zxas1XjUzY+PWMzObaDLMQp1q3Zu2dPfR0bFiQuvO3ZU//v0SNHzG9Hjhyxxx97zO656y679aMfvWG74zOfscdWrqzH2W6wKOoLuAYbfiTkZ1iU+NoyWaLifRvm183RAATlNe3yMcSP//sCv264jlbj3WSTbZW5px+jx5QT07ADcp92cu2eF3QgfagQJW8+eKjTpGolSeN3D9y8T5j52cfHbc+ZsXqBi4IICqczgQOQYSx2MSdPt16vkBTZNQLrr7u801OmgbVzbqalPHXixilwKrTJIMNODnbQ7OWdPk6LxEoFHfBbdzxeBfrsyPxjqEMnInttJmvWb5JfCTjy+wQ8dkFHBU7JL7w7kV//8UEXHaBL7E3+SUXnQ+fH7KdWLp/E8PZgofXQ14AF+IJPpx0c8YOkpmx+Ez+64Yf4oARMBR1fJIk1Qof1HfJGBxTBWrJyrGxPnAWDMgo6nNcnIJ3YnpdbOKfYMV/MAZMi+s/yxcvhO/kLcTqMJ7ELOtw0IVdRHFd+tZx10I4NUtQhTrSTJ+lYCjrd+LhWfG7WDnIon4fy+OR3rOusHWpPv+yZRnZ8KLuYozy0DD9yaWbODkzO2X/ed8UqT1xauFgyRZ11NfvzEzVbc+GyTVy9btcy8l9si9z229/6lt115532mU9/2j7zqU8V3u749KfrRZvP33OPff5zn3tt+9zdd9unP/lJu+3WW28o5lDc+cRtt9VH6VAIAJtevEJ++txSRR3llg8s8fUaWeQZW6c9WcUc5ZHCpAj+OlY5jvDTzR/1Mc+Pji+ZvJxpYsQcn6cS4xR3vN3mYbQoBR2E8QpBKQiLUpTAkYCK2ChH5OYRpu+/idbWoWr3N7uq9bugUjZGoeQZhctRK4le7ITD6xa9+gQMg0N2VVExdOZV0s5+CYrtyvH6xyYWzFVWEtiNbsDR2wa6lk1gDzELOudG54eXxyiIyMaz5Ef3BO1v7ItTAIE7eckh/BMf85xg3vf6n9ogHqNTdZApdOCAsU1802+tidOmdjkY63iwxB4pgKAjfC/2Cu9os+czuLAJpzwc877vJb+75Yfa6P2ZOABGnD9mQQc+cV75EQX1InhLVo4VZ72snPvDz8bhKSN0usXW88PL7rHG96XY0bmteYyX6nv5C3Fa8VDx5Ct743AaX/rxrTc+MpZrtWODSxVj5C5ig/gm4gNFnU5G+5Vd0Mlqh+9fEM98UYd4xzS7WHF0Mc7ze+smjAVh0Ys6ha3idkyesq4OT8C669w1qzwzZZVHgidgUdRZU7P3HavZ2guX7cL0TOaTr8gxTp44YX/9+c/XizCf+sQnLMZ2+2232cc/9rG+KOiIn8qh8GkqSihW49fQI/GVnIybxovBq26ueeuWhSNz1L+gvbSbOK+8ph0+Kh7k5QnyUTxpuN8XSebhRuRl3m59zPEY0e6816IVdERoKQWFSjGe2Chfd8NpLM4Kgu84UzUWD+qGbP38XzpWVDapttNeda7oQIIHuEjhWYbRTOl5ZIj5PdeXbqVXFeu8TlWo23x6YklOW/nwpnEbqy40xrDzW9QgvQ48frIJsFMR4akT8fh/fqzReQ87kMgtXXrZirwP5VcCjvzo/Zv74wQobKVVB7iIvFnHqO15/kkFNgUPEkM6A/3sW/Jk4+4ei/Hhb9APCYUvHGO/8jVKRIRPFnZStzs0AAAbqUlEQVStvgv5QSJXFr9j8EPyqkOpxEu6j1nQwd+DP/YoP891iyY+oayyPXV+YxZ0YmDruSJOeZtLsePmLubAD3GamIQfEqcVT/7p+TjxBP+ID5cN4uO5lvd9yLKcX61sUMUQbJ+izvvaXK+iFwUdcSbkjfclaofy0KU4xYX855vPL3zabatiThkc1mLJu1+etf+6/4pVHg+mYFHUeaxmv7KvZg+PTVl1+pqFloTfJxdgzZvBwcEo28DAgK1ds8buufvuBQUdRgEx5QobLwOTPD+RZWPK85VbKNfHzlh65OdWLY3ckgW5s5af8P3WsJjTLvZZ+GXZNn6cdWn68cnZFOm+d7Bx88AXc3z/sZ2+46IWdLzDRTk+gYPYUg6NwznhfElIcb4QnM4T05B+/6mlQfK8jlT4PYs5HRlodKwgI4pW58o7afDxRqFkv13DyHM43X7fyuDorHiHdXJ4fMk82Yw1Ux4/urDY5vWjBLAdg/SYhzZBkJOjpxP59Ml4CexAdX44JIFN3OqGU15+BSocOnYMp+8/8EKUwgcJjQoQ4J8lv8e13fdZPFZ7vG9CJ0oMWZDwvy0Rv8QCiiSyrGslf4NdZhWOxeVueCH8PT/wY2XyOwY/JC+yon94Bt/UofylJ+LY47s2NPjMecVnrifskaPVS7LyH8nqi2V/uSWOrIzQiYFt2B7k920Ac+UDtCPFjhCx5f/Z80H+18eTr+6LE0/Ix27bNn+3lGvgm9q1waWukdAGab9sUH6POK6izjufKr6Ia68KOuhAvFH/wrdDvsT3K3acGV8ya3b+9MoJY3HnIjdhfPwAkzJfl2fm7NQrc/a90RmrbHvlxsIOCyWvqlll2yW7b2jKRjLW1EE+5MXvx9rA6JGHH65PydJIHaZoPXD//TY8PFy/XpmYZJ07tDHlFsqFvJ2Rm5GjfXJbf/d337J2wnjICn5Bfdcwl6SdMfgY4udtG+xUsAU7pla+s49ycgpMWQuX+2IOOOG3lG9ncch/t+gFHQnjFSPHS2MIIJCb5FnOl0RXnScVdvafq9p7nlm6T5yhUkchhyqspjvIGCAl5KT96qxC3CyjAMd+enm9ykFLp+oMe33idMGA4aNhoasfPlM8+NgWFottVFXVmUFH0o+Svyz9tKMbYedxUyeSBOSZU/ES2KGJxppMaoP4JUfSCa/4T2jLKkgh/wMHL0bRMTrBVqQD4e8DRju4Zx0rXfj2+OAh30S7kIUAgh1vPTVmv/JEf3KZuyh//1zVRscawRcu41flbxRYsFfP5W444bEVpr3gdwx+eD6je3iG3sEL3GIWdKQHzt8Jn7Nkle1x7r/aGsd3UNDpVlbPCf9e/PA2l2KHR+jmeu85rdxQnMbv3rs/Tjwhz7h9+40jVjuxweWgndAGfczznU3y8LEqo+bHC8X0z26fn9KG/0SPijOx4ovw922QL/HtUOwmD/WxmzUR+3VEBFNI/mnPjTdhsIGw40w7lQfFxlX45u0ZrcPaOozW+eCJa40nYT12af7x5o/VrLJp0j5ycsoOTF41ikBl9l7AAf3u3LmzPiJn5YoV9UeYjwwP14u1ee0o+3vPT+VCyi+wC1+YIEejj7ThZP89oY08/J/2zo8UA2tsCk7SDnyobFycVNu7wVjnyLNt5WfC7gu7F79O8KFNE/WZHf4GKnoWTujf59xqYyuc+qagg6ASGsVIOTRKzhdC0GDvgEkmURTAQPSBkWp9+OEvry4WWBa7SMAwfYZLDo7eOCKHdskYaC8d+dAgYhpFK6J087vXa5bDon0YXdgZZlrdm/qkM4yz+vPNE8ZTEeAZfMvSEQ6rU2MMMQ5xk5MXXhvOvFgoeSrC8eEL8+t1xEpevfxKwFWYRd8PHoojP7pRMiOHGDrDENtOPvv2wGM2+SbaxbXD4KuC85PHqn0z5JPRZZ/fWbXhwOdk+Zs8LoNFt68QzzL5HYMfyOvjErYunYNdrILOeza+UPf9CvBZSVAr7LNkVTEYWWMVdF7/WMP2upG1WVtCjigf8LlAih3NEFw+v3kuZMWT+w7EiSfEy0/saDzxEV5jN53Y4HJB3uMexjzwwZ/QeSPWcXPgTU+2zr19QUcdPmGMj9U1Y2Go84V9C64pX0Jb5EvoUyh2P3x43JiOXCSPKvsYbsJ8aXfVeIIP8iGn8lD54LCfoDYLg1iYtnMe1tbZ9tKs/eaBaausnbKKnobFFKwnJ+13Dl2yp1+4ai9cnct9AlY712t2LDhI7/C5H17Sjc8vlA8pZ8ZO1EdC94zWuX/fuLGGZ9m8a3Z+OHnH9nE7NzrPSeTEljwn83LJGPiDn3ge+ijVC5BJdn10cHFG61AgfvLY/Ig6bDcmTn1V0EGxInaoICVyGKI6T1IUAUVEp6MtR3x8sFp/zPfP9NljCRkm+Ymt43bo1dE4yKtKHe2gPaq0q4NKu0ODgMDCK4ZRlHkOyRk6LOkTXSo58IZH8YQ7JUxfWYxHQxPIeZKDX8uI5AUZQ0OkLb6QEEM/sgOclJJYdSJ3DtWiOfLqi7XXRhiF7UCGTl6hzhWgJP+KEy9Fkf91D194zV7C5FsydCJ/1n90Ph885JtIpHzwxY5x2AoijNh59HDV3v3MhBEEmwXJ2L9R9Pr1Jyfsb5+jeDw/VTCLy8Iw9DdqexYunX7HOb1PgHviRyx+03b5U7VNdtpOm3Qs8nqdKw799ro4o14+8OzF1+SFU9JDO/7Ey6oERx0XsLhjV5zO78+tuhHbTmRtxZ2wLcI+xY5WyC2v30MehPHku0fixBN8718/92LdBpV/cS3sqB0bXE7oZ2HvfbUv6nCj4I0tbsRR0CHnJY/CH4Gz8o6yMFYb2HMN5VTiUavYzY3XX1s9sSgP8PiFVRP2D3vG69NGwkKOj20+XoR8pd2L+eLqk9fnbNOLs/Yze6etsupSY+FkpmBR2NkyafcOX7ah6Rm7PlvuaJ3FxCHv2uJnyM2sOBfmldwwhJux88Zm5+OprkzV1xqivrhYlJN5WLT7vcdO+GHXHjtkUk6O76FvyWPCf/XJ8nNx/OHaY/ODAZR3x8ap7wo6UqQUxF4K8g5YiiIQKKFWdV1kl9LoSDFy57EjVbtl87j9bI8LPBCfBY5/cHDMzo00plRplIeMQAUCKViJBO2EmOqAgAWbx0eY9fteMqsN0idtVGdDupThQXyvxy2nxuvFsDJ1yDQC5qk+f64xfDAsuKmQg6wkAWUGUfEfzNSREVb+jpJwQla4BefZWLCQTZ/5TQmBnIra49sSJgOdckvyZ+laBTxvr15+yd5KftmMOutlJ9/icdg2BRCvHx9EsHXP5a2nx+pcLqvgTDHygxurxuMQuXPaTPfNuOz9Tac8yPufMCyT37H4Ib0jK3yWvpt1BLJsMY/P2AF+L5TX+37JkIenvtdxkpVzKGaGPjbkpfcbebLKd4SylmV7vj1hm2RvYbvkE6WDmy12iAvLaQ8P8vSf5Wvz4knIa/yycrFYNriccKct3gbl/2R7iuXYHJhz0+DnmyzgeueO1uvecb0yXmE7lFf5PJT2hHwSl0bGqvX1E3nabpkjd+gEMiX69PB8HiqOqr+AnPQVfO6TFS/KwrJd/aDRq7NmL16ds2cvztob901b5ckpq6io88SkvXHflG1+8apdmpktdQpWu7L34njPzTw/F8Y5OCFuPnemap/dMVGf5h/7qVjcGKPfRR+aJ+ySJ3DdPE7iG7L6r2pjbDx1XnDLww57UZ3A5wfcsL9zx0RUe/7JRyfqy8BQNCIHCWNMUdttB6e+LeioEVlKUudQCbWCCkT3jhinl9dZZIrT+hNVu3dv1T767Hj9iVmMnOFuf7OqZN5vkB3nzmOLP7Rp3P5xz3i9Ind2eL6AA/m9UpFPyQNyI7861aEh0GZIKjzYL8WX5A+NLkuXCqjghPHhOHyHmOLYtw6M14tlv/NU47HBFM8Y/YA+8nTF9/zOiB8c1LufGbcv7mo4KR49LUcV6kqFj2Z6iq0jj5d4n5d4iO/CCrzCjd+wCc893x70ECYE3fCsTPnRh+9Q4gdiy9+s7b5tPoCIy9gyyVbok6QfBWH4xiJyX39+vO47GI1GMkdhsRmX4TC/43eYuokNvG9Dw/cwpJTzqogDl6V7fM5icDkLS49hbH6XwQ/kle/yHQEVddA11/W2KH1n2aJ0wvGhThQDQt+fhWPWdyG2npeKlVwTPuATkCVPVmQPZc2zPeHD9WO+fHuy7M3nASl2xES+f87lOeD9hfe14rS3wdD29FmcVzFVNhh2kju1wf5BLo4k4C/7BhN8iuwO34cvAVPiDY/QznuyzF07b3y0NvpT7Ob80nMcqReeRef3bQn9eRi75SPhjo/dhwfG7cvPjdt714/bm9dM2BseHzc6c//iodYjJhTDid8f2DhuX91TtS2nxoyiUavYLY5m5T29wHAhqsW/ITKwvs75V+bs6Qsz9q6jV63y9OXG4sk8GWv9JfvYqct2YPK6Xb7JCjvipmxNfs7H7zxuYnfiJkVruPS5neP25rUX6lOzeABGq0IPnGSNJvpS5KG3bRk3RgAx8i6rb+TzycXmZDPssJOsPE3+CtxoH2u4MpUNe8SWW9UE1JckD+fJ2/T98QkeK+VOYKW8CayQiTzP97m6sd2+L+jgIkIl0WBIHhJdCgMoJaw+sfMOWcQX+QGfDSNgcTcKMfvPjdUfj07hhyca/fBQ1VYeqdanAHF3nYWYqZ5z9zu848N52bhOmAxLqSrieCNQEi8F00YFHeFQ3G3255FqB3u1LUuXXo8+ScM4wLSZDtEHxZm9Z6u2//y4cXeWPR1n9JulryK6wiHICJWAlK0j4SXeww0VdXwiC9fZhBU8Czd+45iQeyHvuJau2y2LsvTs5fe22o/yN2u/MFIbxeOs5FDtlH7ocBTlMsVLHinOEy3Ynx1pcDjksU8CQ7/jdd/M58gm1bZm7Y/xm66zFPidJWuYaEnPRbjsdcL/0Euef9G1i2Ku4z2ukpVreP8qWcXN0G/wOUtW/E+ZviNsq9rEXjyVzeW1TW1qx96WS+wI8Vvqn6V/r3uvd5+wF+V0Fq9j2eBSxztLfm97inPyJyrqkGsTf86PvVDvGIY31+7eNf9UTfwe/0ePyqW4RtkvcUntkR/xbVJ+hYziE74wqy9B7GXzfQniM32EXWfG67GbJ2jRYSSelxW7fbvKxrDb86Plq7NzNjI9Z2suzNj7j19rPBVrzZRV1l6y/3PXlH15YNoOXbpur8zM2WwPeNFtm2L83+tQ8Vv8xE6wlyxuhkVs9ZGyeMl6oMop4SWjVJr1jTiXChNcBzvAJrD5Vvmkb08MfFqdQ9cTdrJp9Tt87oP/D3FT/93jRk6A7W493ehT0rfUAABsXvbv+/34Cc6tGFM0x0P+Tl5LoqCjhklJ7H1A90QPg7tXnHfIgOyVqI6VCgWQV5uU6/f6TXv+pw6UJz3XaJYM+8QB2SEe7WFTG327hcVy2KtdaqfaHRqfd1w4D/QIps10mKXHUFdZ+iqqK+lJsqst7GO/dG5dy/NdDgqMPE44jqwNe/DO1/PPt0nXjNEWnauV/JItS259p2NoK7L3Qv4iGOS1sRWXfWczzx/lcZnvteFz5HcURPqRy1lY5mEX+vJ+4beX19tiKK+4Ku5m7XWM+OyLIzHsMZTVy+t9h+TIklHf6Rgvq5eXc2PjumaWrmN9p2t4n9KsbbThZowdsfDup/Nk6T7Pz8JZ8Tdvn8XrrFxM1+0nLBZDFuEg2xP2xGKwxM7USSImnRl7wf7NihvXF7tnd+MJOOoM8l8w9z6kV20L2yM/onbJT4pL8iM+dhNzVeShzYrLyjmz9jqG/VKN3bF1VLs+Z4cvzdqXBl4t7Dw9ZZUNl+y/7p+yR6tX7eTlGatdny194eTY7er0fEW46fOiPG7CL89LOFeEk+JlO/1Yn7f0Kh/IwjcPuzBP87lBaNMhbiFmrWxYBS+ugf/I6694nJC709eSKuiokVIUewUV9lmOWM4Y0ofEF/l9oYdOkC8WqGjQbK//+A6UFMk1pEwUmpcM5xmB2qq2L7e92ud1iR6lS298GEOeDjFEGaPXR6g3/1uWvpT0hbpCDjbpCfliGWERnQon8T3ESDiJ72CVt3EMWy/blCU/WLJJDsmVJ7e+13HSx2LpJNSb2lgWl+Gr+JzFY/if5Xfk+8BPehf24nEvuRzixmdht1T4nSWvMPW2CN7ibdZeXC6ilyzciny3lGQt0h4do3axz+ONx/9mjR3CazntpXuvd29/3gaz7M5/1wsbXE7Y05YQf7AHc3DFzsijiEWKWaerL9mPPTo/BYmCDr9zHMejA86heMT5e/lSe9jncUq+RPE0LPDQnqw8VDHb73381n/4P5v6DOo3cD1w5fphziNZvfy9xK2sa6H9qetztuHijH3wxFWrbL5slXWX7Been7KV1WkbuzprV+ojdmzZr7PjdSt9Yyfe33luipfwp1kfV7YpXnpO8t7zkvOIl636RpLRy10WT1qd18uAXGG/KQs3tTXPnkOc2sVKfk6+DrkkZ6v2tPp9SRZ01CiBoL2I5JWmQJMV4L1j9kYgQ5BiW+05Xhvn0abzyxnLIYdOOUuxapPautz3ai/7ZnoEQxmhkgfhHeowS4/Sk/b6r9eV9IWeQl1JNi9vr3Tjryk5xHX2cvCe82qDb4eO8//V+fw1YrfLn1vXkwySSXsvt97rN+31X/Y6n79GbPmLns/LILkkq2SnTZ7L4p/4mMVlz2fxV3v/P51LPA79jmSRbF7eom0s4zgvh2STrOyFHXtxwu/977z3/9X5/DW6bYPOpXOz1zVDWbyceh8eo//68+kaS0lWZO7lSxixF3bCUhiDube3my129FIfvbpWEb17/cvu/F6/ay/eiEf+Gr1q11K5jrARVmAoOyMGKV6pY3Si+rL9q0cbI3U+99xLrxVzsEX+x/85l867GDjo2uzVLnFCHFEblYcq3ioGKyZrn9V/0G/a6786F5gofouvXF+ySDYv72LgVeY1iSIsoMxaO+NX52z3y7P2V6eu2ev3XrHfPnjZvjJ0xQavzNj0TfJELK9r6V98kO2Jm+KP+CR+iW/ae27qO+31H/acR+dcKvmk56awawc3tV94tNrreGG+GPa7pAs6WQoLFYcCPek98UX+MNETcaWYZnsdq73O5UnPdRQMJIuIxV4ya+/bdbO9FwbaCyfhJhwV5FrpUHrJ22fpS9fQNdlLDsnFfjFe/vq8l1x+7+XOeu+P1Xt/3jLb5a+TJX+WvOF3kln78Jxlyt/OuUO5JK/aI571ksuSgb2Xr512lXmsl4n3Xl69F355ex2nfXjOmPKH59Y1tc+T0X+vY7UPzxlL3vC8up72Xqa89zpW+/CcsWTt5DyhLJJRbVkMe+PaksPL10n70n8WIuAx5b2w1l66b7XX8dqH51145fQNCAgncANjbEw5GTkXnRx1hOg8HqtO1h9G8YW9tdc6ieRg/E+2onMuJsKSgb04oTaqnWqr2qtcMi/XbPa9/ste+YD8lbjr5fDyLSZOvbo26fb0rFl1es5OXp61g5MztvvlGVt34bpVp2dumilY3ubK5mYzTspeZbNws9856eXztiT7kr3J/tT+Znbrf9PxeTbsr+lliWlDy6ag40HxYPHeA8l7KZC9lKi9lNnJXufQ3l+H916OUEYvf3rfQCDEyOPnsRXe2hfVnY7X3p/TXyuUox/0E8qU9dm3gfdZx/jvetkuf9289/0sfztYhe0L2+V5Jy5qX4TLOlZ7fz7e++uFsrTTjl4eG8qZ9dm3i/dZx/jvypTfXyfrfSjrYsqbJV/4XShv+Hv4uUxsOzl3KJ9vj7cP2Yz2ReyNY3S89v6c/lqhHJ20Jf2nNQIhzlmfvV54n3VM+F3rK6cjhJnwxRawC+yEzg2dHn9T9NQLr9hYbX4aEcf6OMX5+uWltmmvNrL3Ni8/4PfJl5Snxdl6gWfOXrpGoYfFksu7Vr+eWZzUvig3i/DS81j2Kb776+ja2vcrVl4uyaq9b4/ayD7EoBlu4bE6jz+3rqe9lynW+2VZ0PHgCDy/9yD791JCt3t/Tr3319d7L2d6n4+A8PJ74er3nejN/1/v/XX0Pl+6/vlFshbd94/kDUmKyq3j+k3+IvJIdr8X7/z+ZudyFpYesyLvs87Ry++KyKhjeilX1rUkR5F91v/79bus9ng70/tkb/2qwc7lytJ9s+86v1L6p3D19kQnR50gf/da7/nNdxb5r87Tj4hKNr9Xe/0++ZJ+1N7ylslzUu89J/W+XW7qf36v82u/lJFVG7T37dT7opjpeL/XebUvG6tlX9AJARSweXuvjHbf551T34eypM+dISA8m+1b6a7Zf/VbZ9KlfyUEiiMgrjXbN+Nys//pt+LSpCMTAssbAdlEs30ze+O3Zv/Vb8sbxdS6hMBCBMR99tiJOkL+7rWKOPpOx3i7Wnjm/vzGtzfrfSs/4tuc9X9915+tT1L1KwLiTbN9M242+59+69e2dyOX2pa3z8Ms73h9341M7f73pivo5AEk8GPs866Rvi8XgU51V65U6ewJgfYR6ITL7V8l/SMhkBAAgU7sjf+kV0IgITCPgLcjdYBUtMna6xj/v/mzLc13vi3tvF+arU1SLxUE2uGijl0qbStLTuFQdF+WHEXPmwo6RZFKxyUEEgIJgYRAQiAhkBBICCQEEgK5CPgOkIo2WXt/HO/TKyGQEEgIJAQ6QyAVdDrDLf0rIZAQSAgkBBICCYGEQEIgIZAQCBAIizXNPgd/TR8TAgmBhEBCoE0EUkGnTcDS4QmBhEBCICGQEEgIJAQSAgmBhEBrBPKKOa3/mY5ICCQEEgIJgSIIpIJOEZTSMQmBhEBCICGQEEgIJAQSAgmBhEBCICGQEEgIJAT6CIFU0OkjZSRREgIJgYRAQiAhkBBICCQEEgIJgYRAQiAhkBBICBRBIBV0iqCUjkkIJAQSAgmBhEBCICGQEEgIJAQSAgmBhEBCICHQRwikgk4fKSOJkhBICCQEEgIJgYRAQiAhkBBICCQEEgIJgYRAQqAIAqmgUwSldExCICGQEEgIJAQSAgmBhEBCICGQEEgIJAQSAgmBPkIgFXT6SBlJlIRAQiAhkBBICCQEEgIJgYRAQiAhkBBICCQEEgJFEEgFnSIopWMSAgmBhEBCICGQEEgIJAQSAgmBhEBCICGQEEgI9BECqaDTR8pIoiQEEgIJgYRAQiAhkBBICCQEEgIJgYRAQiAhkBAogkAq6BRBKR2TEEgIJAQSAgmBhEBCICGQEEgIJAQSAgmBhEBCoI8QSAWdPlJGEiUhkBBICCQEEgIJgYRAQiAhkBBICCQEEgIJgYRAEQRSQacISumYhEBCICGQEEgIJAQSAgmBhEBCICGQEEgIJAQSAn2EQCro9JEykigJgYRAQiAhkBBICCQEEgIJgYRAQiAhkBBICCQEiiDw/wOI0ATwhyxq9AAAAABJRU5ErkJggg==;" parent="5-3XioVFCl6JB0ejhThV-1" vertex="1">
          <mxGeometry x="390" y="162" width="680" height="103.79" as="geometry" />
        </mxCell>
        <mxCell id="5-3XioVFCl6JB0ejhThV-6" value="" style="shape=image;verticalLabelPosition=bottom;labelBackgroundColor=#ffffff;verticalAlign=top;aspect=fixed;imageAspect=0;image=https://webimages.mongodb.com/_com_assets/cms/kuyjf3vea2hg34taa-horizontal_default_slate_blue.svg?auto=format%252Ccompress;" parent="5-3XioVFCl6JB0ejhThV-1" vertex="1">
          <mxGeometry x="700" y="-197.5" width="416" height="105" as="geometry" />
        </mxCell>
        <mxCell id="5-3XioVFCl6JB0ejhThV-30" style="edgeStyle=orthogonalEdgeStyle;rounded=0;orthogonalLoop=1;jettySize=auto;html=1;entryX=0;entryY=0.5;entryDx=0;entryDy=0;strokeWidth=10;" parent="5-3XioVFCl6JB0ejhThV-1" source="5-3XioVFCl6JB0ejhThV-13" target="5-3XioVFCl6JB0ejhThV-15" edge="1">
          <mxGeometry relative="1" as="geometry" />
        </mxCell>
        <mxCell id="5-3XioVFCl6JB0ejhThV-13" value="" style="shape=image;verticalLabelPosition=bottom;labelBackgroundColor=#ffffff;verticalAlign=top;aspect=fixed;imageAspect=0;image=https://www.smilecdr.com/hs-fs/hubfs/SmileCDR_August2020/Images/hapi-fhir-logo-large-flame.png?width=500&amp;height=701&amp;name=hapi-fhir-logo-large-flame.png;" parent="5-3XioVFCl6JB0ejhThV-1" vertex="1">
          <mxGeometry x="700" y="-24" width="118" height="118" as="geometry" />
        </mxCell>
        <mxCell id="5-3XioVFCl6JB0ejhThV-37" style="edgeStyle=orthogonalEdgeStyle;rounded=0;orthogonalLoop=1;jettySize=auto;html=1;fontSize=45;strokeWidth=10;" parent="5-3XioVFCl6JB0ejhThV-1" source="5-3XioVFCl6JB0ejhThV-14" target="5-3XioVFCl6JB0ejhThV-16" edge="1">
          <mxGeometry relative="1" as="geometry" />
        </mxCell>
        <mxCell id="5-3XioVFCl6JB0ejhThV-14" value="" style="shape=image;verticalLabelPosition=bottom;labelBackgroundColor=#ffffff;verticalAlign=top;aspect=fixed;imageAspect=0;image=data:image/png,iVBORw0KGgoAAAANSUhEUgAAAOcAAADaCAMAAABqzqVhAAABvFBMVEX///9Db72gAAAAAAD/AABDb7xEccBBbLhssPc+Z6+1AACkAABqrfdhn/hSh+T8AABlpfdyuvdLfNFus/c1WZjzAACoAACbAABZAAB0vfcxU446YaXrAACuAAC+AACDAACOAABId8p6xvd8AADGAABcl/fgAABrAABzAACVAAArSX4iO2fRAABXj/HLAABnqPc3AADZAABeAABIAAAgAAB9zPd/z/cdM1oPHTUYK0wPAABCAABjovgnAAAoRHUZAAANGS/R0dEGDh04AABGAAAsAADCwsIDCBIIEiPh4eGIiIizs7OioqLw8PBsbGxQUFCC2ff/09P/o6P/fX00NDQaGhpdXV1+fn7/4OD/srJERET/RUX/U1PZ6v3s9P7/7+/A5Pul2/n/wMAqKir/g4MAACH/NzfgWlroqqr/bW3ShITkxsbKnJyegID/Hx/M5Pyo1vqQvPmqyvq/0vbV4fdjkN6Fns+/yNkJPH5UYXoABjgyO01Zeram4/n/ZGTb9P1udoecqsasv+blu7uYT0+CVlYFRJEAG0aYn61PZpLvh4fCOzu7WFivcHCVcXFTPT09U3sAGT6YKipjIyPSb8fzAAAWkUlEQVR4nO2di1sbR5LAAVkSevASWAJhgUC8xMMCCSzAIGMw5m0bG7DBRmDH9sW7WT+TS24vibLZ3SSbu7277P7D11XdPTOSukcSPWIOHbXfl3ybz5bmp3p0dXV1TV3dpVzKpVzKpVxKZXL45vWVlqvXpv7lc7ufpIry5M0VEMI5ND7Q8zu7H6daQimvXLlK9Dk+4A36fm/3E1VDdlsYJqhz6nqPNxiKfmH3Q1kvh1c45jWCScw24otHYzUH+tCozPHrAz3eSEO8NzZcY6Bcm5ySYBKz7R0ZSdaUj+5yZaLF9ni9BNMHnMPJpN3PZqVwz4TlBCAjBLMBOTtTf7D74ayTZwxzCv2SIAZ9Pl8oTjiTnamVHbsfzyo51DAJpa+BCeO8M1kzCmUhaIhgapScM3VzcsXu57NIXjLM8R5vQ0MR58rq/G27n9ASOeFWO2DUJhGNc9vuR7REHiEnweyJ5GFivE2mJhfn79n9iJaI2Go5553J6fnP7H5EK+ShZrXBAs4G5Fy9Ne+w+xmtkLdarC3EDMV7RzpvLtYG565cnUSfw4RzviY4H0nV2eCLxoY7V6bnHbXAyYOtN1LEGQLOydrg3KWbsXGR2QJnavKWw7Fn91Oqy0u52TaEemPJ1CpRZw2sn295FCo22wYSbpMkDDkcm3Y/pbI80XIEX7E6yfJJwpDD4diy+zGV5ZCbbUTEydzTsWH3YyrLGxOzJZzUPWsg3LJo2yOItg2YDcGqcmT3UyqL5p4RASdmCWC2Fz8MHdIa33WvzD3RbC/+NvtRiVXlznRtuOdreTKESTxG2xrIEkxWz7gWbe/a/ZTKsovuOXW9sGBC1QnR1lETZnsod089Cl38aIthCN2zmDPKc9saSIYgDLWgewpKCTEWhS5+koBhqEW8J4uTLdkdVOfFz+GxQI2HKgKzxYpJbUShuhcsDBVzwkF2zUQhrNxeFVb64tqiUgtngo9k2VBIU2cN5EJ1dU9l4VbPES5+Cl9Hw+21IUEYwkUF1FkDhT4ebgsOd7UcYbo2Uts6uskWZX0hbaeyb/cjWiIveLgt5IRTT8wRauN89yHdlBWFW02dtZAj1OGyIgq3cV6Fr4kcoQ6bhqAxqiAM+UCdWP76P5IjZLPHx++4HGezFX/AW2G41XOEx1V46Aoke3z6vr+/q62tvb29sbHRD5JIJFpbE/4PHz8dl/9BNAwVluL1HMG2jScSdhFpa0NKDRM4CejCQlPT4GDi45dl6fYEe1CnCnZlegZ/UG0coeRAiQjJNIl0rYSO4GnSBKATExOJT6U/cZdyFoRbO9WZPX0/wyDbQIl+0B0iiYWATjR/+LLEp76gbagFy6emzvvngqbL8XNg7EdGosQEIWQoBCZfJgxC/u9X5kp9SJeV/CawuC0ZfPaUQwJjopVZJTAFQPr6Ann/DgSM2IG+r8x0+lKwfGKwxQz+/MpC2dMbMzMMEhg5InL11bvqnfX15J/sH06Xq5785z4DLflz9f8q//w3Ak7dO88rgyeaBEpwSH/rAjDqhATQiZSFguQMlnJ6uqUqfYrN8HnhVj/ZPZ8MPscgu9obQZGUkRI6RXwF4nIxvQLnT19LvuQt5/QZvTNJ1XkOVT6015l8yD6XS6xBM1QiLnd3xzcSUL58GsKtVrStvjpzz28we/VTSKIVV31FjJwUhHCOikFP+PIZyVfn4jmok6iSUlJItFZX5Yg6ar3b0xHOjIkS8mLOkKbO6m7IiCpvoCobExzyDHrMF7enO5xJ/5vg24rTIexCrfr++vQBpWSqRE2aUZJ1xelGMftTlPOPglXiBU8TDJx8Q1ZFyhtAqavSHNLt9ng83d0d3R1Euru7PW7Zn3SCg6Z/+/fibzzkyye32+qXS7LfMUqmSrKCSLUIiISwIxwOj1IJhztMSJFzVpDF/co5fbrZVtU7OWW7f4GpUuKVLqebIo6OZsbGxtLp9NzcXDo9NjZKSGWgTg9yFpdAHuHyqadDVS6X5FPiGiJRDDASJRJEwjc7u7S0vr68vL6+NDuXzox2eGRuSjmLdx/f86pJsNA7q1Au0SjRLQMumSrBzTqAERCX1pfX1hyarK3PpjPhbrdT/BMB55Jg4cfb5noxHr2zWuWS7x4UUMo0CYocGyOMBNFhkP29vb3PHI7fxginS/z33YRzXeBzBekQ9mZWR52nOiVxS0mAdRIHA8g00aPOuH//8fbdDf5EG7+MhT2Q6IlA3R2ZuWUhJxapWRzSvdPqE7KcRkmSO2nsAVUi5LrGeLR5t6iksfOtC/J2Ue7kCWdm14o5eTrUE6xquST7gGBqlLKl0oM+aYDc27wtNqtsM6TCfaLPCI/NCg6+nuSlfXoXjbXlEuqY7X6wWAmlCwyWqHJ2iUMebJm4DmxRmwPFH+XqRvcsssZdXh0K5m/IrCyX5IgyZ/rb6EoiDj5IaVTlvRIb/PZE66CIE9xzTZDiHOalfdqBp5Xlku8As6u9FSmlqx5QclXeN9Mklbb2hJCTmm2x1z00curqtK5cQpUJjimldKHFapSbZYSGXH+Xv0nESVaVZVEqp1XB8vbX1l0MBGX2dzUuDDbLdl1kb2ygvF/eL/x8pss/2NwnUGdmVpjK8XQownIEa5uimGcmwGTFBlvvJIm3RnmvzCifI45A7LbYPmgUEiwWTw29CZYfeJ6iZ6IyTUw2k56tjJKsUjf625smis2WRSHBYkEweSuYnvJZtCFDm23zE880M9n07HJllHV15HPBbKXqFCwW/LAsSGvwFu6vSWrwgAQgCP+SRJYoUzPZ+xXkJd9J1OliwVagzhO9auKLWrohy1GblSuTeCYoEyn3K4nvgNm2MFH86zGrFaVyxuoQv11lSQafwzjrJwFI5plu4plz63QlqeSTETMxIQi2zGpFmbl2WEbM1soet1N0TbBZscnCCsCVeVRJKp3FDyaxtih9dHVTqxV6HUsTIAxZmcEjZnur6EdnNksWujT1zIqCHnpDm3BJAedck6U4LzXOkIUZPMVckGPCbz+3XLEydTMp8k0Sg6hzissDPE0INkR5DV49g8engQgkLf6QODtbuTLpQgVmUozJtteyxJylCWSTzat86ikfxwxIq+sdzDX3K/pNWQRfEGxgUZvLJjH0LR9oErKsDz7HtSlTZj1WqsBDKgrspzSCC83Ew0O3zAt4ax8xW4tyBMSEVbwkZkWFthwWJCBTFmQd3VybMvt4wjgjDb3D1tTgsw9kuScTN8es6JvoHraxFWoIBZ9MXJNkVWumoeUFu1fmi8csyhFYpJVqk5UdK9vh8oJEkyiCe7i3m0RQfrjSELeoxw2TlVZpEoQ5y1KFUT3Hamitgm0PZlX0E/dNVih6uHI94utNWpIjkFhBV3GZOjvClWJCPZRVCgXJFW5e6UJsZom012QgEmKLimKPG/nl6f5XZrQ8NSvbaBllG1QKA0XLiWHzam6Ir3FZ6QlGWRRSzBFgX9g4OFHsQ8zISGqGAaPctYtV8FmlsIASjuhH02wnUOKHa8Fw29MQS+Kionit4bsSK4qH7ZvKi7TZ59opqaBSmFc7K7UQn9ALOt7QCI1CajlCDlJsUVLGFcBCbVmxjh5447G+oOrrppSs3lLysZ/QZSUSTVpxYxecU1iEYxpgzllGaRibbUCV7Ql6Spq/ZnJKVm8pvRTS5XPAF6PFabUcgVqtqKbKhFltqcdikFrzQiDfD/DUMKNR7pUTUnD3SdxzJLWonCPkZNWMAnWaRwwdEgy20GJdCDmaSfM66H55nvYSw603OryiPjcA8jITq+XeafIlvCtVaw5rzjsLppBElWl+CFMmJdt9jkd6O1eVL2DnSqS1GGzXpY10OiNCah0a+eYKkNxgHXvlR80WnMXjG0lNlxcfTATLGSb5HupzVmS1OdolzhhRk7RvysCI5pp3/nu/kqUew1BPKLmifFeOLANkzyk/wWUZ2g+Gv5I9focXNrgAo6Fhk23SobeGt2To57/lHDXpgme8U97ezkXlRYUundIgVI8NTOHRP/3440ci/fSqRluX8T5DgrUXBzikE/WIisyDPKhUI7vonsEYLp5Ki8ppiSBEHYyIq3liwd9IuJCTXr3hzf4Tmk/yLrAwtkjltWQclT4aLRJYVq5dDw3j4qm0qNyga4oJZr3T4/G4XYGJwYWE33itaKGJIUL/m4t5Iza60Rap2SW9JeP+9pme8iW6ZxTNVmlRKUOdAOB09TVPDDaxCzb0PsoEaxKHBcTNDBW0yFuk9A6pe2fQJJVnhHPKG7tzS3WnUoY6QaCNvTnvygnq0AUNp1yHQEgb3YwtUve3VZ4POuPHg2i2SjuVXFnqZKSsY592OUGo8XTogEBY2OimxgiC7hlHs1XaqTzHWompOonCCBL8A3tpwQV5synlQ8DCVr7P7m1bcAgCy8pQT2/qluKiksXzP5MEHrq8EAplFBtpMxm91xSbMQmgsZVv7962pEWqYnkB7hkZmVQdKHk6g+d00rXTRVIE7KAdo2SAhnS01zSfjyjxYHPL0ma0h+CeDclF1dQW2mZMqghko5IZQywkI2jry8tFdI7CZkXr5BFxz4EomK3SEVlupt80CkGxfAm4isAY3tHB4+0tq4xUIE/BPWOQ2yqltmSjYVYt0U548mxz7/7B401CVwX1FUkLcc/g8KpqakvM1iQKuWmD1sHm5vb29tbdu7c3NnbO9177CbhnqPOWYhTKzYiP0ZlzshYQqx76DLIL7tl7c14xtSVmC+cpEnU6qTrtHOtzSNzTO7KqWoSfMc2F3B3Y3WznHJiXxD19ndOKD8HMVtpvGh5bstdsSRZ/9Xo0pTos/Xl/l9kxYPcoBFtbB4cQ9ySriupD3DBdPFmHlp0jDk+Ie0aGFxWjULa/DLO19TUfu8Q9YVVRi0LvTM2WpHxw3GnrgJRDsieDVUUtFBL3bJRXbcmqAu5p69StlyTpg1VF7VOga6Cke9o61+fZ1aFgclo1FMKButw96epp77A4kvTFyV5FLRQed0F/lnxVwaTP1hmHJ5D0raj+1qdd6J4yTprc2jpFbZckfWSvotjl9r4L3LMEp61h6OE13Ksohoj+LtyryMIQ5bR1ZuWjoZ7em8quQ7uXZJxO6p+2Dnx+eh222Ko/dVdbY6kj7DV7Oce9valp1fEl2TbouZNyuj22cz7xxodvKu8jjimnLAy5aV+Unf755/hIalX5l37XjrcTpZVbelZvZ7z94i9//euB8gL+rr0xYbKsQMvo3FINTCF9395oEm55T8LFn/n8Hpp8zDjh+sb6xZ+e+77Rv2DG6ezuyBCFXvg3Jrz3+00u46CDEoW+qmJ56MsK5oieXUpyumHq0exslb4++/Grn85lb/spkTDndFKFVmXM2GnXYCD8QzU+uUgYp0nXkAfbo+Ys/+bc8/62heawaEBWFeRda6uwO99guDiv6+dfLP1aaOrsb2ttDs+dUwH8uCRnPe2W/dm6kMsG/hHMjrnzqiRmFxaazPK+eq0tOGNNvNDac9ubAPPcUmfCKR1ZYgQdHf2b+pcZepBbBwMd6bXzK4AnmprksxE0UGyd/ZuaRpm5skbrib4OOG4UZs67Dx89ff369dPvf/38idJXGuQDtJEKxwDpwpu95BNbS8rx85kZY6N1wBPGmxPFP93hM/ry+qtXr14bmhof/9Ua1E+DyGk+LdLJWqM8P57lK/LG/2I3eR+/u1vUPoKvOmec14YI5/UB73/8Xh2z7nhicMJ8AeWkOC+yr4yx4Pmfr3eTN/rZ9DS3dj+wIP140aJjXrtG1Dk1PjDQ4w3+54k6KPZblnBQnPLqohNqAz+WPcffwNjeyO4F9CEl618pOAF7Y1QmaBPU2eONBBtC6ir1T8jmdOWLi3UwNjc3t34siZrNa5n3JxboZFwXHRRCb5QVXFw5ec0xOSShHKCc8egXqpyfKGcpw6X6REzoSG36IHlfQTYLPfNd0DTPJ6vTawHwHW7DOJRCmz3RLRb9EhmJeL0RXygejf1dFZRxlp5bS4dIU87BwcGmpsSHj5/evTumQvCMdwKgfZ5OVmfd5HjZSqcs3OmdtHBMDD4IyCQInL0jqqB+2i1cErOethlTUMBcWGhtTSQS0D7e2Kh3zLMXOfCWeT7i2I37AXZv7nHRevKWmyyhRCUGI0yCwNnbGxtWNN0vKWdpwzWotFkjpZwUtBGuBOClgFa9ZR4/mU3WYpQHxbny9wxzaAojT8SHEqTSAHY7MtypGIy+4k9TJmmAe+kg1yrRK76fgr1/g76uAYfH45xRpMzwaUxHgpT2kGOO07ijCeKGQlHgTCbVOD8F2BOVJU7WOq69nqHofRT8DQD8A1GXnHJPuN80Yha8sotwNqB/DidT/6UGGuiD//WVx6lpFVjz3s7AX+IAjfP4YgP8o2xGI6WU3Jt7qWGKXi/cEKKcnZ2TapvDT5gAlKtQTa315K/Q+wBUAq4+NumVx25Xfd59VtntQLqktOgzQotAKWfqpqJCvwUFSabRmrEWDLYoeAGACy9q6ZTSqj5NaiVvF+acMeBcVNsyHZPU1VkxprkUUJqdu7/VXhYtxoRXRgPnnZVFxROQP3k8kKarzrg3ULK7yeXc2n1SwmqpQkGfk4v/rcZZ9y0MOreKlLplJj3H7pWVuM/60OTd33mcN1cX5xWrNzswvR6VqgzpZhON+TXIo1KVyzfSl9EaDRc5p5XrSRs/hRmpkkqdnvzL9I6D0g/22mxNKeRULph//U2Yk56ZkqtSGxD7uJwF74rwbXoizsVbFjQCf/0NfSOBRzrAvhxIw0Tj/TLvera0sLevleJcWZy3ot67kclkGKn8NRNmkDgxQJtoXPaBAsGEQYsFb9MrCEQ42Hd63pIj553/GRvLEKV2IGq5SnVpY/HTc9rt5LIMlglW9sA9zTjx9V23rOGsq/vh5zSghjvK9FT2ooqCiQFHlQULLAYRTjN9xnFE6i3LOp6/Tv88R1HD+JoUYsBSvWov48ibGLBf2cQAIlgNgteqmHDii4YXVe9FGuWXP/6G7w5BVMbqrqeaZQmsux7fGsNumqeNEwNKDVMXybOhIdhel+AcprNDrTuI3fnh1atZiprBCIy03fQOr+Ei7yi/Tb985rEIVB5NQZ02f38tCEP07XpWnjttbL5aezVLWRF2lF3kpVd6R/Wr5oaJAWfRJJXPoYRpzhnX5otbfMq/deRYW19aAlhCmx4zCLupvGR8GcdjlVPpJ9ehiAmcUsPVxsVb/7LEje0j8rnL6+uIqwu7qazfBD1QvmneA5VaLxT2ZGbLo1B1OtN27j7eoyxrujgMYs1t+rrPaTma6FMMyhZPh/Vmq8vO7e17R/uOQtk72LTuovIJQEak+vRhbovjz6rdgLezcfvu1tY2XOjdumv9VeXfBYkugTIkcU5mtRe+Lw0ibYhLYaiFigmOy7L7/djq8ud4KM4lFNdJ6YFDJ51NWAtvr/97lEk8SmFB4tFoL5w33FnFGGTvtQuL5B+9mnDeaC9QJlMr1DdroNuZyE4sNgISi8UQNtYL/2E42XkTdp0gtl4ptk52/jFcKMnOVGpykdpsrWAS+UsymezUJZW6c5NQUmXWhtEy+UOKwAEekZXJ1dXFaU5ZEyFIl9v/REJAXJzWIS/+ulkkW/9cXFxFxnmNsoLX9FwguX1vOi+RPtsgvAshG1ub9w6IPN6+W7uQl3Ipl3Ipl3Ipl3Ipl3Ipl/L/Xf4X48XyhQakf5QAAAAASUVORK5CYII=;" parent="5-3XioVFCl6JB0ejhThV-1" vertex="1">
          <mxGeometry x="390.0000000000002" y="320" width="111.28" height="105.01" as="geometry" />
        </mxCell>
        <mxCell id="5-3XioVFCl6JB0ejhThV-15" value="" style="shape=image;verticalLabelPosition=bottom;labelBackgroundColor=#ffffff;verticalAlign=top;aspect=fixed;imageAspect=0;image=data:image/png,iVBORw0KGgoAAAANSUhEUgAAAN0AAADkCAMAAAArb9FNAAAAulBMVEX///8zZ5EAAAAtZI8nYY0fXYsmYI0TWYgrY44dXIoRWIj5+fn29vb2+Prz8/PX19fKyso7OzttbW3CwsLo6Oi3xdNfX1+urq6Xl5eoqKi+vr7w8PDm5ubg5ux/f3/T09OMjIxERERliKeVq8AxMTGjtsjM1uDX3+d9mbOwwM9DcZhJSUmJiYmpqalWVlZPeZ2MpLsTExN1dXVrjKohISHDz9p6lrEoKChdXV1Yf6FSUlIATIERERE1NTV/bQhJAAAZyElEQVR4nNVdaUPiPBAGe9Eigij3IYqA4AEquOq7+///1kubmRxt0iZBV/b55EFLJpk7k0mpdHSoDhud7kOzfX27/X1ycvJ7e3vffpn0+leDnx7ZYahePY7vT3Jw/vJY/+lBqjCoX/R73clk0u32Ov2Lq+EZ98/LzvhXHmEM992rLx/aWb3fGzc/z2+3zzGznN+3x5PeRV2PW84a3eatbKTb+5duf3jWf9EjjKLZ/zLCqo3uk/qLbpvdi8u8xxsPmotiSGDjC0ird891vut+ciFdxkbzOygDdM9kX6mN4eTZ4MueXzriIp51rQb9633c7VzUh5dn1f1LqoNhvdHvPbRlrP0ytKatf20+sufxRRWnxnzZti+9Rg6XD/uTjEpt29HX2ZrTRvDU2TPpQELbdXv80O31et3uw7h9/Vv852e3caozrno3NelNczvYz7Dk+8NeRV4ip59eDvfsMmn+kRN4/SD+fjvu1KuZL7lsPI4TqX4eG6mI086n8PauGW2XIgPcdxtq+R1cPb7kK55mP1f66z0LCz3o8az1bDI5gjJoXmQnXTLER4WUtS/Mh66HBm+mXnSfOuP4+tzEal5mjfLE0jesDhbz1nI5i7Fs7RajmuxTgt7SY4Ar9sC7OcsMe9zcGMpDgtFudrcuh1HoeZ7v+r7r+p4XBlFlfTebZ2gcPpl9W4d++tPSYT3tvBNmkXJ0tbaH8tna23+R7zplCRzXD6PyXSv18BVzhJ4Kh8ZELisvtdGeW2bTzWYznc6Wu7mcXRISOvfP6blZtDavq7IXRUEQBX55dXM3242yj55tIldGHMD1ovVMZHc25G2BHEyoLkkRtpve+EEQejGr7OH7/p5dAm/9Nm1JhpjGYrreP+tWuEVxHNfdv2J1l3n+7C2SLh590o8+WvwDAyYMuexGp0FQJovpKvIU7FLxvSBYb/JIHE2dwFeN13G9oLyZp574CPPI2z/leRt+ndjy5ZgGKnOcd1ObrdRj44bov84WsnfOPyI//+k9u4Xhm0hgy8tjz+SZ6I6jj6lCpZLHj/xiHlFtU0gaouIH/lsrZbcX60DvcTd0pvyztbeg8JFowwT/9LyAvDP49y370zQomsIUhV7Ay3ytQIJSow3eeP7ehZWiJ3xvyT7fVqvDGCCbW/qHeaWQp7LwPrjxmc3NfjVeOfpqH17hE+GaPUBdW1liAiWT8semkDdkA1zTF95F5o9XojvOzGyK3+BEywwFJ9mgaJjSqbV18cxJvmxFZ35tsfDlmD9nbFA7DakNX7PkZUIp4MtHHFzZkKsIPBS6kVMoNcp3rJjyHVWKyXPLlDuRvPMUcX3y53dKnIE6YIhQr490Na0MTrSh46qtimfZCak5QdlLhQypJV1ZDc6bwuMD7wDi9vBXTFmsNZgoor4Lak5BcfbI3zrw64cVWzqoUSxXnn8VG2/pQ0OAmW5Bu5ddOrR0UxuFsv8KnPC1tcxxL2PceWNC3ilQN2HEdQQnbWGhyvfwUNm92WnL9Otu2OqZMGcdyGPx1y9B09gJHTUGLRs7KYG7oqZPS/ZQtYwJdTSYvRKWbmbJl/D2wRcRtzftZbQvVZ0JD0EwqoSaZ6TuhXfBqnbEVZCRPr5A6ACOj5J8psHsTrkqLB76JeS3Hvllaic1qFJaBaGZERh5Iw1d4ILXMhRYsy/YOksH6g1W/ks0CoXjI3O2NMiLwMnZ8mqkybsprcOsweZrqduzG6qWTfHAKrB4D7zWJD9D1Le2Upj43jM7Y5L3ZuqXa1jRkBB0QSi64jRmVZu/JQiAJ+6snJxcuKiuahrhHtHbAy4iII71PXnFzM4HgwmufZk14OCh17IrnHl/xqvJh/jHe17D2DEmZgA2X790e0Q7IO+t6PUoIMTZbDNCrw6RmwgszVdaA/71aBeKPog81KRuc533qXdWGhPNwdJO3xaCOnnzoskPyOeIPf9dQg/6/BDWwujRzkHVgI+iV8SbEflYl64YMQ7jQ8bnkodH36FTCNCJrRXwfkCsY49S98S0Z6lkJXbuHXl4+i06hcApaTF/NOCp22uDZy4+GFmpBWRMq2FrgvJmPncFhLoO9S3JD5cHKJWQfO/i+xizzHzIee63AHWPhKiz0iWvMq1sOcY+38mYXNLmI2/xAoEzT0WDYOVIoYPwbRqTIASPITcvAlqF6kzicV6TJ29sBhgQW/t1MbkCPizeTY43DW4Fpa7DnBbL6YdvtQydDL5nWizfYO8ekLoub+5svhR9u28ID1KIaoWSB4aDeGLPSN0D+atN6OnOvt8eEODi7ZR2C1VPG/3MBy5CqNqIDsZUXx63Sr4KFk+Z6kY+IsWOn+hwkoxRzWaEwC92ptIMqJ1nKh5zweYTsXvBbN/jAWoPrN0XJ1SkqJTyVwHIh4zmBAWwY81dyAx5evrL4EE6/VXxZR6JcyHl10tRZ7F2KOrfrjFjOB/51gfS0Q1C3cXhawfT+S0ZFQLH9cIwCqIgCML/RrnfBq4KuJlDpM5e7kLi3S4ELV1J6qziyit5iZI+3NC7mbbmo0GtVjsbLeajfJNH/svymS+8zrSgDqaL8UpcGvU2281He8xbm3Vgr24cz51KC5gUWhN1wCf1nccH2rtI+Do3dO52YunfYFa2NBZeWSh24yG3Py7oAEJcXNA4QeUZw3wYmNCJ/bC4Nk061cvQhj+jmexdBAupuwIqE4qmYv9L8DPNB+FAcPfhVIIP5VTXdLYXUy928yoj51LqAkFlxpqyd1iMgDmVcvQqlxCAzt63QJyTWwcv50xIEkDsGu/f9fn4TmUlc6gDVv8oqkE13LQM+ffVFrtWUv49XwxyqENr2GQBeYOPzc3Tma5COM72A2rtFmxrvmrEFsGOPjjfrOIScD8u5/XQ4EmpQ8fiGSME6rWQYSyNtbcnkbXF7MZPatL3Ru+DDjM/3SOCblOXWuXQrcSl7TA5IFpSZ8UTdoCScqMqtevxCIyVprcriVhs3IAz4U64wt1TA080QL68CRw/WG9ms+kNmRwwr9JlgGjlgikVNA6k8sg8myxSV5uV0XhXvCDYL6C7txMwVP2MIApQ6cN3whmYz1EyZbBRILPmaJy6TKlgcR+UBBg7miFXz8yXGXuvu8HedWrdxTwF/9fePUN2j2uemGtAlAL/swgM7u55TfLCuNTCJHDU8WXGqEqTP6O0a0s1sNg+jOPek4wNV1XG5chGhDjYbSXWAfaA3kxNQohWbufz0xlwCr3lgbDoO+mU/RxWh5wUCaF5la0CzAlslMNu6wW/kMbJaKTuVRy5xxfg0+JszXfSgNjh9g+WyRdg7kEyT5gxArGD4mgwCZYbCcAO6QSxw8qjS7UQh1u4M0yA7Jisj/cRz9/oNeS/ThaIIv9f86slKk3jCA8UQEbZ+qwAce8AeTD/eoIHHgLs1Tmhuy5HIDHA8TI3EzRAVRA73EIHPjU158B0Z5lZ8d6QOI8OSu7ZZ+CTd7JokwlZqDZ34GReCGKHShOONeXusMhGAlmo7Jq77mwxWkzdmBuBoTQzihnqOJBRSgxCBWYzVQIHShMK/ky3qZDbpX5fGIQQ1MKn9N6JnJmlDuMtiUFAG/lbFDtUoaQIznSvA01oviXBUenFIK4yzYbfJnkIrA7oSHbA7pRXoaa+GI3v8gFpVr2UrtqoYUSSlV80jF3eyUyw5X0xw51zLFVZ5X8sk1vKA44061oA+0kMAsgqlrRzoW/zALWCpqzAhZPmBZUAA5J1LcBJkLwGih0g+uHPkhyiVlCiCjxkzOnqKU3Y/c5aNZik7D/Qe+ik7EGJqhWymobeCssa5X4MVaueOQUDUs3MRaCKzNFD++SjVQJQKw0VT+cBZaSAOiqeWnyPc5FhCFjUrPgCY0Kub1viseWXU5+yGJrU5UUu6k9nYlSgLuOq4APAmBOBOuKtwGF0syBIk7q8qFMCULGZQt9IQR0GIZ8pR4UnuSR/NBe61IEXqLmHiYFo+u+qnBGEdsCYvwXisCKHyKKm1gZo6kz8ft0oQVFXp9AqaJZ6MsbEIAgMvBF1FU3q8jJ1EoDFS3tOCosQwlKfyxgT+fVFj8kEaFpzzC3r2htFPStwbLoUEepDhzKNWULvDP5stL+v6Weq7bDitfJaZIwmRW2DvnU3a8oTQLpd5SLkDQPeXLTeodKHUnyeJMdTtbS+1IvGFBUh4iTT1ArsOck+ZF2EHOTFd8JoDanDcE2sz5JyCnphsETXaeKwOAfqqUzOJKhj88OowyGLegWlXFANOBHtTPCDIPH6H/KLiSOtjkmk1OlzfSTb/+d3etkQBP4TjvMChENqJoKn0GJZ6sy0CmNCseQNKOEVH0o+GDtZc6oz3pGuGlAXqlNwApTevRJYrygYBdwC4l6Diwz9xaS9Nbe84BlYPKXXbvk5BtSPwiPZyUR3oqEwdgmI4P0ivyhr6LJQhtEpRJqf44BHEISvI+LL6Rq0+6BTelLqQPBIBGvgaoKYF/r+jubneEpAF/Js6GUTueRDkHI4kfetA8GDA5TaFo8mGIs6H0EoYVJ2QPf9uHcju9IBYuwzUeuUGMTijQ0HoeuI4eeMjvehc8wtXsY1AhcT/RRVxy1SOQapI+0YD12VosWWu1AFoAfT2J8qqQwGJnYhQk33VaFo8DGeds4WRl2Y6woz2kAHuHjsDHs6SYVmYysIlgTk/4/p2SqgjrB94cZYYFU8TReP2jx00EDOkVEbaj8FQDbToaRKV7eBUBc5Yjgo0z2YENTmDmcPXwSKAfIsuCOZ04Wxy5Ov6zHlbUbxH1Ol8ApA1SZyIq4moQ51FTYdyel7W+edMV2boBkiwHF08/pPL3W0SVw7dMLAko/VxAmHtLULg1BnFSw1bAFZnFmAJ5EVBbnDAB6bheV2HBf6kOgmr+AL8lkOhd/iqBCaEpBsQWfi0kFNXzuPOHTGLvm3FQHnMn/cmBqwObKAp2NIewy6tVdmM3tZYMkJTgU/VFMB+BpLjVNglLBB4LqTLg8+Jwm4dNAK+DOXOLQJZg0fYFlyzTS6w5rlKikgEUmtEXf6AZcRl67o0gR6WrRwvNmR534G3m93ygtzKclXcKUh6KaA1EmSRSKGgjuj1/EMHb8cO02L4CwL9/G0cuyPsbIeLPfBpSvu9r3ldY/uhgb5dE5flgA2sW1P/dKqrJXDndP0YOnaBf4zw4R3VzRZE2NjZbYCVZtJ5XDqK2gkxOQAW7Ohm6JxVUldZE0tVIoGj+bgkCNsMD4vYvt68CfYsaNlYXkgH4XqB02XN8CztvLRY1Ru2VIoAa21Bcac+VjzfqW/dNxJ5mQ8eqyESkMxfNxoPORIM20sBPplTfvHwvUMxT3MuamA5pOaasCDTI28cyOY+8PO5wVCN+lRhDYQ3CtJo1opBNbUNOi0dlnGm+hqGCQRJeCLWfdOWXgnDDfddl2JMc+ausUdkIkt1ZzsYqOxOrBfKL94tQh9T2xTq3sJw5WgNTVz0vTkxyhzEg0l5tDuJKyX8V4CsBMotu9+0CSOP5hX0s+LY4KgNEr3q8UA5uA2CbT16F6CkU3xZgtt4lBrkrXW3i6hBfqDVCPmCPyUw1txYQqltIGDTtQaPJa0URfCIN0p5xjnhufBohPUBqCKZYD15HCphbgvcnp5mXdJDPE1YbtEW1xcdiqi5TH1iGkRq74tKXhTcaC9lCEfNLpNIPipp8ofCWeE9D1fl/UT544DgTa16h+RQSQYPdwWea8Or/rdzKWAY/kKwlOQX9KPWnxGXnxjRHJ3CnLTF/WIC3nN/35SALmFf+IVUVF3Mg7Bhn/LaHm39iNgpq9gzLJoFi6KiFP4nsLhPP1epv6N7GVkiv47vGdAAo/xRzFxiuQt+RfUP+i69pxayWDUmu9mGteTFMAJ1jOUJvXlc9zNbO+ywUAMC3pFj6sqK9mbxBWcFl/FkYfwhjv11pBczXeO97TRf8pygJCpANdUK6RmvXMb9+q0Yk2nn7wK3B0WZJSd8ScxALf3zUlHvBQQkoAT2Sgg3gUNpWMUaN/j2Bk4l1T7AN6sladoDgohWG0RDYFydQcoCuqIYUa/3VFEXK+W/magbLIgh7ChlcKz8L/CxaPzihaWMEx7LCmvsCOuwilkndv4MKyV/g+cHBhc0eLR3v3V9G2OVAQX1A7bZcYoc9SWr9GbBn2dHOrQmsBvBS0raWySvrIUd7EHqyCiCs/0gF8MerZ3FniVsuvPxA4uDPSCvHYedRNh8XJ74XqYBSilXT0MKpNLSiq0/6VFMITO+BQW3o9uZgthBWuj3ext9R9yEah9RQoXo97i+aaduDMGFvdkqiTp4GBliYVVAMbknHHHD4Pyx9vdZrO5e/1YxW0l/IBd1XKfYxFKNL8Ci6d2WCo0nZO6ApVpY7x2AzOD5l1OsP1B2hl3KsldfJUkneMELELCW/xUphe1H/x6p5hwx0FG76WI+1PNPAqlYub9VTW2QJ2Ia/CCY1FvC6WsvYI62uMl7bJTW7BkOhJyB+ab54XnxJxgxRl7el+V2mvCxcNeNFJFTg1dXSDthe028afszQtQAflnHhw/+OAdGXora14JBEgebrXL9k0DdP04K97s8V5KjX8KSjTtqcvmRCt+GH0Il2wO6C1/uXtecOae7vplX007+4MV/5O54ly408mz3qRE6mblwIu1SKUSX+vpBVH5dTYXTTu7z/V3vs0H9sUDURm9yWxBHHBse9mE8IgnjgaA5t2FXGpS91ZtbwFe95ZgutxlL2QdcJdLF+Wnn0X2Td29wNIAe0P3W3Yb4pK/vI5eZ2Oxo+BOJW+XYMJo2xbeWo+Fc8ibM548x8XnJ/INpt3KEz5O59KcOj+nKRwDb5N0NivxtjU667yvgKPty+R3Ma0IOfdKhTGKOXWZzlBZDIRrvbU2Fk7TM7ELwM/wV7hy9YxdGS3f3NR1mv6aExFzax7mdpnbk5a6zF3zsnPc/KOWY3ATxdcQs9vbYoeUpbqr89mNH7vxAvirCEs2a8e3EcpQdvHwRyDtpKkVAMZA3mRlnaPZ292SrUQc4aPUzT6i0M84kU64EqfevH1vAO3Jn3pc9uSsfvH48HSShtEt9fiQYp8lST6h2C1uogxxbrBK5wwsmhOTB8G/eN5ut+kwmUJ+2EIF6mJJi3Ihs0a179ny1Q08P3bb9xbXj++H5tYNPmZ80QA60YW5dfPb4qnxz55jGOC96YJDN5ov9wb35uZtM9sJFvXyxJI6dFX+KGgC/DZbNwIat92m0lx99mJ1obzwcUvqxAbeCryYyBsHFnOPOQegLijhwmmrxm8hPxp3sRQbeEvw58GSNJG8k2Y/YbZhJ53ofsp364gfYUmd2MBbxHOz28ipZNfBOJcncGHVFTHoI1lSB8acOIbN5uf1+fVnuznudhqaRTgFSKcVOHCLeN+RFZU3aDRpS13E34JT6B1b4CpNFKJREg1qu3sxpL7CsNEV/mtJHeSMutw7vhovJxK0Y5aXbKU93/65/ZX9M3mT+cU6/Ai+h7qUkoxxDVu3nQwZCthRhzmjJEcp3dX5EgyFlOULiwzO2nJqvoY6jMyTTVWNAmF71DsP7c/P93EvlUyra9EH1Bn6mdghLXlF0aGDb8KgKxE0wH2nxFFnGgFhN4LkFdKt8L+Cy86LhMJmJ1biyY9EmZpGr2DuiNrOP+vz3ajW+91x++nPr9vzp+ZDr4EuTDI04lSYUidc+qY6k/yzSAIyYolNOVMwd/qlmH8TCcsq2mUVADKLxNwZR3B/BUn+mzhqhtQJ5s4w9v5b+GTUGdZqorkjyQadSPLvI/E3iUtvSp1wubAs5/3zSKw9cQEM94AguoOd8PzzkT+FxNUmfqlhWYAQ3eUf3P0xJAEwyQ8YUgfn23ILUH4aEyY0Zn0C8Xzf5OipIwrP7Mbc7K3XR4jE07C5qE28sVzvrNZfR4eZYrPTXOLlU7m9Dn4OfeZGmZXvQ/wDxU/H6aqQepYJ+dmIOjhWWz9mY05GB+GLkTWH+Kd/zMacJJKh0tqEODH+UfTT+nEkcgNJEZMKTUeIf+SN3o4AnLUyKfLD897EIOieAP3riPN1UNhjctLQFwzCccauJZh88qNNe05C3QEbWd+LNksbmQTn4gWu37FF8iV4YOGrSYAHzXlJhPD8kwTkosc4yyBIQJU5PuJ0X4wLKzcakypEZapP4Pw0hpzO0+dMbF9BxE730PwPgGMt/Y5wsO1aP+bgLkFcbQL7U9oGD8WO7GxPfmzsxRgzg6eda0db/nTMLnSCDjMJ2o1koNFI9ZhzKgSXnNbTZUwope4fPWOSVDk2btFjTWw7QsrfvqY45bvwwLhLL7WCS0eyDlp9mX4OdZb006tZwfY+k2NOOlD8ZjZBJ3NETy0euY8JeODUurzDEw96s+PkyL0wQJ3Ptxb1OQqRuMG/sXTAYrB4+TbPiejxkft/QupKkNjCI3+tHPI8VgZPkmE/VIRjBLLDiJvDSwV5jueypgfCZTdHDlJvhbWwcy9rFxw3WnMl/pCCNujL9IO4Eu1y7S3i2644rhetZ/y5EVi5ny0w0gdREWwnZzRdBaEXHxX0gnC92Ykn6qCk92hztGkAp/F5ycF8OZvNlrvMWZ8q1g3+E0KX4CVLngK0pvU4CwHkgCEX5cz7tFrwuEODFLB+fJsTaZ/26Cmm7b/Dlglo9X9TznKnfe4009FuiyjBzm60M/7VVVc4pHL0rrME/NGUp+5FfVAtVQf1i944fQjywCMwP4ScoykMOb2tjhz1Qtqa/yxtMdLdWASc9452K0sTA+nRm1gSe/+S+Vai2smcvWl3tXp2/yu46kyaT9fn9+/NyWPjGwz3/8PJAqs66mmYAAAAAElFTkSuQmCC;" parent="5-3XioVFCl6JB0ejhThV-1" vertex="1">
          <mxGeometry x="880" y="-17.889999999999986" width="102.54" height="105.78" as="geometry" />
        </mxCell>
        <mxCell id="5-3XioVFCl6JB0ejhThV-16" value="" style="shape=image;verticalLabelPosition=bottom;labelBackgroundColor=#ffffff;verticalAlign=top;aspect=fixed;imageAspect=0;image=https://d1.awsstatic.com/logos/partners/MariaDB_Logo.d8a208f0a889a8f0f0551b8391a065ea79c54f3a.png;" parent="5-3XioVFCl6JB0ejhThV-1" vertex="1">
          <mxGeometry x="570" y="322.51" width="194.29" height="100" as="geometry" />
        </mxCell>
        <mxCell id="5-3XioVFCl6JB0ejhThV-17" value="" style="shape=image;verticalLabelPosition=bottom;labelBackgroundColor=#ffffff;verticalAlign=top;aspect=fixed;imageAspect=0;image=https://webimages.mongodb.com/_com_assets/cms/kuyjf3vea2hg34taa-horizontal_default_slate_blue.svg?auto=format%252Ccompress;" parent="5-3XioVFCl6JB0ejhThV-1" vertex="1">
          <mxGeometry x="1140" y="158.89" width="436" height="110" as="geometry" />
        </mxCell>
        <mxCell id="5-3XioVFCl6JB0ejhThV-18" value="" style="shape=image;verticalLabelPosition=bottom;labelBackgroundColor=#ffffff;verticalAlign=top;aspect=fixed;imageAspect=0;image=https://d1.awsstatic.com/logos/partners/MariaDB_Logo.d8a208f0a889a8f0f0551b8391a065ea79c54f3a.png;" parent="5-3XioVFCl6JB0ejhThV-1" vertex="1">
          <mxGeometry x="946" y="-361.88" width="194.29" height="100" as="geometry" />
        </mxCell>
        <mxCell id="5-3XioVFCl6JB0ejhThV-20" style="edgeStyle=orthogonalEdgeStyle;rounded=0;orthogonalLoop=1;jettySize=auto;html=1;entryX=0;entryY=0.5;entryDx=0;entryDy=0;strokeWidth=10;exitX=0.5;exitY=1;exitDx=0;exitDy=0;" parent="5-3XioVFCl6JB0ejhThV-1" source="5-3XioVFCl6JB0ejhThV-19" target="5-3XioVFCl6JB0ejhThV-3" edge="1">
          <mxGeometry relative="1" as="geometry" />
        </mxCell>
        <mxCell id="5-3XioVFCl6JB0ejhThV-27" style="edgeStyle=orthogonalEdgeStyle;rounded=0;orthogonalLoop=1;jettySize=auto;html=1;entryX=0;entryY=0.5;entryDx=0;entryDy=0;strokeWidth=10;exitX=0.5;exitY=1;exitDx=0;exitDy=0;" parent="5-3XioVFCl6JB0ejhThV-1" source="5-3XioVFCl6JB0ejhThV-19" target="5-3XioVFCl6JB0ejhThV-5" edge="1">
          <mxGeometry relative="1" as="geometry" />
        </mxCell>
        <mxCell id="5-3XioVFCl6JB0ejhThV-36" style="edgeStyle=orthogonalEdgeStyle;rounded=0;orthogonalLoop=1;jettySize=auto;html=1;entryX=0;entryY=0.5;entryDx=0;entryDy=0;fontSize=45;strokeWidth=10;exitX=0.5;exitY=1;exitDx=0;exitDy=0;" parent="5-3XioVFCl6JB0ejhThV-1" source="5-3XioVFCl6JB0ejhThV-19" target="5-3XioVFCl6JB0ejhThV-34" edge="1">
          <mxGeometry relative="1" as="geometry" />
        </mxCell>
        <mxCell id="5-3XioVFCl6JB0ejhThV-48" value="OAuth2" style="edgeStyle=orthogonalEdgeStyle;rounded=0;orthogonalLoop=1;jettySize=auto;html=1;entryX=-0.001;entryY=0.418;entryDx=0;entryDy=0;entryPerimeter=0;fontSize=30;strokeWidth=10;exitX=0.5;exitY=0;exitDx=0;exitDy=0;spacingRight=0;spacing=2;" parent="5-3XioVFCl6JB0ejhThV-1" source="5-3XioVFCl6JB0ejhThV-19" target="5-3XioVFCl6JB0ejhThV-22" edge="1">
          <mxGeometry relative="1" as="geometry">
            <Array as="points">
              <mxPoint x="313" y="-500" />
              <mxPoint x="313" y="-644" />
            </Array>
          </mxGeometry>
        </mxCell>
        <mxCell id="5-3XioVFCl6JB0ejhThV-19" value="" style="shape=image;verticalLabelPosition=bottom;labelBackgroundColor=#ffffff;verticalAlign=top;aspect=fixed;imageAspect=0;image=data:image/png,iVBORw0KGgoAAAANSUhEUgAAAJwAAACRCAYAAAA2JtGTAAAAAXNSR0IArs4c6QAAAAlwSFlzAAALEwAACxMBAJqcGAAAA6hpVFh0WE1MOmNvbS5hZG9iZS54bXAAAAAAADx4OnhtcG1ldGEgeG1sbnM6eD0iYWRvYmU6bnM6bWV0YS8iIHg6eG1wdGs9IlhNUCBDb3JlIDUuNC4wIj4KICAgPHJkZjpSREYgeG1sbnM6cmRmPSJodHRwOi8vd3d3LnczLm9yZy8xOTk5LzAyLzIyLXJkZi1zeW50YXgtbnMjIj4KICAgICAgPHJkZjpEZXNjcmlwdGlvbiByZGY6YWJvdXQ9IiIKICAgICAgICAgICAgeG1sbnM6eG1wPSJodHRwOi8vbnMuYWRvYmUuY29tL3hhcC8xLjAvIgogICAgICAgICAgICB4bWxuczp0aWZmPSJodHRwOi8vbnMuYWRvYmUuY29tL3RpZmYvMS4wLyIKICAgICAgICAgICAgeG1sbnM6ZXhpZj0iaHR0cDovL25zLmFkb2JlLmNvbS9leGlmLzEuMC8iPgogICAgICAgICA8eG1wOk1vZGlmeURhdGU+MjAxNi0wNy0yOVQxNjowNzo0NDwveG1wOk1vZGlmeURhdGU+CiAgICAgICAgIDx4bXA6Q3JlYXRvclRvb2w+UGl4ZWxtYXRvciAzLjU8L3htcDpDcmVhdG9yVG9vbD4KICAgICAgICAgPHRpZmY6T3JpZW50YXRpb24+MTwvdGlmZjpPcmllbnRhdGlvbj4KICAgICAgICAgPHRpZmY6Q29tcHJlc3Npb24+NTwvdGlmZjpDb21wcmVzc2lvbj4KICAgICAgICAgPHRpZmY6UmVzb2x1dGlvblVuaXQ+MjwvdGlmZjpSZXNvbHV0aW9uVW5pdD4KICAgICAgICAgPHRpZmY6WVJlc29sdXRpb24+NzI8L3RpZmY6WVJlc29sdXRpb24+CiAgICAgICAgIDx0aWZmOlhSZXNvbHV0aW9uPjcyPC90aWZmOlhSZXNvbHV0aW9uPgogICAgICAgICA8ZXhpZjpQaXhlbFhEaW1lbnNpb24+MTU2PC9leGlmOlBpeGVsWERpbWVuc2lvbj4KICAgICAgICAgPGV4aWY6Q29sb3JTcGFjZT4xPC9leGlmOkNvbG9yU3BhY2U+CiAgICAgICAgIDxleGlmOlBpeGVsWURpbWVuc2lvbj4xNDU8L2V4aWY6UGl4ZWxZRGltZW5zaW9uPgogICAgICA8L3JkZjpEZXNjcmlwdGlvbj4KICAgPC9yZGY6UkRGPgo8L3g6eG1wbWV0YT4KC4M87gAAOxJJREFUeAHtfQmAHUW1dlV33222zGQDIkhYwhIEREF8iCZxfT6BhPAI4r49+WWVqCDIz8w8NsMW9k0QF0BIgBAQXH5jAggqBEGQsEaQSALZk1nu3v1/X1XXvX3vrHemZzLJ3ErmdnV1dS2nvj6nzqlNiN6cJyQfP+S11Dzozf/2Q941B5voS70Wx/ir1yoF+ksBBaj+RL4/fdn7hLS/Ydlyg2PFbjhKnryppUVYU5sXyDlyTr4/aVTjVCnQPwr4nI6R72m/9MwF7Zf9dlFu/pfNywu8BTbBZ+6r1yoFBk0Bgsokcvualsl3b7n0gQXt836zyLvyQya8ZSnEbACcJrx6rVJgwBQI9t3uWnfJt+7acPGqezZfcuNi77Z6k6hHcFaBZ8hRvQYoULEYnCFbcuR2HgD1hQnn3JpKuUdk096eHRveXXVP249PYdqSfTr0DoNcMZBn1VulwMAocPPyb0fMm3e8e+FZd62/xLtrwyUrFrRf+p8mXPXvvJaKgW3er16rFCihQIsGk9J2f7nuog/88p0LV9+fudy7Z/O8hfemLzvIRKYoJlc099Xr6KRAOAAAkJaKFpvi9o4N1zTIXPui2nGxj3duTKedROSnO9XVXDJNnrKKJCbwGG90krta63AA59MxCKY7111ypR2xzsSfyGfz66K1znVTnab5+8lvtiG6hGJhqb5etQ1GFQVC7VsZhYIU/OKEc+bm0tnvZDpy4H9yQi7ttr6Q3PT0w961x+GxR7DRdueL5FFF9NFc2VA5nCFkSwuUhGYhWmSLe+fGi/9LunIRQBf10ImL1TjCSTjLEiJ+wWfkd/7Id6hYrGhd4eE916RRve6YFBgSwBlSGRF79zvzPuxGvEUYFts5l85nAbpIBMCLWM4CSNcLPydPe4HvMP500ZKXEla8qtshKTCkgCPFaDo56dBbsndsuHiq5VkPRBP2FIjZdN71ovUT4xIduaQlrMuF6Jx/lDxnE98xQKW/6nYsCgw54EguA6BfbbpkspcXD0YSzoGAXC6fc4UdkU5jY53IC2+1J9x5trBu/i95epojFZ6oKhY7Ftwgz4arQgZ0C9Zf+J6ssBdBrB6mQJd1OWrh1k2I27UyLjpFGuJVXjBTfnchy6b6dwL9O/QHh6us1XyGjgLDBjhWwYDuvo75u6STqYdhKjkklwKny7uOm/fceG3UrauNO+zAZb3cb8Djzp8p5y7nuwTe8WKOW+3fkRrbrxtWwJFMBnTkdHlpP+zE7YNzGTcHDdbxYEGxI3Y+0Ri14iIqUyLDOU8/zwn7gmPl6SvN+1XFogq4iihgQPeLdy7Yw4lGfhOJW/u6aS/nAnTgdLCgCK+mKZaHFuugTyfSIrsVGVwNmXrlsfLMzQZ41RGLisg+IiIPO4cztTagu3v9vP096f3Rjlo7g89pTud6gja7eH3Ui8UieVd4TlQ4BN6b0GgvqhMH/WyGnJGjYrEAikV1xrGh6si/bjPAkTQGdL9Yf/HhjrSW2o6V8FwvDwDaHtiZCy02VuuIeE0M8PPy4HaG471gC3neUfK7D5p0HkX0qmJRBVyfFDB2unswIiFs+2G+4LqEG7tvGnSRhC3itTHcAY7QJCKI6AoXphT3fqzkueBz8sznGLeqWJAKI9ttUw5nSGM43d0bf3ySHbNvymeAK+U8ScNNPp8XTsQRifqoDhWSi3asmHCgWGSziHQzxO4V6N+9yQgqPYxY4N3qiAUJMoLciAAc6CExjso/9+5N864AR5tLcwk1V2MpRP8OAlWKmjHkdESSRzQSeE5MRNi/a0PYlZbYcunRsqWTNOZUd0wSILesAo8EGQFupAAO4IByqnAk5D1t8zAE5hyT6cxp0ClCSaE0WFuK2jHkdIiMl3gh8FARJ6IUi9wKBMJwfMbd6rWqYjECYFYsQqjTk4rJVu4j2NgHI4A2tydPTHfmXnRi4GlSYrKm/i7I4diL69yCkS+FUOTDTh20WIhUNy1yeQdLZaPC+tVD3lV/fMi7+hNMj1osuV11KlTl7RL2GyOGw5mKmf4cxl0PwcD+n4Rl1QBkLoCjPg4WGHqsUikS4HTs5JHR4aIcuR0AKGFGsaBUKMUC9y2z5NzCjJQZ1f6dJtY2+B1xgCMNCqDbMO+b6M/dms/CJIxwQKtQXi1OJRSJiJbFAdBpOrJ/50GxiEhwPvbpro8I6zJMDFjH59X+nabScP+OGJEarDhHEDiJ88RxZ9+WTWVvwdw59u+oIBQc5jXBZuKJZFuWCgRHJyheA87jwm2ZEbkcHtXEReQHOeE+B1F7OvdK8ae3azEeeKvqHVoKjEjAqSo364rnvfQPMp3Z1yLoz0HE5pTo9PmchAJBTpdq02tyuoKOGMQYrerfZXOWkJMw3/hqTzQ+hY15/ps5sH9HcFf7d5reQ/3rN91QZzOw9I1oxQLrj0nPWkLwgGmBjxVFq2JtNAeD48Xq/GWyXcRrIX8XfTywPkttW5EVuSWOsM8/Sp7xJGNQzLZWp0IViDUUnhENOFaYmiu50MK2S89zEvYF2WQeGqcSl4oelLV0VCSkY2FEgtub9O58xcKKon8H0DHyz/DOjzEH7xXeVA3HpMLQuBEPOKBHKaKs/oK2Sx+DEvFRgM63z+FRoAa009kxS8TiEYrSXilGTocI1GiV4Rh9vU4I6KuzInnFbHnuBr5sOGyvCVUfVkSBkduHM9UACpR9DveYqnkGwJYGBDECgbVgAbAxOu10GBYTmbTu6pkkursCaMp+R+AZxQIc7xxb1Dz3gDf/FAM2mvtM/t2lUw2rjAIjH3CoD0UqG/3EpnOexcj+vEgc5l2pOFSxtj74sDJM5FN5kcvSdAfXO6MjJ1TA8w3HOVied8UY7XVtovHJB70rjgKoleGY+VO5KGZY9Q2EAmU8YiBJDM875DRs/F+8c1ltvMb7sxOzD4R9rtifC9SEXo60Rmowe84CRgi6wPM+SqwUCygTakYKgPiIJ/LnzZTfe5bvKcWiuoa2DxL2/Lj/zdBzGsP2hFyG3O7urZce5TjyIfbZlNYqi1qrqhBlLR7RWhyphU7q31cAOqZLw7HNiQEZkeXw2i3oIV40U562mhWuKhakQuVuuwIcq6dsZphVsrDtsvuwCGd2Jlkc4C+AzacDZ9VJMLgoFl0PzCkkE3iYcaxmpLwLEXwVhs1uwIgFp70rjlfdI6X/1N3u+iRTm6cqXEHC/t9MKtehFAitcaLWpd+PhLWNhuEclIiBOd2/Q15KsYCA3ikhYpdkRP557Or+NXBRiHkYjrFlWVWx6B+F0StCK/F3O3JGtC7suPyiSMI6l7Y5IAv9/VLAqSohiDY6jFRwRZgSs2W4rKTm7N+5nOpOosGG9wRA2Hy0PGMJE2G5BrlHCnaVEqK1tUVXpFmIqUJ/YEz/eP74Ti3ahX8FDNUqqFU/aG5u0f2LEdqmumIA3VKx1H609VEXIosTFke0MwrEz7dePC5hO8sdx5oMy1xhWroqvK6Z9qJJIAoFVvwrzUN9XoHnlVYWYFPjulQscpyPIty7QMLLMONYTXWnYgHdul9raMGBUZKF1jIxQaqFQZUWpof4THeZWGZPF+uQASahjhAAOtxA8Evoj8wQWAUFxz4Sr0Z0zRlBhWW56KitajvZuRswWXMeONeNrhqA0B+7jqV/Fa7wwytmESvQqZtgpAr9AK8/NAbOCj/E7Bcw1f3zD3pX34R5yRdBzBYUi0dbsbgn8BGTvqSt4kytrIvkh6IAzGIs9x6qaROra1IiWpcQzm4o9WTUaqwQdh1mKyQAdgwou1hQhE0KhGwD3NGvdFcC/GuEiKENnRT4Xgrpsj0LfQmK/WbFLfv3IbAsQ+HkAxuuPwGTfw7CdLN3rIj3m5ljTnm9PCM27jox1VPiAix7JHwthsvd7t0er21f/yw2ydkPC6q1mUShTINM1cW/9yAQLegPTlThpbyaA70HB+GMY6mWMgJ4azFJ4IrVazZdd9IkPdWd9CPwpjULq3wt7eve7yauFKsOT4u2vWpF/VSA60D8TUGR61hapGvbAkIcRNf/yK01xybXhtmG/7KoLSbhu1RkADyBfVq812AKfyUnkq/c98yzj9+CDYVMBfXHum12IZULVl2ZsGPRwzDz4jR0cN6LQtXjI/qtY1u/Rtfnn2sbrbdPkicVCusXWi5d2mJPn076HA/RUWaENTUb4qsh3IKtmDdXG7kVHKxkoqbK3gebgR9nDMOGh+H7woMQSqmgQNmYR58OU91trrF4DaHzO4X9yznylHaTCURd3WJx9QExEf8UONYn8yI/GTNYdq8RCbA5dEVVREvBiF6koYMUzvxZqH5ieMBKqIqwBMhb/SM8CVKGpUQaYy/in7Al/hnE+fkM8eXH2F78YBdugzW9JVQHt9sN7fEVVOJbtU2xyZ2bUxizFEshwV5BC70A7vBoQ/3aleVfabmYUB3X4egzkNcin5u9myNjO7f+NRK3DyGXUwqE3yh4btrEhPAVYcd1gxQCB+VhMbSDz5+RYtsQc2jwzOsABhZvNzydEh1fyYncp7D24pAIzCzkWlqeQhCDQ4EjMRn2GHA1PE2BjgBEGB9r/DFHQAyB+h/D/aWTiMAp0uof/J7DcjAW+5tpkX4c86CvminPvJ8lVhNRh7HbRNqr1evMnEZVXhe82BKN7Tzhq0DbWQ3javbm59CxKcWqboF/Db65P4Eef45I+Wq203tp9q6nqsFuvmscK7JMrJDlfRjzPKyr4XL3Ja/4Ggbub8+mci6aisNVpLHvCh62JoiMBkbb2iGK1mJmxidZDhfcC+st1FT3rTERbVA+cC3EMn8sI/vNKBnfLbxf8BnIMRr/mdow3Sx1Zfy5Ck7o0SndCYJW4xL1JYdEP1G/hP2pomrqPXSs3+ERRlD0ZkHs47UMww5VpuyqYcipgv2MpW/cHt/U0PEFIO3saCKyjwuJpWZkYKNobhadas/wa34NtXsTtXoGif3R8ryXNrbXbfz6Hl9H57XoQADFwhkySNNBMVH6fC6n7GCdbz0bjVsHYgA/0JcrVjFoNWG7YHuJ0ESrgYkGhy4ihRzCuaIM8FbcC7OPLX4MqhPJd8x7+lr6W0xFpaNuKXZz4FMZ/OWx2R4/HkpdnRJyQiV1Kvrt8l88Q19PjaBwNjQZzI+Okd+dx3iK2/lMp/y9sO6LrRFMEeU32+AzeMHGm8fYXu50SP7vxmoiY9PJrIvvMwuzaIwdcGzRgG0Z0EvA1gye624GDZ4BGZ6S0not4uX/fPT4014OJq/SVKYDDb7B2o6MXe7+zstOjyQiV6dTJCQbtVi9INiCZeF0pt4aKBi3N38xDePTefMO/4gK/ON/7VN36tb4+Ej7TQzNzSh2MQPGB5nrYUsVfr0YQgH3KrzRW9nKn+EtlAdo9RUdDN09tEbUHMe++lCDTlOlvET+fTnHW7T5mr1EzvpffKRfINBgwffVbkhmz6NYsDjz1oGBleIK4o1TijaggmtAor9gVfIybAb3UixivXFU48lqe9Vg1gTOhAGIYSMOFnfMm5SV9nLsqrlL0C7nt3IwK7YpyoyLKu/gB1wMVJiJ9mvSmnBeu/oZR4fyF8VRd+zw00cxmUYvMItxDg8smSADgfEsNKe6kDDrRNDX/FNqxeZPzDmgJWM+4NByCSSkqRII6M7LDyqo0dy/7oZpMB/Ni9ZEDs+mwdZdF5+dtHXHFj5lWwIE0TcH95NYjaCStWxLZDrwEUnxAjJ+Cbaz59GzftyxnH8sH7N2S0kfAnm2wOJu7IF9iWFDpIWdl14ZS0TOzKa0WFWcrbtamjC0soXuAft0g3MGTkUIMT0TymtXfzGMMcnR+C+PPpkCmpulhMQfO/1D6jIAXTQp0o81iC2fUIuYhqhPV1E9yElYbQKDioWz04S5IMi5WCVfn+7MAiL4SKlw+Q7kBLiIL7Jw7YBCm2YJcsFcBj0STDHCk3fxCT+D659hdnrVyrt/nzmxqz3QcNxHoYa1iBbmR6fSNlxuUWb++7EXyVPgXBGwCMRB9uXOD1EXPkaJ2ScdnDNwMiDTmZhQXoN+HcvE0UCjnkmg5cDRFADD5WZ9VQ+gi0bBT+9Dn04tMCL18K/Qdn0l0J/nusb9iRmIE5TzizbfvJeXy17lxJyjuL0WuR04W4/TM1ADVgOsnAwQEoJCDTYxG9yPYjqLgXYA8R181m8Cvc8DBksgYF7MJcU73WnDRgzTMG1GRe5LXXF/JGYfi3SK8+VM+QM1VgDgPQrCgX5y4ME4lR4SMNdSUDHUAIxX7afNjP4semkZLw0/vlgWZhs4lCiHWTEOJiecd4w84yIjNcIsiq71QFIEbIKKxaKNN3wJGJoPbjc+nVSddn4bfbYgGkFxQdXoACJBCDFscaAd6QHA2O9Xz/agGP6b64pX0Zd5IpdKPTVnt7nJYNGNiWRB5+X/HU84C/EeeRy1Au3MFXfai18Txoxp1x+EaDWAYqIm/e58+rkWoTSTUCHAtnh+/8wUKFizYfPT6mBRTOFD+AhXs4UNukHXjgUymz0veOfaPZyIdW28NvI5iFjipdQI2w+60W5EBw6nZCEqr4BLAIJrKbMM5sBhrFBwBf0/8LcEfy94kcibsxu+/Sqz4Nv3Zy57LhKNHFTgcmU1VUAIhpHLAWwE3UCdAVcp4JganzBd/pLBaxFK+1kG4lM9VZ3NgeYc3nsoSw4jJeByucdgHJ6mUmaRQxKtA6duWR0Nd2Hwfeuu+y7odzHWHiTAZbKADhcjDzgv1Ja8DsoIRTF+KYEh/jRAaJKBATSdexfhr6A9Xxcp51ZvfPuJAOhpUGqoiRW5HG6YgHLdlIhDXgPlcoV0CzmYEF51ZgQbHdUCGmlD1jpV2iH8uBgNgYE4+42j5dzbg12owabdDckHnmSQ/S5ed+2hOMPo5/G66NRUB4fz4PohYvuXu7IjgSfBKUs6VGTbstgHZGCuE4xV5jvc+lSN4CShQC0LN4EwnY76VVGNVq1D+v9bSDsALwMz/UzfEWwkhgFf/3MYmpgoGxU3TU/oT/BjhMS2MYrxbFps/fAc2ZJRMicELtdnH6uSKqqhMdBxqbfUmTnhtOW2l/hwqj37i0iMuzQoSyUrFoJT3JJlxyg3DLwAMs56cDndHH8cDwH57FoMpaNNQUeflAVA9AI2xuUAf9iOeVMLzVIxQPIjBWysJ6bM29h7hetzqeyROhYGzFwoEIfERf2nGQfm/1CwEkoiukD+L+jKiYQUsTMnfLNt9vhTvgoD8Kl8ajvQR/U8rZJXQrkB6ND1w7J7j3mwbT2RwcfqW2QKGCt4SnMNBivAhYK5YiJ6SMrY1YK5lZZjuO7wAajCsa+B/to1OAFoNgbMfoCuCxUxigUtlYT1ZZZJTeIMoXBDWnPaxpphL0PpvUXrr/sEqvELzLqdlE1mezWdhFAvcBFUzQLq6jikS/7iV7W8xj0FY3lhpWawQh7F3JSP2Kc2WnweSg0HlQjKgs0bKTZzP4dy8DWTGNZqXIhJBj/CyEMGz6MYK3o735Y8eHbDuRvCEKvhczhTclxpIAbY1JK6Y8efusS1vCMw0vBErDZqdrYssoDAe+F4kTRmpwk1d8RPsZ9g4/dNRblS190bFO8jBmwsoPmDl9wNJMFETSEe8a7h5slwcrX/YWC+lPpI3hOpr/mkfjZ4sTqkgNOFpIhtUSL2uKZT/3Xs+InT0u25X2JYTBuHlebpxwzzYsCVRTbGH0y/uzA+N+FoGNoAB+Y09CCeFNy2JWfjd4NjCFS/lF0F8yHBpzbyweNzF3tXHZMS7XUPeFcfgRKfhsF8VptTVHPo2xGjBzGA0814HYwbdAKVZB5UrxdtuP5yaJXf4/AWiMCmDR/8TBUjvKKBHfWyqvq3JaHqpiSkwulLQWhpJaES+oQZl8BSW9MiUWVGQ7UobYxDPxdebIKGIoNC3NRnLUIaYCGsZYtogsk8tr2w0ce7A8Ndqi+nEyMGB+bCb+ReysE1nDSdMMqx4075fjbjfo+Ege0L5dAroXp5vfJHpCnFKmekkayGTAyH8y+Bm5IQFb8yjdVkwFcHzB51eSr59bNl6UnPfBYTMWGJwqiMgg6hr1yxeCoenkqsZyE0sW7C2gUUAdjUWz4hYFxCPfDalMXevHqmEUhCp1nh77ACjmWj6YSD8Ci5nD3u5Ctty/4ST57BlKLwNVjVAsiUoDNY8q/mVtFL3ZSEqOCB8lw0oH5/mH41t4L8g7TgyjRyNjL0AkdjcQirsvIQanDAo8TAmha8uC/BBOGGpADGWA0jF9bM8mYAriTxAbw/oFcAOPX5U4udOfY7d6KKs92sm8awkq9MDCjZnl/KkqmCuD6mukKrawgTU6F4zW+YntMPPOnarIGHYXp99LABeVIPzrQAZ2MdUWofaabcflRFAo2xQEHUQ8BTG+XL8YDEGMGrwcw8vb1oc+DdAXjLMxhAEgN8BVWEFqv2fpvddOpiMPJPu1mvHdOEADrMPAzLUZRyW2n1yXeTqEJV1/ACd+Bz1Shd42yzEJYH5WLR0piPmOHICoNMa/KmrMwaaDowCLqSD6TsHZ0D0gLXq+OqxRCcKWIISQ0oCbX3Go3Ex0089THM0/wsxEISA/XhgY41hGlE/QF8xF/BKRJ2Q8fyIL4TfK+QwDbwoBxahGIz7Q5Y0QA4Nf6LMqsiAk36qstsuJwqKR8otCkqcHknRh/1gml9RZdNvWzqxciqB9gJK7pmAq3m2cCu2xpwqtTGbHL02FP+hGMsP45JmW04qDI88UoigssVuFaBVuXIwgMEdRNakVgtJB+2h82PSrC3ldyK2ThYR0KwKVD5QFEXAzrmr8M5CxtGNQUuhHgS++ZBlNh2TEacOP6gjToxidNB9RsFjYe0wB9UEOxqEYIbEYBjPTToljrHjDv5L5j98VmALhVqny5bVtXuUIVydBvcbWAI1K8kCcCEHwz7a8mtMPPAceKqAhQhRGaE/wVHP5gdgcZn2H/Fjjr4xbA2IruYgL8y6+UfTrnZa2F3a0lmM3Nh/vgZRx+hsdJaoj5RX0udDOVhJ5V2cyGHAXm08XVAr4b/0gw1BrvUwfWJe9ddM0dk7cXY4N6hCoXcyhBTQf6UINyNw4NBk+BRAFI/JYl05YD+Yz+qEjBdXytJYyhumC9UeCzqy4sUOJsyIqEcxBRdN0XiCA+m0Eg7EnHUTp7ZbP5FabnYslb+Pu/m/xKLeZvqRPvmGVZLCeda7M1/HAnfGMHOFVwChdRxjJQNW5zLaef/CO7mpDKv8KebslaYwhBEN9OcFm+88Yv4FH9JOYKPlRr6wEDHlsGfbARnUCl0rXaPYGP9CtG7E8tDQIBAkgQbd/DEbBiR3JLRvEdZMlkuXTD1yx8sXkJc1wJauHQT07Q2Yy3d3aDefU7M/etMeXZbIGnlpaVgGrJ4Vewi17SuocnKxcjDQaDXLXHpHI41DlnMjYsAfE/D+Psh/33mRqpW7HSJ+/Ea2HJZ3ALxB5RxH1lCf4UOi7HYRRuuPcOJRq5C55i0hysvRx8pmcfcbmYMABcFswza5fgcNSurnHmr7AHS8OMXIwyhDxVmn40DMR0bsXk7BR3/WAhTYNyoWwsiEMtCeGRAKpl9G5Fusrz8z46rOfvfpoQc6eHBJ+q+FWPdXTcmwtSyFpvdG8Zd7L59fcSyT2J8zHZJw5T88Vnye08GR4xM2v29mmL3N3638QwYW0WrbBbNfprLcJ3ux8dOZfBNF9MD4Gz1UGdYEoVobm72w31iAlVAl/5+Qe/71113BU6ZmVt6fipfrsBxtKEW4qgGU/LUyEPxXZ1R8b7gwytFV7zpMX4x8uB9pAiyJJw6NmPGC+4hIvXVFEVdMZ/aki7WktiYBoZNc7yramvi1xQPsRNymWixp+MERZQ7QP+eixgE1EPetSdg8sH1DSIxbotInTNLnvFjI4F6TqHnJ6boPcYgmDaJZzDG1jAuJZIe9izbslU0JHeTu5UsYOkxgQE88PzliEJMgwCcTtUd05uuvTMxJvGFVFsGUy2xCWWljiCL4/yGBnRL6DcO3sCdCdXXwoOCR8ct3pbGD/mOszk623EWIkYPKCJ9BBbKAKBxOodadgkJ8Ijj2GfOjn9PreugqakSkJUXXY0GNYMLUsp41+yF1bLc/KYJ6x2mAMw4sBY59xPAwbT7JB0B97Z4eSz2jjwYVT4CL38UL03FlUd+v4UvagvuNyJ/rqRvR0criWW77fiUMP1RdmCFNOfPoh/gpbBcJIM9gzoRjm3B3SSepXFuTBKnnqYbxeQkgKXVr2AJA/6fvtV6V1PD2BOxRQxAhyMVNOkDMXrxYj2ScNA+jVAc6KfDxffp++BvyQN9UwgqeIIvhOdn34FKQgamrzT7bWbNbIC1Qo/M065BE0nec089sf6H17MEBFqYGwhxZypuAbHAuzKREPZP0b7344iohez7EYyV1rpi0r3hvbhzXFj7AoC7AmxHIcePY6LexLGiCcMDXF0J+5DPubnmkn7Oq+IeP+gHgJQihU8DFiRe1eR+gEwtyGR4GuFgQR6v5EMZABl29HxmrBj31lax2V22/nfnQsuy45EEdfv+l1/puUitCYuM/W5goP1K6VaSqr7pJqj0nbDuUHGWCxf021LKz36cdrjyP0wd2DrNRtcuBaXguBNqz3qEXZDg7ghhFYfpGBH7iPdILCPemDhLnrIKwSwUi1mRMzXp8yVyOr/iXTJZ671yJMyRn0CbfhoJHoEZowpoAB9H90ATtQ2EkgkUEyyrnvxHrtz9P1MgAlb/c0Vc1Ip3xBr30dW/teKRGqwr4kFuXYpjXi29MhqB1oRGJG/sSfcooYi+6SaoNO2Q70gRdB0wGJ+DYbcoSpmNBhs4W87rcCzv6OPqz1568/JvR0764C0876mfxKi8wCUcDeAeaF4ltOxPMSjb0clHR3SZhBKg+lfmvdXecswoiO6PPdG+jBJ90hGRA6BScxdGAoNcDfmZKVjm81ClV4TiDyOYJzpdVUT1g7kQ1hjRJFdiNeDyVU+KhpomRFGvmiL0fgVDlI0Q7EpTRZIq1bJXCmHaU7g10boEmAchXFEVftTYAAgmkKwaRSjUD+EEGzRRcDYwd098+sTGs5cYkRdC7n0ngaZSbTQIYA+efKoQLUhnGkxAMyAOtVvlPZmIiXEz0GE6ASEzEyI+hgtJIFoZh3Y1/9P1X+jHxXAzgE48lXkc+8G+JhoBOr0JX98JeARcPRoy0VVTVW8XqFHwlGKyGNx3ZgOMwSw60W9jz5cmEONQclJabQwEzjcb544tUpwtsHeviTuSr8UahVBKil3YOfDXjI8RGpTvNnkrdgdf+SoefKlO1Exhf45b6oGInLkFAdd/xxUC3K40ArH9xw2PiI5Mh6iN1fYPdARcLSQPzCPd2eKKpdBk0b9+aMlNMWZoPp+7UYxiCr7aAYDKQ8C5WFhu5VLZH53Q+MOLqRzQXhZ4vl14h4yMGnzLYDmaQdVdkW6lt3xMvaibjduTMJX5cMIGq4OoM4K2/QceOWWtwMCMaBNL1/xGRDn03J/+HD8BcDcLXK4EcCVUKN4UfAXP0LYpPgf03bAiH59hCXfDoDuOb3Kwxnfh5xvPngNq6hINQrQNbU16Tp1ibUgcOBy0DIhYEIXgw5+zlzx0y0S53+0T5P4fBsBmoW/3BBbhWlAyAEzFEfulZnPDvg7ArQnHF7xvlw+IjnSXEZvu60Rtj6MMbK9uQVQMLPgKnu6TDCWU3A3/ODCP/Z60gdckDG2MkxiwwHt11LbU+t4FXJS8HYKNVRoywBl68arBJ3PUdAA8JULHy/0W3yDu+RjG6nCoRvp59PFsrPTmwA0FX5/A43YwbWKr2EvsK3Zp2k20p9r6tU8HxVSJqOoGUN0EBaszZH7swA5a+cmbK8mn+nL23Nn1P1hLUWo2/x6yggxhwsVqDWEm3SRNjgclQ/fzPGwNsVFM+homhZyN8wr2xtbu6Klx12C1z0WPZWR/DucdQMDmxJK1j6hsooCtUS665Avh7WEVl9XEQ6WDyRb9RR/eLrnpklroAamtsBEGFAUUII8DT+xsMnfXnPqzvqhE6XbK2QyxhoXDmcwCVzNPS+1DQtE7Tu57K0DwgaToPB/W7C0AHqdO0RhQUD4C7ysvuRyG23CkRq04eOKhIpnu1J3F8ojmnko9tb8ebHAl+Cq5MQkMwdWIU5xgzcIXsqUoRd8hncxvxR6h5zNnJUqHoAjDmeS2ApyqI0XtDIBN9/GWOhPkfm0T5NQLsOXLBztE6l7a8PDHIWtqY2iOro79uXaI1t3FnuK94/eAaN2qRWu3sQPvs2VVnEITBx4Ov5dbjhm0sUTopLkxfnOue+3nG89aub2LUkPRbQo4UwijYBB43HlpJ3ngSigXx2Pz1aMxWvFaog9uRxGawr+DEx+ExhoV6RxEZqEzZHIxV2ox9POnCLairySYEYfWIWO1Pp/b2LE1WBBwN6xfc9IduTUNDYmrWYBHAT1et3c3IgBniBjgeDYVDGizv46I+Ic6RfJ6jF4EuZ15RV2DonX/nQ4SSdjmenLKVF4mUrcZ2IB55s0TE2jCNB8J6eDg0BLMg/sppxmRu7UMYKC8Jxpsy/ASWm/LgnSXN5UJM3qxzlvxObTPVbWidm8AkP06M1qhXiWXI/DiokY8tuX3YnPnpq4GYTI1NnIT5sVhT07OGunCCHukiIJGd8UceBjLgmRz6L9x9ZXWRrH9AqbTYOxqfTrpHvKlcWf/GxyZWGTpt3s3ojhcOTUJNmNKQd/u4YhIHJYUyXthPvE3XFWrkNRrgI7SVime3jfmAyKPoyMwq6Q8SSVOGbdb120wA/UbPb7XbWL9CPTzUxO4fD/GSvPYwJF9uAUEW0sLuqQ7CNhIkW5J3A9SDXsU9O8KywbXea9+G+zpBgIPm83TfEKNVjlyugbRKJ5OPy7eXLcSA/yNJcNeFF9WE+zREdi8OMZhKGCuKpWeodWjycXPv9ILs83gxB6OxmPlHqoJBR6mEc/Lf/L4xNlLzNSgStMdqfFHNIcLEg0yxXA7OUHucwts8h+Bve6luIhz3/GCFqsViE6xf+xgEYnEAUc1ZhtMSmGsDF94zhACrWewlSQS5o2voIKTwe6GKVeu+xTBxiywAdAOoSwYcm03gGOBdceZX7/n7CwP+CsmPR2JUYoHMT6rOByggjX2FszGKfTk6sSUnfaHAoGZ8CXoMlXnFQ/Ufw2yHqMFXwnZj92LVOeMJYBoxZbsnO1r/z9m4+80tUP03QzZtivAsdDsz5DbUaHYTR6wEba7mW2ifT7sdcSLPzRmwRzcIfYW+0CkjhHpLGfO4jE76QAkf9U/H2xMt3fHpPk3hA7iFIW0cthqS9rWvcxphVlhNYTZDnfS2x3gDIGoUIDTqXFZmE/moheEfp3IYeY1FAoLk+5yMKNExT5jpwJwnMVOsBI0bFeTSm9XAzIdufhKSAzHT4Y2QZYHf54+70u+6qWSq1TJWnsr3/b5rNDZ3h6LDwDlqcWy7BPkvj9Z5720BhOzF+DU4wRGY3E8V6ezq5gsXq99WXSm20UC09K1AOsJNEVYMc3SOx3CN7uG81mFLpgI/ACcG8W3ghNBH+UGztROuSi5wlRHfPTtlsMZyrJf14Kd0sntaCjGgP50TO7cQGUCi3qww68tpjTtr5QHLt2H2QGCl2/rVtbwYetrBBifvmM8umBo6RP9fJC/Okllk865udeY2rRm/SENMuUR9/p2DzhFUd2v46Ytzi7ygKewdQu2KMisrRU1kU7Rkd0VI61NdWMhWpPgJGhd/gX4lLnT7R5sI/NEh5XeBeMNzo/+JGcM2ul0FnufWq8zNZ6OOLhUR+bbOwbgfNoCTOjXLY/sJKesjArrPwC61Vi4i2PhnNyURnI5zqZFZNrfyO3wy7+urvsn3cft+nYlISpNi6MLaAoptlpR5w2+zwOJK0lne4m7QwGORJfy0OxygK5R7vPPGhE/FGd/rsTKWPblsmOw4CadS+kN/EpayADMXPVDc2euRXiGgAWTBBOHg9GXG9V0WB2da3jfzH0/dkC3wwGObXQoQEdOVysnr8H0pekwm6ytE7WRPcZOwaGD3KfDQMhcS1u2NNTc8UoH+a09g/v1k1OpI0F1i0X06XwCCy6K0B5cJiPobXYavDfiOyTgVIP5oBsnp/wbysORm8Xm9XuKKZHaaE0um8HgvdYcCi2iGh53Ggeld4VI8HAxQahO9Skp4PEPfYJEA/eH5f0O4nTPRawWzyTWicxhOyzg2FxGvO4mD3kNEzq5MLt9j52nOKl0CktpSqGlm9cArWtj6yd8K3ySceyU6WNCEhbL5ONdc99+Q2BBUISOicZxsPzMCp96I4w2FK/s0+0q3/d3GIJP3Fm818O6BxvrIKA6sPoGZIouhdLrUH9EohCHnyt1ytK4hZcG6kFy0LDJ1aKRRGQMkxnseQgDLUrY75nt2zBMvDvqt8cODzgSUPfpPOxSPeHXE8XE7+xcu6tIexmY5JTpq0BjDTJC0PgKjwoejtXStKINyIXgQXmQH/o3Kol6DJHsRt/U5qkho3pQRRzMy8p4DRvo8ajn66MCcJpaWHrYIqyo3OlmbM8xv0bGOYGTRhIfXgZk3bWzfqaBSNEHsoXYyWI3DoBzsedzBNxzD5ZpQggHqTGdbe3wcSpKwSD/fvz9ftQAjkzJa9ay0BbRa5NuagMMctjmD4eqKsgFm0YDTPO6Un5H6mEPwK6vBF+v1I8suDcvbIacKjKp0tdHanzPH3Z813v5I/hMOcvvL6MGcGwUfG1q7PVwecwbWzKbnscETkItMF6pgVaEW7Api8+UWMWbYYpVJAcWzIXQ7v7MVe0b4mt4wVJsX/5pCl/ohByLctdPlAe0jyrAsbHMtu+10bp/YLYwQvDhsbXVv3LGVQo93tExLpcnUg6G6Cxu2Yi0/wO7iKszEYyGF2Iew5YUlCB835zR80YcvYXj8HGqOX6jDnBmjlmDNfbhDmwWga8PNAgCpwiyos8AUYcwNobL8GsgGEo7cuEMufAklGlKKClu20QUttaLzKwGUTcZN79mcUYd4EwbvNX5yvPY1HU9dugG4niKrwZTEGQmrnlm7ilM8Q54o63MGSZ8UFdkjPmXOIce5yu4eR7CUeDGg0p3G7ysuZu/jYfIn7VVdGB4R6pZMKMOcJjORAYlT6q9ag3WRfwao0loYgvaanmHqSv0TIhpQ66VxYCNuR38lRnAQcH5WGGlfXmxdJQR/rsM/Q0hNnivnDBOjD0EH+gDmJm9GkEUJ6POeWhMRRBshf40lxUCbGhjAydzBXXwpPhX9DGUCgPFKjldWMoDcrBw/hWWp9mHbBVjP8OWWSp0WenfHpzpu631XqyD7a2Z/WTQ9jGWHcsC1I7F20M9Qi3jdNGs7G8HR97/UFu+bR1GHADA4hZhBlpBuJUXQMexMIkdBwKEpDwAuGgbHAoAEGMjuxOZ5wwc6FGe9wi/95mY/UNMmNi/TXSCvo7qvwnsCT0aORw75sSIPFDOWmXLyBIXXyG0TiUbCaQi0EqbVoOMvFD7yB0JOQuCIiwuBz5gYZo8yzDzgfTlU8lMzTT60tKMvDu9U4LMb/Be+zCKfTbXlYBGT4yTe69ihUj3UQk4NhXPNOA172Zvx6xgeoEiDSTeGFcOMhNurgRfFBtMhMXlkC6zzGET2TqcGXumyWekX2nkNWYQ9I1vwna6Du2K6OfewbKDPoreoxZwx4vjlcH3BOe8JZ3Z5NOw/0KuwhQG1zvIDCgNpyNRMUYgoUDgpI4wHFgtdhQAd7DEVx725r8fio7rr1ENI/nQ0wCYwLxaVOXXifQNWMR0MDk+1pa8MlY0/o4Ztra2KgkyagFH9k5NEFf0K+wb28UWAA3TbpUjqIIuCDIDyOBzgZ04E6UBg7pTQ3DgchGcWSovYVJzhFqBX16wQeUSxssEGw/1Y1pYNddaKxJfx9ZpWLyk7JR3SDmxnaLWrEAbtYAjgUyH/MTIZ+9IZVN/90QWXA4HchWcBloRboUHvkc/4dfMkYeIjGMfE8UkyyMO5N5Oi6wH3vmfODT3G/gaCtr1QBIbincINqSrztxa771yclREz+8QnZhBakeSIvUuHv6U+ba2Plpg/aMacGxEiipO1LQs+7JO7KUJRyLix6gGvDNOA8zwuOAdFQhyOUtSay3Q17xY8VVprOj6oD/EklyO4a59Ob46UkSr4WyUEOu8l7+I/hqPMmc98wlQAjrZLbS9sW9nuBsfjm7AgQC+qBKfd867szPX+Tj31Qe3KmNTBlokmYGb9ps7Y5/lfsPkePwXgsP+DyIHLocznrzbCDbuYL6ttVaCiHVj3xJi9CTU9ZcwniPMQ1kdLM1MraoR9rWM09rK36Ib9YAD+1BcjiRpcBqbN7ubCBV0QDiEUASa8fGqnQkp3nHUgn2XhOTJOAHJbF4ZwBWN6WRx+lZcRD4SF6uvYRLNauG3KtwAUhzcK+BskAgtLvvAa72XzsHHeRPAxpkuYOtS6oP9xBX1csq6YN/N5FoFHCihuYawjpJnLM14metc6FcwvgIxmm9pkBmAmWsRjjqEIpibH7kwkyREVCZwWGcZozRUr/AK5Ns4z8LFISonoz/Xwrl9nIIOUTVs7UcRauxsL3ovRiFGb8VO8xdzhgs+Cu4l6nG/vg6RfG6dyN+oqzi9y1enaVkhAXbE6Gw89jU2e/9q+n3ujifHORP3gyqAc2FKT58uEow+QKEHRsM5cx3YXT3rZZXJRMcdDOXIcT30jiISC7ybZ8m5/8vvoYWCzTdJDCb1nt7VisEycDV9cN86b+WhUK5uhTZ6MMAFrqYntYIa/M9tFWdMlPs8pjlh1yMPivTrKcdRFE4zCTvmv0peMD0Wjy1tEOPRpqAhKFlKqNI7QyITqmFIjicxAWqL0lwt2OkGDzqFcAU6aLAXzJRnns+8Td/OlCOsq+ZoGmie91psg8ifB4T9AGITB/WmCwe3oN65GlHjYO/lS6EonN0T2FguQ6Owyrjdp7PAOx4d84WYRnLN+TguvTUq6rj1Fzaf651U+mkxDpUGiliGtInNEK84tz480HkwrlrYjPG2d0Ttd3hEuDo3VZykzjYbTCMQLHyf2qdJZ633MhbAeM3Yq+UAcDUGg/P78QA2HmsAReEJHHVwJB+SK7KPR3+5K1Ko/MkovQ8S6870+Q9OiO5ydETUZLGYOtId6LoLM6Qj6DibhJwtXNCphYouhr9gq8v9CbbDb35OnvoqMc7Taio5i4v1peG2sJwvALT13sszwdG+B3B/lHXx91NmhRRuUHeu77UxK2RzVmSPmCQPfImADYLV0MJch63TaTIc6Vd+mcbWdUT02K9syW15GYP7EQxfQQMwSgRhpv/1Vh9yONrneG3A2YfYShWsgbaqwX7n7MBjtyUcdgzl5kh8DE8Z47Axm5g6sMicqEBgsZ9Kk8ZSWP5xzz/FidgHJEj4h2lFe0P7PHWtt+JvqOEDsKl9FENUedjYwNWgSxXBhr4GNntCEMJPItiYLtPonSa9PR3Fz0x/7mnv3kP+5f5zWZM1rsHCKAROVMAX3htgCMRSpzkdv20J0/IWnBCbwqGdkdJIA76TeRzrgIa3wIHyv/Wy2ZZZ0R/81U+ORelWtJns/u79vRYLKCZiJdunEPEzeGEGRCdOstCHKKPM1NaVmDXvME3U0oWWSq30hxCl8/gB9AU2vl9Om0CaVa/pjD/kXXN0Z779gfH2TrBuOjjVNMfzXQMEKr0LPCh4jXjF+9Bet0C/a1ccT4LrdcEEIRJMvpBKjx5IPizbB4z11CbvNnwY1x0rz3qOXAyP5AqxrMYRMRyQXLsTrntCFE7E9Pp9wH2nIf+pEP1RjhBgSAo82WMfTb3Hd5k2HeuAXzywPJzsbQFsN0JJOBmB5KDs9zFCr66QWK+xRvFDA7oFuQuPhaa5sMmaiFmrDo5i61uR0GQrkpitQTWCYigtOkWbu1k1J+bk4UmfbdWPVtDcCEZi0eEl22Oy5rU9xQHYqmwPwDoSxTAZtmZKN2BmzBj0y2BBwzF64GS+LY0IozjE6IaeShQsEWuBbgXGdmOwE0m7XXT8ZCe5P/dVFsakRH9frkiNvmKO4ucGdL/zbjkqI5L31GFvdIIOfac+tNdy8hY5IUckOE5KZYIilhosFtGAysFmrpzoyIEJ4JBjgflo2Gob/2rRgxwvJmE1/yT4GxVwAB6KSsINK8HzeEn9KxSYJeU/Kj38h/qCJ29F/HZwUffW3eWh/8PScZitEjtgIYPKqza63gBhHRA29zdv8cfeFm/eWS/qd8XUaWivuYD22j05g6FsRDqigg3JJk0Cdu1em2pyHCKIJ4wzOOAhAZ5ZgWkEUHlcqBdulunLuA34yUZZJxoxAFePMZE6dT6ZBhXLw5Xh/JdHn5AnXnSSG+ffFf+GNppBaWPXfFr+zxmIBuHagkmXLUqc874/LkiL/sQf1XEMp3vDe3bys94f7h0jGz+IkdMc+nQcZOeK6hJXfs+HBnAGVJqHFLld2u1EQhydNNaHQQNPgZp5U2Mm8HLQlDnWy5RZHmrPLAcdy8xwxqXDG7nOfJszMfoesbPY4/uHyplXMLxSzsZ36LqjiX5S/e2WAobTrfKeTDyRW3bXOGfsLIAOzWUReH2IWN3AOmFNetPAFLEcDuO5r9RksxCzFLFK1KKZKPDCcBrw+tcXo+BUUBMKOdD0QxA6XtbjEYeuM0Hs3n6YmP5/EnLSnYgmW/Q4bkWczZS9CjhDiQquxmTCV/7g3Ta3XWy+tEmMBUtyoN2xP+Szix7SZIMa7sIGCN5ToWAIlQruDMD+HZ3u4+nYmgep4BB/NPTZZwP48sl8m11v16Pft/tfDxUzvwUN9B8chTleLFAzRQaacRVwA6RcUKT8wbv9sE6x5cqEiB8ZxSlfAAy0WJjHiJxunOYvfGB8vBaj0q+naNO2xl5Um0hB1FKrpJZLcQsAqHc03wuD+6n03KyHAXmcD1wvxrtTxPuvniwO/T7ycmnUneEP4HdTpX4HFWvZ71eqEQsUgHgJDiX93rv5LJgdflQn6ho46RzQAPA420TZtHyuVoRZ0WfgVrwyD92/o4ZoQzvMAno4LRYCl0oAO/V0qv8F0avfNO8bHtg3EPkG/mEiVTYPU6/TIMZAo33vMweJI8+MyLGPM4+wwMa0qoAjFQbpjDLBZJZ4t+4O3e5ciKWv14n6iO4R4fwI2Lb4xzhFWBhf8Vp8bsJ0iDZOUNzSWMZRAJpok4oDZt0MxSCe6Hf4Sw6o73FV/01T65iMjjh5ztnLioxdr3TW8f/aU7zvikni4Bv4jPXi6jb4+0YuC9YPZ0rRj6jVKL1RgIZ2rnU1A+ePe3d+EDa208FrToQJBccBk+vwBGsFOtI9AAMDLt0cRdgwRwUfepSjYqFNx5TYHKsl/PiPmypg0hL+eMdQWv9p4IBHwVGVQFoAEB+5GIuyHS5xrBNN694j9rhpL/GRqwCujcwIEfo1VKUKVcFPFXAVEKs/Udm34x50Bnh/8H5yEEBzGpp8JoaOJmjVTikNnA5MPgTDq6eEosIgA4lF/1dfi4A0kNRlodA1/yjCi82pbWnUPlWOhBzGgYk1ofb3wFlkAKX16lgx4Re7iw/dBqC9wzQpPqdjS4YwuZouqylx8K7qD40C/tHhmrEh1RXekt3XiLc+mxfZr6LxD8S+G7WUU+RF6KPBq8YoGZ+g4H+iR3npoVf/K/rVY/VM+wA/dhaRlgU2StOgEuMcRcACxqjicrC+bU6I+sfGiKY7dhYH/hbAamMSFJ88bgnDVPqb8NMN+6LrEnaq1fQMBbA5WIucBgRwJrEJfNZ7+P0bxdpZAMhhEIwfBeepj2LgnJY4oAQ8iYKSvT+eCsb+UwFsCKKfjr+6b1W8J/eihktxy76e1mrB1DahD/iHuKj78xgx8YGd5X5vqAj4IUd7FOtGhxpoJj9dVnNXvQ4ZBcpFLTNCP8n6i3jgvVnRuS+40KcAloMBkvEQjjsDTBM5q5cCkyCk49VAz1y1QMU8O4ALM4AZay1MKquxkGcNZuI+DaAt2UXs8SaMtm8xDd9JAM0eTqAVMjae6nX4KEDwTRPTwPX0eoFgzgThX8Wv95IiuxvAsyf6YO+FCaQJYKsDyGDkw8RJNTgvkwBbO7jkZhiLk+CQ72La0RsTxaR/jxP7vApR2UU0euBmYgj7Z8F69OT//6wu3bwT1HRQAAAAAElFTkSuQmCC;" parent="5-3XioVFCl6JB0ejhThV-1" vertex="1">
          <mxGeometry x="230" y="-541.88" width="165.37" height="153.75" as="geometry" />
        </mxCell>
        <mxCell id="5-3XioVFCl6JB0ejhThV-22" value="" style="shape=image;verticalLabelPosition=bottom;labelBackgroundColor=#ffffff;verticalAlign=top;aspect=fixed;imageAspect=0;image=https://www.marcus-povey.co.uk/wp-content/avatar.png;spacingTop=0;spacingLeft=1;" parent="5-3XioVFCl6JB0ejhThV-1" vertex="1">
          <mxGeometry x="690" y="-730" width="205" height="205" as="geometry" />
        </mxCell>
        <mxCell id="5-3XioVFCl6JB0ejhThV-35" style="edgeStyle=orthogonalEdgeStyle;rounded=0;orthogonalLoop=1;jettySize=auto;html=1;fontSize=45;strokeWidth=10;" parent="5-3XioVFCl6JB0ejhThV-1" source="5-3XioVFCl6JB0ejhThV-34" target="5-3XioVFCl6JB0ejhThV-13" edge="1">
          <mxGeometry relative="1" as="geometry" />
        </mxCell>
        <mxCell id="5-3XioVFCl6JB0ejhThV-34" value="&lt;b style=&quot;font-size: 45px;&quot;&gt;&lt;font style=&quot;font-size: 45px;&quot;&gt;FhirSpark&lt;/font&gt;&lt;/b&gt;" style="rounded=0;whiteSpace=wrap;html=1;fontSize=45;" parent="5-3XioVFCl6JB0ejhThV-1" vertex="1">
          <mxGeometry x="390" y="-25" width="240" height="120" as="geometry" />
        </mxCell>
        <mxCell id="5-3XioVFCl6JB0ejhThV-40" style="edgeStyle=orthogonalEdgeStyle;rounded=0;orthogonalLoop=1;jettySize=auto;html=1;entryX=0;entryY=0.5;entryDx=0;entryDy=0;fontSize=45;strokeWidth=10;" parent="5-3XioVFCl6JB0ejhThV-1" source="5-3XioVFCl6JB0ejhThV-39" target="5-3XioVFCl6JB0ejhThV-6" edge="1">
          <mxGeometry relative="1" as="geometry" />
        </mxCell>
        <mxCell id="5-3XioVFCl6JB0ejhThV-39" value="&lt;b style=&quot;font-size: 45px&quot;&gt;&lt;font style=&quot;font-size: 45px&quot;&gt;Session-Service&lt;/font&gt;&lt;/b&gt;" style="rounded=0;whiteSpace=wrap;html=1;fontSize=45;" parent="5-3XioVFCl6JB0ejhThV-1" vertex="1">
          <mxGeometry x="390" y="-205" width="240" height="120" as="geometry" />
        </mxCell>
        <mxCell id="FNBATUXHRKuEY5Tn_S-P-5" value="" style="shape=image;verticalLabelPosition=bottom;labelBackgroundColor=default;verticalAlign=top;aspect=fixed;imageAspect=0;image=data:image/webp,UklGRuZQAABXRUJQVlA4WAoAAAAQAAAARgQAPwEAQUxQSDYMAAABDzD/ERHCj6ztjTS6tvVgghFYGkuv5WH1QGuFLi2TFpFLTpNNWKspueQ02QSCIc0FajAI5mtAVGVW5b90RET/J4D/hX5I7mOg3n8E2kD2/rLG6f6Oidzd7Zqnu2sLsve2aTXcW1nSvR1r7s52rcc7Kw/oztoj9r42PRruKz+U7qs+JHNbx2PurjY9Hu4qPyHdVXmC7qo9w96UnunvaXtKuKf8lHRP5Skyt9SeY29Jz/V3tD0p3NH+pHhH5Un65Ibqs8wNtWfZG9Kz/f1sTwv3sz8t3k9+Wrqf8jSZ22nPs7dzPM/djp7v72Y7IdzNfkK8m3xCuptygu6mnmFupp1hb+Y4w92MzvT3sp0S7mU/Jd5LPiV9HHQv5eNQzzG30s6xt3Kc425F5/qPQ7iT7eOwnxTvJJ+UPg566NAsKy4V2a5pZVNcKQoLTXZW5BfKtYoUJpLsipSALPmFKrnZJslOdilNNkkL9SzzgCSNiqQ4yJLNkgxUKXVZskiKsyIpTJokOyqS3KydZdf2zg2aJC0USQ4OSWaSJWl2SNJEksLokBRfo3ah29S7WZMU2CTJTkrnRpt6O9i7NNjUz46z3NrRpW4fxNkhKZI7P2mdH+WBH5ROpssDO9GlNOzKI5KUKF2YHF0c1UEc1IHt6sBdxS/tIwu0gSZ/08nULk40HLWBBsfAd8fAj7ZL5ZEDjpEd/cuodWn0LyMz0Nh0GoZOwzjaTwtLdRRg09iNvjqwR6fRV0e22yYW2EYR2EbpFdoowj7xo+8MnIZm8J2R6/aJB/ZRAvJIo3ypY5QgT8LoR4NPn+K7PAkrAsrEXCQuaQplEte+OLKDH41CVyYRyBMDdWIH5UrbSp2k0fjLIzeYxq5OElBW2gP1SvskQZtobfpA6n480UoCjom7Xp5EOGbmGX5N3TEzUEcR0NQP2pXKJIDm9hqaW2ijMEpFUngdv+TOM7A99kPJwybJcsyO09JKnTi2c8IDFvYFN/AccrBLgiLF67WJZV/wF/NwSJYqO4iwz3Q1u0tmECmSwihSu8Cx4jkkOciSImXBUGQgSx42KV0krhxSgkOQJTm2FU/uLFWKE0NZceySwgB2AUVywGS7lKQALUGRZOCQ4sixd4aykGCX5KFIMjBLsKWRBQ7pJTyUOALagmGTlCAvBGAhAU2KEwJQJQO00X6lTZKFHKBKEShSGgGSIuwLHjikAFWKQJ1E4OdWqmRewcDuBwHIswQcUlizQJsFIEsJNPgc0CSAMspXAzY38MAuaRAXNimNDFClCE3ywL7UN6VrhYVdSgAWmuSAbcFAkzywAFBmDtgkrR2jLFmgXCx2DCzALPCsPDgku5QW4icvkqUwOSTTHZJZckvpE2CfGYBncCl/DQ/U0TGJAJuUBvSHZDikiUb7qF7Mr9C3R+yz9JCdhYl7D/ZpoWOSBm0SntPOcwtFchMpDerEXUw34weH1MVBlezAd9sjx3l2zS7EQXnEXEaT+UXMy7iFbVa61vm35B5qD7RReEiPeEDns1ifkV+hDtwLpAfMaJPCq4UXiG8ld2WQHttux5EHMtcLr2MH9Qn7yF3vN9/PNvIP7efZ98MoXM+8oWMQr8ertWfUQXoonxZfyD0vD3RvRbKwvUh6xC7EF6INzNXiUllgVl4jP6ecli5grxHXODp7uU9exw+OtTrZZ57F8yIPuIU0qNfgMdok3ImUuvTILsk9Uq/mF3ReeEaTzICOF8orx6RJ5hp6qL1eWDGnxW574Fioo/hGjjNSt0sRDslMGJcX26U4aZLtdB3baSF3h9JKu1paccAmiaepy4M22p5mryH7gLpPBh7YzzFAkcLAAbuU1prUbf56myQDOKhSALKUTrBAnXkgj34d2Jf28BoWNj+IQDnHAW1QpQAUKQJ/BuSJAXK8HpIc7AGKlIAqxRM8IMkPElBHX5hVyQJF3XFa5JEAJQ5k4DgnwjYqkoBjpCUHNJnrHVKEmiBLciApnKBPyJLcyLJJCrDJQOmK5IFD9iVkkEaBfJaljrIkT5bkYZebZCkCkrtek+SzZNglyTRJ/oy4SZKFXZI4RlkeqmQ7wS6F61WNLVs3PGU8GzooCnB0uyRLkeJ7cOcZ2BYsNIlN3SYpbpLS9crEwYI9D2DtkFyRZAZjQNfKEw/HzFzMgKYGZukS0tI+CdCuk7pjBtsMOF5nm0SoM06LXZsk2JfaJF6PSVpJ54WuTuJKMlAn4QWOkSBP4nm+K5MA2yQCZeJfoI0S7JNwwg9GrssTDyzliXuBOoqwTdwJ3xzZbp844BgFYJ/YFyijAEzsCZ+NTMfEAm3kgW3CC+wjB7TRT57w6YjhMQKoIwdwDNJVzNI2skAdJE5wR5dGdZC6MjJdG8RX4OgSQB6EU1oXRmUQun1EXwb+JWoXu23gTymdH+0D1zGIptsH9iVy5zuOznzujNzZEUdnBq3zDAe8xNaZQZGU6J9Gx7RKigxLZ0dVUnwNmhQZ7pL84KmDJoXZLsmNNkmR8S7Jvcgu2RFV4qRdMjOaEtMi2QlNiRdhc9uEv+QsdsPq51nMhsU/4jr2kauOrv3/Fv3Sx+F3Pw7xP13H/xCR/S+79qHy/4Oofqjix0Hm48A9lA9V+jjEl3jFN/JnL5ffxi57A+ka5eNQX29/G8fHQR+D3Xf/4h5r95MDm/St8NhhLrW9hRLZZJ4he0/U+P7iBRJ7fD0+VOEujrcQ2cMt+PPyoIT3587bAzmQ/VoOcJjbwXWbfezzXLu9BbpHu6tfwd5F/e+McgHzceAu8n9B7OelpayupG6X7eSXNjnYZVeKBs2/g7hU5ajukAWqApCVyKFIKXsoilAVKZLMYUBy0P5K6QLbtQ4F6qdSAA4loElm5ZBA0sIuBWhfkcx72aRI/UyKgCQDh2RXJJlNkpllKUH7lmTP47ywskuJ+k1JsEtyIMkv7JJclmRnVdJv0H4ouTfwuZUsiSpJhjzYJYWFLMkXSW7WJBnajyV/AeA4w7PcmYGlSPJkSXGhSAp17ZBkabpMPcOu1ZS7kOUoQoEse4Qc8szIFyGfJ4pZjiZ7hAscSuWMf5LcQgl0bpOjJmqgJIrPgRzInhqpLgeaJwc4zCaHPE3UC2ySvnXGt6S4UD1foMpweJqnRGoku4UWKHZ3lLBgaYEWKfG8XdJXz6hSWnH8GVXQPM2RI9Wz2xVHNptZ2QU10AL5It+80k9QE7TAYdkjzbGZhcOyA+SFBCV2++u1h6BGKIHDsKUO1oYLOUGONP+mAuSIBoddkxntcRZhTzTHnt6M7zzsEcGm80qYbe8mzFKHOMwDPGV7SyUtbCOtbbNjwcMmmn0/clAdbGlLJ+zS+8vSgnrEWhrUleqBd+WucNzBLoULbHqlH1wGKV1gv4cmXSC/1DevkyVzXpHbb4CVRP+UmriFLHuKuubvYVvQyDzDrRQP25visNXDfs5P30RzI0bHGiO7FGBL7ytAjsgM7AMGOCx5lgPs92Qfi+9qG0QokcOCo7m1Y1IWEuT4JupaNl2CGjgcm6d5NrPi2B/YE5RLffUyxdJsFbRA8+yBGtjtQvNkc1jqggw1XGWT9K0zihQXquOwVYbD0wI5USPZrQSKbY4WybHbZGmX4ZDKGV+R/ELzm2yV2+SoiZooovqFmmiueY4Vh/xlgHqGZbmlLFMVixxFRpEid4SFIivfwqZIVjaHQSnLXek4wz8gdZIsRVIgS1qTfJUU2aXukGSvpDPDWpVE/YEkQ5bk2R/IXVlrksyb8GtFStRvSoJNkmOT5BZ2SbZIX45soyqJKx1nuLUsReqnUgQkWTgku4Aks0tfWshSulQ7w65tUqA6yQNNAqpkVprEJn0aYbRJ4VL1DLOGZKmuyQFFEciK5MA+Kgpw6K8itAGH3KXKGTxYElSXBbDJAsixuslCiQAl0pfEpfMJ6ZG+Ot74fkK8m+2EcDc4aM8w4G8HKE9IPPn95SfEW2rSZ08IksztHNJ/POGLkuwdfflJ7nYk/cMTvvRx+EySv6PwJPd/Wbz5/wr5wd1FyIP083BvHv5xEIB2a06KrfNSrDd26DNJg88k3VnVVyX9sPuqpG/pn25r13ckfWsh7rfFI98JN9Yesfd0SJ7yCJskeztNcmwPWJBkbmdcHrrx/1vCNMnljwHA/+Ywt5Y/Drsk+l0St75JcYCU7u2/BgFWUDggikQAANBWAZ0BKkcEQAE+kUaeSqWjoyGjsnrgsBIJaW78TzjAzV/PPwA8qdUlhUpJ9NywKIux+fL5gHPT8zPlfeubeS/Qt6ZvIH/F388/G73//Hvzj+0/3b9rv8j/6fM/86/avyo/e//U/GPmn7Udez5T9yP5P+F9sH7t/xP8f4p/JH/R9QX8g/nn/B/vfkM/XbuTNm/yf7GewF7JfTf+n/g/HK/xPQv7Cf9P/BfAB/Tv7T/4fV7+7eDf9c/zX7hfAD/E/8H/xv8F+Tv0xfyf/Q/yX+m/br2rflf+H/8v+d/2PyD/yT+p/97++f6f3pvv/+cv7eff/9Cf6m/9H8//+gUGkJQyVFI9ca4VTrVymlG/mP7OlTobZyx6MJ/EULi2HRPJ/dqbvU3epu9Td6m71N3qbvU3epu9Td6m71N3qbvU3emE0R4efVkR4lsisyajcsN89DTxnLLQNRjuAgsQkEokJRISiQlEhKJCUSEokJRISiQlEhKJCUSEojcPCpZIqOcc2M7+E9qblmcxqX5msYafZJ2kJRISiQlEhKJCUSEokJRISiQlEhKJCUSEokHQo49QF6Cufojw7hDlw0DVy+9alUyYT2pu9Td6m71N3qbvU3epu9Td6m71N3qbvU3dntPMstTJnxdv/eb7bPJs4TMcZMks1KOQSBjHY/hqpdX2wTAU7MFrP+EKyYGUI6mBLFFLm/HnIXKvyUS89QBuTDtWgfGK1zlLaudycecYwxYBKUiu8jgQVSBEQww0pDZRx9FhcsVsmNOmvl3lNAT4FjdPHweXTRUqI/9sGIRJZOgQ1PkCREcQ1g1GqHxYrdgsAq1x5+ceMv/Wxkd0ekyCJNWxn38+fIgATGD3ZXsK4C7BQBkpbEoZ2j6MdqNuFcLnvgmiLsKprKlKB/lb/pK/D44rwdspMF2P2T1plc1Eq4WB8EBfWub8NiqEKSiEg9VqwpUqIxBbJwdcIcXQLFUm4tJsnlcZU/7iJKucD535cYTfNEqhOc1bdZjRIbBHuR1wJLkbfnFDy9fGIqg4EBBfyWIk8POiS9TJpFRhXq7okQNpJ3fwmgnxn9lV6SPtvRRT+b/vnXrCKb0LXHQZEjTz/3aqiNFwMf+WJRGba0L/JMneIFk5Zn2O6gXdoME7vDXIdIGG3j8ewKKBGIlHAf3CDyiHFDAMzlwXh5pxBIRJuYeJD2PzS2WyKwP920VRmmyoFQu05Dy76k3r+8kFUE09aaJpMqTpwopwUnuhLg36rVTwnBfo5XBiROnlrVhprtuIrdCptdBfuLgbDhnjB5mGLZ4d78fUNjaAOzq+sBiyIqcaQhG+EcaxfQ6mc/oWuJmKor1ksnID17UBj63sn4lHpT2f0B/TDwNv9NdF3gABa8Yu3XX1PvwHeY+/3UrJI31DRcNVKjpdG1257xd6aIm3nGwiVuHNn8bF/pIOuEFQA74srGBmhLFq/fCeB0ln/sOSI7OcthZzSj6hTkuEhlvIdZsMnsJJtYpASKcrR2XlrAZxGGqYjBCXS0KhoowVMxF+BtVz47Bv04jLjUvEQTR4+UzvbQkxldVqDHLf2T7Cg9XPuAriwIeQeS8Wxr1OiJgcp4pNe1mCjh0F+BJDR4VkmczGdGiSAUmgb02zslSWGrDPJemvQX7EsQq9orC6zHVOlo3KV/mld7RYYINZfoLaE/8lMAwa5peoCws3J680vk/oySWeYWOFmO/P26pmYv1ErHJfePTKSkZhZ/w+Giasn4NuUHSTINLUJuI65R4P8vybz4eHPy1duOavOYb332U4GHyY103/yP4tSA6w1fJzMP+8v1pe7dUzQa5Nsz0EMxd+6BZ2T6qIJL0njaI9uERJ/nC2YO0yUl3i6IDKhBlfNFpdxR64Om9OKdxzLr2/6yVqlO4d2qSOLn1i3exK5W+EdmtMNoqDoRumE5bOc/xm2UEQ6LrTik62xku0tNqfFeD/01dpUJwQfvRIvdgv3eBTqnTBIeGN3eG96MmdpNZm1M2J6UJJm3H2nlth5lgL9VXb8RdRzNA38ynoHa5DVSeXn8mw/nk2k3Wu/CB3MwoxTcrlwkXtPXN5+hGzfMgqIs4PXswHibdZHy8s4O7shfVOaZJqCoi1VDA4XV7eMY+xS1rWhDRFS86QT/5WtWrRpwiQ7gh3BDuCHcEO4IdcjAq36I8O4IdwQ7gh3AvpcMwj79oCp7LEPCJiUit7XFh1ZLV94mNPffNsqufojw7gh27EfLhLoCkJ/4yoIZllk9cg10YnKeeLfvy91PmsAhC/vvU3epu9Td6m71MlrcFNugFQEwsaae11jn3i7mFTzqWkeLUiZw4Iq3nT/aTst065RkwUXae5EBNL9IerndTnHt5mek1LB6xjndjNQOPEjrgk4hzB9e5T2Jb2miQLVFln57dMeu3evZEGAtzstiOwrlTj1i/9MD7RUpdXlGhqjO6BmsN2VcsJO0ans+SMaYKla5+iPDuCHbvby71WTCP6vzlcY/1G76myFG6OXeTM7W/QVQC7lm9JM09LCMxGJmSjeKANWt3lm6oZmqH8deCVLxNiKgFQU9SaW4m9hUkGUbV3tvc/2KF15okmSTTZ5csI9p5nALI5ywD/yaG3qvezenbU2jl+cB8vWybrny74rnEpDoht6YiAyz3k3R4O+bBSdrKRnmb7wUiry/eUf9kdQ4bjfXdBAm3v4iYxniDyVKgC747zxTcS+gyzUBRcQV8QWcDjyB8ciM8yGU+YeV3hfv510ZVgV7tsxhoekkQjwGSXB9IRJTeQG/R/shCqxuoooy6EpNuD9+rhqS7HcXpEDV1KdpCUSEokG6W2R5m+QvwB0G/3OqyXQjoEeUJCLTR8J1qGD4jAOEEiGhW7Mn96sidCY80xwvjXNkR+zYw9CflAuecTKdBBt0FpES3IZgZo7eu3+5ppg4hemzrtSwSWh+duDja1AA65G0/OmiTe3XBZ68TvEtHyI9pc3pHvn6k61GLFv/tcPPp084pMV8q+a/k490bHqDxdBUXqNcJZRdRFSG579hxZyWrH4zyhHokLsFV8H8c1tFavbXSW0BRAeiPDuCHcEOuvmvN+Edhldv3Yv7qqJNzBq48LUFmTIIddu2dlv2A+INxW1LyCDZD0U5vbiILwQtXS9el0eqwcXE3+xxmpB1PzF1fmWPsrftlvklGbAp93iN0rIUr6KGfv12sIsM0wEk00jYUqrldHg33RD1awaUfMvX5QyR0w2v/fKcmznj8ka0OtZ/UXQDWoG/yi9JwMI6zIIB0cxf2fIv/VPxVPSORkjZBvmF/QUwqf6c6r4n9Q9cvskLr5UO+UgzkNVfmOFtVs6GLncVXVI8O4IdwQ7gh111S275qLVe+OygLrh+2tkPQTKc9iFy+dcxjsLyCXf6Red4CyAgK757JoFL/IZkoBDUUMLp4jJdObu+ENbKsMZ40nxuViycQG97jdFwFZqr/x57U3epu9Td6mAzQZfWL7tcM9n1d099ZbnYiq87WPiVZCgV+mH8Fixha+ig0qx7HSb83i6jFu2e53JTaj6rtqYIgOK/Xrpzd6mbmQ89qbvU3epu9Td6m71N3qbvU3epu9Td3t4wJLGUR5/cGm+9Qz9EnYiSIoAWpBJwo13ZLY7hqqJCUSEokJRISiQlEhKJCUSEokJRISiQlEhKI0AAD+d5//o0joJB6jKGqmyYjUOtmUyhoHszd0XbUm9rGWnhxY+2klKo8cn0XWv7wTed18qFIY0U0NwICYRGEcwSQe9VVEGZmdtQpjEVHEuVgfhj9me+hxmaijT5kiGs2bTxpW2DU9qwLrYECmaJfOTnvA+EbAxw10EZZcm00ZT7ZEL1NdWGIgzJyO+OAXFlGuOBZPhNyvRMRn8DcO9j9zdtEBgXDXMi1ZQUAAAlBuFHGaviuESfd25i8WoU9HXziNmn11Fnvnx7Cal201vXXHEd8OlAggh2FxLjSWjfy3RJVeotq/pc12OPL+t3xABunnkqWg+RAg86JznUp9BrR6sCTYyiXaYu9w057xWg+r1yXBUQpf3PC5c3KAKrfxIWmhdR6bgyqKn8UwrNYsaBCvoIt9qftf2uprJ1hzDJt4KQ4Dj//h4U8Nr93aPouQAABPdzSBvyjJcOjRlfnqNgVBuOqs86i7Hmvf1URvlZBRkB6F1IagqpCFiFE2/rrUvqWTrMkijLLS6bkvk7IkYolPX8xyA8pLgFaiInxOob0M6yisQ014CxSQMHyxixqcfutha0dqwJtMJcxjkrpr0xdGbOSJFg6Sfnv9bp1szAADV6Nd7IMs7pT0kgLIg6QXhrbd6bPpdmbH67nyeq/KHhGlgrNR2J3QQ3jRNiOJfO1xBQm56dxZa0ZZ5+QelNi4DtTWAnXAjnbLxJ9Ben1QtMwYdBxPCx1J8VY/tAgrAAJF+a9l0nulODl9pny0Evef62bUXwwN7r+ryokgrJ3T72NflZZ+YLvgnpFuYW16Emc3jsZkEwupP2f3tp9wcUSxp2o+JdZ1wBTNaw8FWTF3Km/pcHxsBE0NeC7kdmSqiMqXQfqask4M/8e2PN9BnxRqAErhhEapmKWdO+iigT3ZJ47AEj5HXOKjHVaxVoXElp/kj7O/05RrLUqmQc9pV+EnHZih5EykxiE5liLdJPT28Yf8+ANVYH0JtihlamIZLDy1C3RAMAMSsPHJl3fONXABb3z5+MnV+o430MQ9WvW+a8LUT55TjXN+a3e+r6IlJlmb3DRDV807lYotf3jwBS3mebpU6pORbojFdzll6s+uQIudrMESw1f1PQkGdqhEzx9HIaWGdoKePWLdrI656dKF9tDn/kCKMH9Qa1tRq/PU5gReW1cVgAiuq/LQ9jq9kaYZS1O+orXAtttSfhkGKLymajQZJ4MnaweEqSkm3TTDvB6mI1jOO224TonbavUW25517nIe4yRovVGcvpF9hyE7oMIqvUDE8IDDg0VdyQkYqVIFT4wtQdUBJIMgqEYlXjXKZ54438sbqAlUq6Gn5asD0P5+U3GjmFlLJ1ptjcpcFXeGUBVT/aay0rlyGFngTVrfkI7iBX+rItBPXQmTH6Gqf6Ywf/rKXiNiy/Xth8nds/4wfNo/C/Hg/qN3SY4D75aigLOKZVE9ZVIsyykNyQZgCX8YSaqZzKmhLH/I+OJXzl9xGup1/x/4CAoUT0AqncJRr/3nSk788PTXuvYeNAuYnmZk3sZrl7QuyyTZpEQdIjYYC5ZokUU2bCciCgxt487EMs0dIRA4+8dsTDceDtL2rK+xzokaEZOQbCxZ0uTNe0L/YIS9P0MI0NwtLVqhzIDuK9LsmI466ymz4Cxq4xvfDwZdmtevKwEbwxNDaHTIvHpWKhRVwS0F2/AeWf3gZop1UwR+uXAGvBQxrHoVjH5YqPeOeJ+dry6aN5FQnqbZSDMfWWI+vwH9s6zbmI1VeEvNbXYLIZ8aOqIrWew4Wr15C6UeSLDDlKmnN+hQkz8U/RtoP94D29RmfMH3OKox+dwxEE5z3U/aMekO4EI1R50yJvvU8rjb0UIWoiW8HHGCx7LXYbKK+XiKsRWjSTUH3IaBD53tgLH4btj/gbQM9t1i8DuGDh1pDCngm4zCEvxlZ57G+LeVAn839I5R23pBOBFaVZd1sNOyr+8xF3kQDNQSmqhynWq6Quh4RplXNvNCgFiWbT15ZskznGeSZagFwIr4994Vypy0tIVujsLg+35dKwwW3O3WJkCCwevjyqcRiA72KFkrTwhidn/lKvys7X3mVfQ8qvdVTxjIHbzAv56X6SQWf8d1O3uFJ+NBlnMX+xg+VX/vgfOtPGy0uniiZZRXiargGrditY5tir8yNxn/VFhtik7IcwxjTrFNJPICR/IbxE9YtzOhey+tOzk4iL6CZAzxARMx9rwYEYy/r2/aAKukd7YcpoGBzvkFpnnIoWyXhaxRtINJV8ZHrqg79aDFfWGFyXyT7Q0nrnd0QG90TSdh0DQgIig0npzsRbxDoaLr8QGbutEipULRmW1GUWlYjZxmECJr8lqjG628Ocgm0zstlMhm1IrQQUiUapUFZz0mCt2Hr63LDza9h12SNfb3WZ8O+chzEfnEEFEFmRr2k4vkYlNSk9ROCm1XeXR5/ro7vcagx1qX5RTds2Th0X8gR3uVzn04K8TpezS98lJsVXkYgLAxg7qPX/CoZuzgy70V+yPq8+igTEbQFJq7ugTGcPde6IayO8ZIoJNSaHov9sfnWgqkLZuChJm3zhYOn9SftPsTNzw/IiWiAsM1AqAewIXgs+vFFaXDUSf2ey6IMcTJSwbSkeUWuyibFAwNYKotfWOeEcbkTgsX/3zbIyzZG0UcCAl90rSxSryUGkpOUq69szlcjbJBHznKy79t/FK0iqOzpE0xvrdLXrtc4rMmghXM+ECb3l84zSRjbf+UD30WbiiHF/QaDwh2j2JY5ek7WIs7oDPVh/NhhEh0cGTK/biADCGlrkWUCTnAV5CKxljwLtmPRZbiUm0zpaN0z6424lZl3n9KjufKb9OXAWTHGKxwupnAySXSP6FB/RJwf/isk4UWU3bOBpaBnjZWjvCwJZ3T+2eKIh9bi+YnLcAKJlVbVun1OPLtDu/gLJvk5W12KVGuofAnof3jj/GHs9WbJOALCz1idVCyXfpR1NBmqJdraVDjtN1R53Vw2l+bMEkTFwtsFNIBawUVG90i6m0VCcr2HgRvz5S42GTmGVOAGLv1OFhjW2iH3M+J/ntkWoUqdA8yQrx8aW5JlKrFImE8OlLsAGa1Zjo+pmuTMGeWHBO3E8yU2oJDgCa99Cyw8op6Fve6DN2D7H0d1mTOPUnqgRvGUC3JT0JVsIr7AG+Q/0VQDwCMLMlI3zKBFnzvK81K3WBVZ7GhklwHXPxf79ZecWR5tKblIC5HEXBdsdZQZrSMj2P9SrntnYQqeQeRWVP8ZjTPBuGe42iYDmaYa2AgIduv8OF4+au0PzsQH9Ely+EgYJ6Arx/qXTB+EbvLFpVnIXdkCuPfQc8YklIS5NVWFliGxv7cmmC4BtPS7z10qWikfoUMxfTIbSQhcfJDf4Q1SnjlehD+09OC/jXK2MT6xD03luLxEutyCUoDEWdp1+qwsY9ReKDqZ1q57Kz/G+/TOXz+n61H56DI6uqOlqn3hW0l6sUC+cEeNEe2nxFqQ2sOynZS5yungzWBoMnBivUCFBAntzPM71DOGemNX8PhFYExkmcHeDTAA2NTBeKxfYflCe0VsyECgrKc1Pyyq5NKd56VKi81zswNYJYnwhgUGzdQ+prjur4sHoIChEc5cf4RC8Sl8NOIJqzneBlsm9f/cYvsPyDzd4xRoS63ouvSA9UgHooM6+0skRiQRSWpAad1uCOkPJ50GbsAnjUIOcazjQ3OPkrrPkT3OiOwmvZQoS3KUASnBqqVz2jgRnHVJ0pWfoK+bdT6ZJeL8UyXwn7mpHaDJX3TerDQJ0KDip5zwHwg7Iei36JEbDuSHZgGGwIXzO+lQiwaQRGMsLCQfd3NpNZKh11JyNwZo/tVmbgXM3HJZUPrbkw0I1DK9JTVrqsjrblupydbbQ0rhJw4WEaLIl+SHHiReF9j5xsgLM9cTKTOna6xKjZTjM75Cd9bSwBeIC6eGrabTDA/nYtbFRSdjrIGFB0dH3UhIHVY9I0Z3DbQeHBEupaNk3H52u3EAx2HzHC6feA2ghCSp4Os1DrkjV+y+U7l4aK2V5HC+rXu35Ldwn0eSDFygSIYnykIzawH87aaW9/Ceh3XV6ni5CRviLc/rx6OCIiE7v9LZJa+88Vz/jjvm477IBdaLPCi5UJSC6yhrn7sZkHjLts/Bl7GePmZ8cXhjdFjYIOJgKTv4biiep7OtvDRKIa0naRKYy99y3DQWnn04di6HVK/dWq1FtFvva/1IjOjoMwUCdxOPO7JhDLAdWNdk2fHteJu6ATWtcz+c3ZrLLNJf4wKKZxfpLNt0vmCEoIrscKg52hX0V/dITAgwlJkXo5ROAF3d9pbKckSMjHFVnoBKB1Lusv8u83BokP7mTbXtLJiJ2KDHwXxieTYYzqLB6jRx58gIQ1YkEQufAV8Esg/0SpNXNzB3/Oa6soQTZvFTWuTtQA+JUguE5CzRiREy9ja4CxzNz0uITtie/YQVYFUPTdliTA6yp2RHFtOPG2RtkbTpb5lz65JGmnOgq6DOtaTm7CVmR3VJkQtP8HRrRMf5dBH8J5ksgYRW0+Qt0Ku95Hq3xG6xsRUGrjRtR7lKso/yH6+0oksxybrvKZeaYQTc236p2YhCgb3ZVKXnvoVnDbaXgYHTBUHoAv7DLk3jALhYUliWw43FXCcXgcR2zYLsAyDQKPOXq8QMlIH+USNPyZ+fZxmJYzyI34cp/tAZtn2Q5SqrIlQ7xIGn3Dv2DBfJPtkV0BW9SGLapfzKHHQtVbEX5ofeII8yPBjXliEF3mstwLkEAmI9dvXcJEoNz9sO1PEP3YfkUegTo5CjnmVATWgANGJ1JMFRU94LyXy7q6ZVOoci9S3fwsZ7XYCZBuDV1Do6pm2+4SE3krUCvjniUH0c+bkXpZlE/EUz42xuzP5bUkfxh/r2ycBt6j2OHl3bPKTR6eRfDHWrGw1Z7XriWfnTC1OOx/KB8dbXm15TaFcaSX2vXuLuf8XLYDch60YMD/imOK37cPWP8xL1LtEe+ynGVl/OpMn4Zn5AfBc+Zd69tUxoYy6+6Bb2e6ABayidEWrh3IrhuVwk3X1er0q0ZkQW5y8W4KI6Tc2yYHfFEsrxPWA05VWuC1rIl8A7oQmkLK49vJX/t3dWYchthHa6hDilj4loeTZJYrFFZqFPpf756zMXNtOF6hKO0OfJ6SNKtLdfS3H9o4oKHCPi7gKooFS/AJeWVQqkIip/R7vwJRLwe7Pqn2H6rBAr7gmogUocwYVm4WMmWC+TIoBslboiSpUtNN07ACygPIFu10FePbtT7Fc8nHX29MDCpu7GFHLw5tm0DLTfBxjRV/HLlGLSLfXms3dmNt4hY3220Vc8ZIkwvRr49XBMPSkGUY5PJHqVJ1qaXCEX0ycwQiN6/AbvdBjOzDIFiW2ty27ac7uVFHIl4GAgdxFm8+QSD4xq7NT5e4s7osUYh7C1RPXajYyGnoYEQOKT7yN3fnfEtqTmnImuqbkAIegIE9NqKoBirtcSDoFFLAhw+cc7UxSy1gSgAXK/ANkKvjFbFwuG60EONrl6V4oVe/OEwGZ9jC+EBvblqrrBTOZ+gcBVsgQ5p0GDAWRlc10Qynbsm4pzALvxW6DwsHAAgU8vP9AiSwWzm1oO/2zG01jMUMuUaUHyAM9d5uGE+iC8xhj3ZP/bocfkjIXVABpYLmfHKdCBEnv9F0xoE0PbwMbOt+SkL/HUyP3sBBseNkJ6ykXEuf0aQka8B7Dn9faogOqjFHFouzXAMR68DkoceiUPrrlmhrjLF+YGQFB53yrjHPzK8fVrJn9VwWcMlxtUvkK6t1rKWSoA5VsFc3BOwhhM7XffE8WD0GkJu7YP4R/OJb3MAjJna+T5odzRhAVeGBkn+jINRP9nZtlGcKmUbD7PA3a7yASWUGeaFrndF8UoyEEtWe6F3Ronh9HoLw4urlUWBhoIfkPyiZXcO1Zpj+0spSNsMiXkzyIa+5Kqd5ogKMEpTzizSg4EniQl/fxE+l0Wvjg42RSiaWenjs7vA92eYdLBUzVnX92G6AgzZmFJ1G9/U64QORM0PlT0sB0X6ecHLsYGOHzc9/ud9MCSzbvN5k8c2w+J+tfjnmq1iM5U1K9wkqeibmW+fV//3zeotOGd3V2EaO6rc1U0U6sIJ3GDTkykYLhrx6VruIflLET0+nG2ZWSERhPyMUndo+7/yYAkSlSiP/Rkz8fHnnr3YE4orrH5kMaU5BBnuy1bkFJghfiubCYlmdDNyY7QIg9I88KpmTXO81n3ZX+WJH7rRuheUA/2yIFjIO+aatKJBOg5hYdufk4Yj0LgW2yt1lFh8/Pmi188YHIY03pp5Se/EOxZPCCbE6woaJ2dYag+mmLKhcKvU+OzFYy3UCwtR9pqzAZSeexrYgRYcJOLp/GIX8h+ROdHTDK1S6+p9V9KFLmnMZB4QIsuKSBzzYVb6BBcvnsI99bI3lSylbzr8SNJJw5NbTzysMT4aa6nKTbrGIzUQmAwe4VLmgdOW7qq5p+rFDoXRTYZY/b2wGDlNhn6pU9cXc+N20Wzky3Ha/gCilmSjkHJQEF6Brql91EgisNJ0rBXasUMURAQfs7tPEeAnST3jjK/cSpu8jw2Tmj6yBGNmjI/y5j29zXOsb3SNSIJ5ou9Wcm+bOPUASFNep1NLzG+9gYV3k4sFJz49GG4hlNjvCVJ/Ddz9eFr4UZ2fYMZW2XZOTATv6y8wGsAOdu5EzhFsBbUxQQgsXrXB7dsDVav8mrNtC8JkrZc+kegLELU8pyS9GLOBiOPncRIQX79FlwnsEnUS1pEIDrQWkLR6uqBbr9ahY7ua2gUzedkUdqZ5uXUc8aADF4jiTJNrrmbEQdSaTmGQrX1h4Oxc8TM8PkwOlHk9zVEN7loVXFYUgqRnRNz/RMkaE8sVwcX7zObOAZgVqPQMde+OtSFIUN1Lu5vC/Mv8E5fNG7V9XVDEhZx7hUq04cd722VgMzh3+Pp8j+FAALJkR0dCx2PvrZrgXuQPQ327Zdj0GjBtvUz3hvhytWImSXP1OhIkti24LOGkT50Ss8S6WC22ZP4pm16UZbFt1OyAO/h62FqsoTRIJyecS/Te31OIfgvIpBwJgYbthc5Xp5R5FvQU5JYkH/oQxjoRdVQfsbE7Xhku8n1mIJPnBMaY+WdURf2KlExSxdZ++Py0mPRcgx33mIVNfIZdpdL7NcMTg19gmav3K2+8B1iZLvh5qbeBnRe3KgGp2lgcdRLExaElygwaNKi2qtau3TJTqcIGZkipI6bw/n2vBtQpo4P2OaYRXDaDTA3yg7A9jOyiF1EG09MqQj23YsSdEGYe/TNAWU+1gm/zKTUkUaaITTdyfLYTrqDAQkn2qX+Lux6vyguphV0rLCkgqKkq1OJtKCXFfbALtdQjQ3NCwJ1rsiuWRunAq8I2RvPXtZfBR/mNQyWvd9u90DUj3PZEImRVAgH9MxfHYDWQjHvIvYB1KIsJrN8UzfmW4+K0F4F06KfXrXnMv738NqzXatADlSTvcuR5Ggc0+jfZlagVrqjDkmYTeFOePXpzft7WEI2915kEvPRE+61WY95YPdqHiMtwn1jToqgFWkxYmlymjr+Oeq8px0gVG9gom9WBM0gnCMdXoJsOzjevYDHcJc707MHUvf1FJVmnqil26oPa2WDvt9aT1BjMH+UGL6FxG9BC5a37WYJeGctTMxuW3MRqdIe4KZXo2mHXR2af0/s2bpChVOxyI/pvDqzddjt8lDM9HllL3C8CLrGKz0DugrYGwgGc8OM/6qKaQHUMLlSNfT+HJl0R9P1K29p2G6VgK+goi5M1XoCxS/UedrRy3k4urdEuGaYnIEcaigAqOTOgVI2bH3ykXmvEogPRDw7dlYmhPasNNmGVih4eolI7LvVS/FVMBoD6XNiGOyaoQhxH1kPmpPA+uF3v1w5OdrHm5X0ZJJrVihObuj7OQH4s8cnWUSlUJpPPjU2A3bV4QBtk+0DtTAz8UkmGOzgtYlfV3F4ScorR0JRmVEQ59Juae/bl/QwinubV6dWf0zi1H0awzkQLdAMnuzDGIC894vt6vzM+OnMhGtlebJMJIH5jOKfVv2v4PEFv7NgCPGRmcWf6xy+O2xIcqDR2ifE44P0r+yOgJPtMHhMgKonQ3teBVmWmmNAK5UJf5Xx59TCvoOLlVtujbw2grWq6q6ioLonRRdLvsQTzEIwbyA2xmBU4sfb6enN330g0vQYd3WuHwJxBKXCmmFsiJs3jh11dhqMCWxkdNJN6ZGxeqxdGzyF4pOWzZPHTxH6U0g37XR15keGN5hthjXBoCjk52GuvSZ6NnCU1+0HLjG0YexO+P0muHZp9JLsVE+QCywrL0YLXrDrUYQ2LkCVOQQKPMrh+xHtr5oaY0KLRtGhOZlUG3Tp07ndcPWSTieHyST+4hlHjXrO5DGADcuNSWzqi2WEncQ8mXI2iuPslTrT+7xEUH5OdWgaGtR5nQ9ll/8ba+vmrYkOHFBgvgM5Xtogp/yv5XUx1O3IXRNWcUC+R+e3Ieciu/vFZUxu9Elyd0uaHTTrWWUy1rBX0jDUvqfHlnlQqSMJBhuSalGk++BrKFC00PKwp6OUhmaW1uSmnHgihVntyYgF0tZiS+/DA90XcNfKvoia2VoNbtXSfjjBNWAf5mS1MQcV5zUqx2LpN6D7KoQYip2hawR70S6gGwF+ST36VY4LKSg6c5krix1DuaHkTkUKa6zdvEaBjjXKMFLF+4aPazrKhv+IiuM1DgHypqv7R65qar0cp3dGgyhL8b/pnIg/fFD3ypgEJwl1lAyKnwNt2FpV4saMROF7Zrl9b4kJRjV87+JekwLrQPqrtxFHhHKO4IM9N7vHEe+dzoUymNN82VmBsCdiXNwI7wpQvws4c1FAcMBQVootElwA8oiiVKhHf/jVWtMghTgfseoeKYgAyF0Z6D3XFqix+s5Tj/8rxwUHiqyvMAkBYFTr+VqwcTiV143ZbWWXlt67xgqyNUJaeUjWWNjMlNVLdKiJExMQLymU/RE7GdlECAulJ+0gEY3QpozNodkVEmMxTdSHfM0EKERzzrccm5KSGB8Wdw0B06X1f8zdnVCE0zzQXijhVEMgp05eo5KWfSnIo+B47iiawXJoSGA5kt0G2R87MfwU5rg3zpPLjwHkXp3wGkEBxu9G8JjDelClCHr5dI9qcoXELcerFLAdN7H2SCC8CFT6epJjCqfkFQgbzTop2hF/jJKaEE1h+vGuZtDVp+fpFz/WCt/aJtoZBzN4tyoRtIsqaJWXMIQ0i4nz52wA4v6JRGec6cioIXpGuY0EnlYUBtS3nO8x9Ebjd/elXxdmEH1nzzDJahgqDNorEic8/wyPxbbrdoBTqu2H1D+4LGUdPuU9cHB8FDBN6yhP9Im5rgoWIk3J327PjP8bG6stOnyURY6TyVXU6y6bAAH+Uc2Rl9DpzgdlIbOIoOdX7JXtmUbXV7DRduLcLWm9YzT+oBNu2SYd9NCflkbYQelGktVFH7rpMzdCEDSG3bBuBxnw6V7tQKNiFaMnSKeDMonqfRv/O162vXUxDkTp8q7vpxYerCDzEeZXDljH8qhiBdIL5g0nyqs4O+IasKVhgBGA1e0hO1TwOVg2+xPoPFwNfFfMScoMp1T/o6K4aMI67rpac+Vd7lUYUWrWANZOxjqnliFaSSp2oESLjqWsEUlN8Azr//IMBU4G4Bd/Ui8yqVPYmunbMV+5qgebUg2VKCgqrDOy8iykjnHaWBS9c+7uJWiWk410BuGWzhSeaC2YqlM898WqUMo15f7XSfDPFdg8EIcd1kN/1eowZvSGc/Z840efvB9m2pO5iqgODyxyHup7Rk5If9qz8pqci+USZVI04ZSKBwhgIc+TPQ9+plSQti5L+LkxENmK0Lmd8uwSQJ0LQunXC+vHyoFpaqCBwI1RnFYb06xCSvl2weA55szXqKwEH26J8rXn9ETG5isSkx/qjg535zrdhBy67Xgk9C9MVIl8PrIDdRaUwjFbQofWOW0z9DQp+ERORyHqg7JiMvCFGtRU8pU8Hrl7iOdP1WJ30sQ8d+nxzOrWOqowbIEDimJf/+HSAHgm+wXXBglxfEb7Ih3zAcqnj4xm5IsfAGsCwQcEAhmra9TkZVRKl+BRBSUwYS1P/NyHAI9y106UyFOMEdwvFB33GawaW/0SnHygCrg3C9ZIo0QHS0n3BNn4D4EAACCmMettGNgACiKOgR8hO6jCY7csgnjUPIU7rsX3QpKw03onRn98WafgwmAq0iTYb1zhy05+OZwgNvNQI8aLhepEvALQa1AvmdTrgWgUSSMRbwTsZDA6mIOE49HnqBa1VtZaa6i83KITE1HlomczLVPanokqlbxR9ktqqRHp+PLx3H75XoKW8uw+9j3aimNVjcJ0O/gPiOIhTknx1efI3/7v6CRfvkFjxygN/YEDafio3GqMdTIgaRfHTj/iU7E818ggoXX8uhrk6sxFmAejEvBozDNNHMgxCnuH0nwEUpNZm9kw5Ed2xHoz+CfJLNLYaKaXM1zK/SDo8fwyrjHQi1KzC47KLZKjBWKllsNTaWxjq7K4hODjxawASxV9IvMyv2uz66C7gt3vLfXg+sj/kiaqT3BqgNmjwE2AhpaGfHE/i8ch7c2/rg2pBEpRHHj8ncXwmnDSj6zscCpzm4juz654PSJJ1sjjU+GqVJEDzkE6WpmXI039VR+gbZzjRzpZCxfzXGnt47TnLZACHk2Afa7KBQ1KeHnTnYweKjxRqtX9nsL8KhXd6ucoZWrsPYxicr59p1kn85QlFyK5P7X0X0Eo7q4XLWjqXM2CeYOOF4JufItjeyyGOBsWekqWtmzTCVvZ4m9zV23xBb8d2Lc8E2XjEunf5jZUyEVwSoG5MYSAl6w5FdWuOUqje3JFIiNvXJKj0rT7k6j6NGvxfK3K1lS+kFbqUvCpz+8dSLfVUXTYsguC85bplNysMkPE0dLuVUP1aH6uRTph4jkkwzZYExw4MXoJYsQ5t0nPWhc5Vr7Gifuc8/rXGBWJWX4P0cH3WzqDXBgmXOvkGjCnnYWT1K8ulymnUg0C97tGi4OjNQ4sH9t9P+ArQBXWH5bk6kDXD4/d48fFnQLZM16OlKxsK6f/LPrG+3dn3vC/prTgao2XDsjpR02OZ5dDKgpj6SoPHJf0bIX3q5mvtcM2E4artYXAF+78hRLbTt/6DAmBiUimkOVJImnu9niy62/JT2UojQiBSlK6J0CFlXw5gB/++tK3oUlUzRBe8us86dv6E9vAtVK4OQ7Ma66T301hqsKTMbMgjqU6PjdPpkh9qu7g3/TeWxF5Xk/0jqHjV5J2YYrBPJLjZC8p+wpSzBFgBmAoV3v7Wux62WfIi9oBTvP6vVu9M+p+6z/JYsv0Hg1tItTV1iHPTodKzRrbG1i55CjI9eSrvSHy+s9z6Z1bNvFGpM0MUILi9/6ZXTXH77tAS+fsl61UFkVMJ42zEaekataxIWgHBkv5DXI59stXCD9rfbaEHf4rkuDqu+jwFC8Tb8ZYTH7dAE5hyehCoQTko+366+Hyq7usFBsssbpFmDU0TAz6ExCG0vatQQBHVN8nCh4xbTqm2YG3iUmVU8P1QzpfaCi1owpBogv+8A2S9w/PXxHz/I2rQrTcRTrGooEVPeT6Ta62altWg63+6LBv5+IqD2Tq+T5MURq2E5BUpHw80G7OCtaIxDUr2k4SjiuPIXp3gDMoii7KBwhk2vjMq8AkjAxSvIG870xSxJMxtnArMpzjX67tqXESZbCCWo2qaZz5t7VxHTBlobut3iLbog8MZbvXhahCYdPHczxcz2zgRN6JR+e3AadJMYatL+mOXciDOI3djX+Meq1caPBlkd1Xk5mPbEsPiz2alxEavuqr6uPoPrd5hw5wqHEN6DtOgshm+tWc3S0RRcMXLOfSmpgXmhbevweYYFLzn99fMdF9b7oQshp5b5xgicxHihgTbBw7veG2GgRR6Roe28gIrOSaKoR/ux/bn3igfRexSFwToa78TuU9BfS4YzLpqZLkI7KdXOjSK/F35jOq5KoCMR+K6NkqZ/8xWov3L4Ci6+aVv52A/YJu1Ejh+mHdaqFtISg7aKr/v4Bk24GJkciwtA/2NF2cX6YkGZNW4BIWkinkDx7pkBKNn/wXjudFX6WQrrsRScnvkIpk/ydCihKvFEm0y/KOhb0DBrpluOfPHxT4YwzKXdE7fyIgREG7QB8g1ralEEGf2vd85sFTRf3Lrt2J7NXbnwKe/3//cygVm4NP7IAW23NpkJb71gnBVf7RrBGEc/FjGW5dJ/XL/PKdABiemNva6Fe2XkVX0sXXZ9thUhOJqljY7+ONMLO2EuU8UEZguq6HUMQDJrkvYW6T/IgzNV5VpshL/z1R1l8AR/vht/oMHgESckgNVFV1ZO9pwCrdsYCez3TzdSGsc1ywgj7jEz80sa0iqr7wpGRWaJilqt+ocpiTKQEkBWdKIXPWhPR4pAlyn3D17g/qYv6zwPdewQaBgK4VO/t2b5D8ZYvdAMz2VLyMuXKXUwZUkprTeVTgaMDWonvSx/dY2iLChaHg4DvInbNlOpcuvSxGchnILTLdanNXNxNUFpVGYkUL5J9mFNzC7ghyma2cQyPBNyxqgBQGwkFUod40DEvQYJrqhm1Gj3QCeZyogz+uhbVGLE9EudXgy6QwKN4LwitjWKGPBmN++oIUaR73s2GztXayL5EmGYiqi5G0mFvx7OvOyeZiMBA5IaWkDfCUK7CdF+a7x6OjXdTNz6elBHe5ovZy0i9MZIcO4kGi3CJ7ag7gXd8iATgKwgbJyRlpT0obQGNqteOnXlfbCZJuwF4d/ignhXOEOou0SeRLuZzjfXJDAUR50RuJ24EthUMSfBsbAta9RNszGg4i8DvjxSdZqxBg5/Le5Q+QecBqDYyzKxc5aGPxU6V1RRMT/vLJNRW+rkIV2MZaGXs7WWPdKLhatPkTuHzVew2/loLsP3E1zXKTUIiuRbgn2jnmuuZBMKGdpgQKllXiBucbX/F7ICSYTq3CFV2Q6LUQmc/sxWkT/BA+cHsRq2yRzq5TaW0AMNfpjmZmxno6DV2XKVuXYTNaRPTkH8/b7UQQCzQua5HdPnX16nlYTQtnY8k9dMJa/H4uipsiWYcNh1xlUTVhSxBa/SPNGkDZiLwxMNTkLZ9BEX08mB9u3F8mMrvmj9d1Y0nmkGw3Fl1OdPQQHpADEVr9ngbv0VMLx68zWt278bgq08KqUGwLW84vrepvekZeLtjTXwqp67PpPdk6NjvPd97lUaelzPJjB92uxgTM5R6sDRPexzRdVJeuD5xFAFt2B+quem/l/jbLN1Fw/dHc3slkk0Y/LigTFjlGsNCHyJr1b/PHK3Kv/ED3Qd27DEI190onQNKosgjQaL66C3ew/cVEeFgpLRM3NVe/nLryyeMqjiRYOpPZEQb4I9sH8/2RAEHLRKlE3x8o23jkJ8Uq5MsTpm2GJK0BQ0x2PegaS7UfZZnfkk9mO5GWsvIvok41nA8Flj3I+1/uf/qNSh4CV+Ozj1CX4Dc6q5EYCCmWxwRgvoWLoqKkj6wsP8A9xPqHGQDE13TNgyusxMV7SozzIx4P2O7vIKmQNCyskLmCvoDvowbpuU/WvVFLIKsPovyfEZmViz/GdgiRxuEXSxmOK+O5l3xcB8fiyuwA5PTr4GdcCZNeAwtycdzPRht2z8PUSxlpjWS33DXN9oKEc6xSJiN5XP61UgTmRV+KoZe9Iy8XbF0Ho4+CWCWlf+/6o+EtNfpdzRQoY6lnIku9pdLBFw7Co450UTe7Qegn6Q19n2uMQryF6qQvF8CFxMu7qDCrGNNVxBia65kJ7KATOY5dIMGs2BtlyhAS8nmtCvIMYch6MHSNV25zRc16p4SUon38V6cawaQoXFZMj1jaBFv0sreuVj1Qg4ERP6l6DQB8FGUx8cebrw21NuvOXoaxn1f5rmUYqy/JPWNmef9JV3SM/2CIPHE3Wp9lpXFgUqqp4dzZXoqok7GTuqSPlKWovRv/1orfnaTBmzNny5qUjzrBVHqyOX6rKqpZUvSa+bk85+/W0CnzYW4Ve//KB0sXP5gKz0oMQtSfqkfIR6KDRLKioJymnBqZaCp6vPTUqkuulCjd53dLGKaZMaIlONNE2ytsAk8rk16zTpLwdPuv/RhK6j4dv7FutMJv9/YCgMvwV1EOaudRCEK54rSsgHJPz0CuoU4S5fMlUFVME6dpZywgHazN9FkEJsoFvt+SOsRzrfUuO/POG8dvXv0pK+sOKDoLv949nsC6H0bj1umJO19s4ZHTn+dgQe0KtuCmrpor5hvDhvghnq7WNhR5jVSu/l+bD7MhNSQz4JLTo/eWtujZ5EUV+WOOeAiKwUsL6SH1LuObCGvSwQZi4C8oQ/cHBM1y6D3fxL1y+1xc0UkqCYD3om5vsEUcwdCxs76yadU/5vIJdX2aANn4K4rqGXGWgeraFojt3m6oLwouAYsk9CT5KMFBvEi6IwXh0zENIj5M+A/tow8o3tcx0gn8TzEGh8X4ujI0Jz+RnoMhg4yAi1OuzYvNPRVPfm/7ab9CMWvqPD9tmEIojGiLNQpU83BxuMLgO3zeIxnpdYUva2WrdbQZMRhJ+sLvq3OBC5Sma2v7dWzDiT8073aSj72yjI9Q2iImVnSbNGwQDj+/PSkXGELhVmDbnS1PsaZujaGXpzRmbr9BzMc4vECJYc03gD3FAurc5j0R2h1UE9tfezAMZnPpBgS6a6K3WYDca/bPY0woKE+C/PpkfTHAxo+jWYeWjlm78FbJunuEDKxHCawiHzlQo0sDSHvugfz9qVYHgOow8o/4Ky+Cq4u+vk+jlcE6ZiWVfYt0EzuX9ZHlnWhS3jLrGjy4xsBwz0atQ3pVAFpz4yk/feVRtr/CrTT4lSgTTeQ95qOTpNv1+rwjUKVemOQBKY6y+g4RZ9BcJgKfwo5Rsk7rUOY9xayGBB012o2l5XWknWkZY12wuyUEeVHXpaMkLzwh+3Ely6HIbTKsV9hNpqxjMNpQHWzqtOr5OSco59h05PasDhLqAjBj/RMbt3jbJALL27c+QGkTkVt4c2KJbkJE8dkCRJ3XrfEyYC1c00B+XlCjG341w5XRL4GaTl2Q94XMuYtnt1u3wb13x45ucMcENe+sESmiHTKYjCGRgamnLAoza6WEp0GsfS1vsknHq4Gk5ZpwKT0SXW48BhNd5PqaBaK1u436H88l4W6p4Ez9Q/lt4uKHQP7pwUPpJHlvvpfma+j4wues3ik5QsVQ5fjykf1LHUNwGPuM548riI7YLMpRIN/PQxNOmpls/5cFyQIY86T6TSRLUp1VW4NJyO8c+1RAsQqE1YqN8DpSNionK6ByTgF4EfULhQ1aYivdrpBSUGnl7U+xwv7e+t8Ln6eeekALwN8aH66X3nlEE+t7S0mI96m3nphpysM4g7nat3ia96q5HFi9fJQN+eyjl1K0P+IJmeYVKE3JuAMim8XJXJgX21iQIZrIo+a+q2ql/XPsUb1p786lyP70gur6gnvfZ8OOf5Nmo8bn7MBoANoHTSLPyXuhx82VnpyKAGFbp3BYsp9ok9kUePknm6hmzwLKx9bxy8YL44xeleoLXRHbjMt5HQihfcjhcXs5VKTWgXGcxMmXt4Ek5l9+23/sWLQwZuvrGqMrNoAyGAC5HL0IvnyIq6XgV5Tcc0DMjVkV2ePBDDLjkwQL2Xnv+/AdsV/mCDv17QHf1FwG5WwIr7/foL58uNtOxtOmjra0+3BD7qqjZmV98D3WBt+mjptpg4Yz4jOaKBc/049uf1LzID5g4+ELquH5QeeBj33zUwx9Fd4+iTFQAHnYABqoAee6LT6aIZ9QwYceUnsRtwzizDO14QV/OnULztVyGmCkloiz53FpqgNgtFt+ESONzHjvdi7uE+bLkIl7GQhZ1Aja/JI49p7m8V+2rRVK8SV9iifCcXMOWOyRyElm/+014hl4dJDH+OFxIReJgMqE3vq+fC6w1XBbQKApVoo0nET7gKmecNqFsVTFd0roCpBoa1xvDFiRkmOEppJWa7+Ge9WUGOT+/LLIDg8K3KzGBH2yu6NLhCWVsKt4Mb2cnogeLRW5fK8U4HWAROCjOMzue6OXJC1olmNcDtx4RftoEDRhusu0JQQ+tMMgKiaJxJVRbByvS4IwGz4APHODP/0rKcD9zp538XfhJZRA8h++JtrOTrtJDOAvfaMSvugKMgE1FoSHm5uzlEwGY2Na5IVz3LDgByrlfbFyc7lvJRDWpwJ+R8peAB85a+m+/TavoxF1jQ2UIkJpagzVzrm5fOAhZ14t7BPIHDYs51d+3l9Qsf702E61WOFzFTPFJVq6WnSUAQUbYneEndSEWuJz7fjC+Ao1epe0fVGLg+cK4H2gMFwq7mcv3AYGECp0IRdeVn3xNJTuzNgHZop5j+diqVxvt9mgRblv1fKspBlypYHvtv10ElLsTTNhfLmUC4LfLPJQx2vL6WsvbNpOxLBxmJoD6/PE/c0chB0dBE8/Xe2WIJOoKs2TLawb72M5CPjphXRK+9m6dKe1NIT0kDEq5V7xnKxrZorvR0LUhkhlaIHum3YjlzJg6ZgBNNxW+OuRTQTX4sRCBvksiXxMif6ix7Zzp/FYApJTmRRJewhftVHA0w9DhuTDGOQ0MFxTzvABgIRA/txMthhuNPKUwuXd1fZJRxRIBo94d8XoZJaLke4818vL9eB3isI+5ffYKFwnncX5i7qahWAM5t+3w1dzVAD0Wpb/UDxR0wme4VHS+LQP00SW0Lc1oZuJEd6JoSLeADkwtz4dzfIYY3/9ppElS+o85pTwBinZ+7jGi6Y1m19uwDTJkVBwRtU16npjMAo9KOtvvxLr9hQW/+rVZrClFPacvCInxo3c70/VrxgvM/SxLARQCr9NZcKr/kHHHpfTzrwhJZH/wd9evn2ymmvc6M5Rf7pidTQA0+xvEtiummVf78magEbjf2XWTJ14EMpbFS0w7ugEIOjfENIae7rrI1ItOxueaozNbLZW+/HqTP7qZLlOhw+K7gzh3yibr4jJcg9xsY4mdtRdOE1yE6j3thGxYadfV5nQfBQKN6xFETA6PQRsZa8JkV7TidEkVVynKdzj9UsHfyrtQ6Ei3fsmeXfMs4C5exoZIgT9LCPuIClJgjItbT3buMljM+KpNlLBS9fwoOy8t8fUetYaOi2mJH+XnKhCH67xF5ebKn1KlWj+KU1g0zRpx7+iaOpO4m9dNgJgocgr3a8gaHk4+zx17EsTw04eiFgGSP2mSuZ2f7fLCeTbxmk6iRSWwRd7B9LgoXXGmICVmsKx/YAgL3S+6gOEOyGRTSwSRjauw7OHVekpdNJWlnIFNgMOOlNGZxhJ8UeAKDL72aURR195Ns8nm3WeDGfM9tjGbfhv2yAaTEGU3PidmlCMNi/q9AR933FILyl1jhCPDfdNhdLSFljZQPHk+8DxnWwiK7xrnn55eutjXZKhjpClcNU5dzrgG9cYVjicRX9RuqsMMAue07G2vqeCcSL5IlBSmAh2/DZU/oMwwOu5MT4PFzZYvYRK6GRR/R7BQfkTocUKUwQW9vizMRzS/EgeBjNjCsANP711CHXDpJDRwKXOJ6R97bw/BujKa1Yz8l96XB7Ez9DEnN2IbuxLtHvY5jl7UHmDYMgUcbJw5dY0/Y4i/VJvLuDwOWgL0QjcSGHOUDlHFn5oVhqNWkq6TVER+VK0lFunEKhPMba2erGSNf4FLmZxGSeHFksxLgyQlPDKxEUHWyTiE+bIvn2EwAAQcU/vnU2inA8lCIDLGlCKz1FomPilVG9nCGMzpDye19d4j/k0ZRL3VwUXmH2zttW1SEpoePvx2r9bGOem1GwEPXBMMW5/hBo4NawYIqY6xul4ta2oGY8gpBqTfYtZNBVmw8X0wfJ6Qt0o6iI57RmRSecqTBfZSq5ZWmvAfEUq6bWrVwqsbuzq5v6mdJfg3H+PYOIrvNTjhLw4fIDeX6uNZjFty5QDLAx3HgKLzSmNMJmhzlwHZ6Tjl/GXMhcC1kpDUUxyPaeIhWohVgOGP6UPuylPDceqkT10df9xyuscymNKIrQAiAg8XMcv4uYEw/7FP9vIht5S5BfhJ4DMN7bDfQiwibAyIire58aB7wLjudz18guFlPg00SfE1KgXNbxiu5mNOQ6DGiwdFbo/4FJl15t31Yyr7PjxT6FrdVOrycrrsR45AXyUky47/Os7GlElXycLHP12y9/O1hD8fYltkwL7mIwxhMIc7QzGJ9vzaamUIBk7RuF3ykGWhyLsrBM0YVs+JnVn2umkEOeHp0ImpvuAxkGMgzzbKDI0BcE6nwpHvWXEHyMV1n7QrF5ax4GJNYhAX54X/+v2xte+BwPt6PvyB1SPYHx4dZwVi+FltxHhhvQHCJaRzVjBrOd4hcDiZLpB1I8KDkVcY+y+byYLMm+eiCy7Y4XLulJshBtQlDtHEFRClv+Tr5uqUTFP5lzJHGKnpg+xIU05u9gwhGGjcwW1V44MjG5URF0CXI09ezMgw26rK9MTtP4BkPcxlZf8RrUM2/cvPGdy9sXz5oa8lI87lB9tF/8oiZ6loIPkVp8Z9ulds/Xik/GZHFt/TcfwOstDozkCzIeUfQbpgSmDfXah2wBZL+5r5+lfpn4r7uZXRcsYHZH7ejxe9uDOfbycBdCfaY3dKgAy56zrJL66t5gAzzt9UAAkoQdlQWqx6CLiCRnKvjt70MzAQWx7tvzEbRxl5JCLAcjN5Ncapf4X0WxVPaRdRxEwPN6zR6EeXOfuT5Yu92xyTpnYH0GA/3I2FX+RCTkTJYt5tj00I0pkziVSUdeWrxXScodgMJEWeO8IRlrVQAGoyjkXGmEguCK9o+hE5+zv2x+ywYr5im590sr6wrrdwnrHU2VSqdiN/75HAWQKutgfwHB8qKtWk6hLZRPFwexnAkQ9g5rn+KwPGC3t0XtdKkyRp44H76KsyyBbYhx5v24x5K4fDPvJ398hZt+kUiQVUOYaHS/oX+7ZrA3RESfClTrzcUXh1PhsAlVcDF4IGEUCLr46FI6gukE+33YO0SI7YbAdgajToYR2AnarVEa5thZu06qcCP+vjH3BRAuucJxSb93QizIcclJsiPcItojeLSdfFO18kqDuiCoLw21Zi8V/4XUuv9CkMjyQdPEIrWScjskV9+S8dxAk60A1YMxqMkMwdR5XfwF+GU1dY+xQrnkoOUNVBi9VedmB4wbfxxFi74FIscAlgRrgsMfsBAuKg9tJKoehKJnUgocDXjmaCzS6u0sQ2fJAmo1Kzx+bYudeX3ANN0cWpcfQHJpqa3YJm7O9FlBzj74dgWDBodGaELvtlWRDn4TeNtiBgIEvaA+kCVW6o04vqKn+WPgh2Z9FHm85u5bI4OcV3UpFIAAAEqZQBN3HSVsGV4RFuhMAfM6QM3CieqR9g7uI0cYiBGh/QZMVp8nTXCsi51KPPnn466TzioLv0H1x69MUwMCRhXytTkKTzz/3QyWZKOHJgYJPDZLIhXeGwLeOwUMp5OdC+sYm6QqQrr39yP8hXXtgZ2WB8hm6wCJfONv+Hm/U3GSGDdzEV9ZOo+dw6BMe76tbeb3PxuVCoRuZti3LEP4CrkEOYvjgW2VvPuCrUYGUpbzjSeeAawi8776EU5VKEt8FP55FIYyjxpqXHbzJ21x1SNJIP3/WdwAAAAA;" vertex="1" parent="5-3XioVFCl6JB0ejhThV-1">
          <mxGeometry x="1050" y="-555" width="479.5" height="140.12" as="geometry" />
        </mxCell>
      </root>
    </mxGraphModel>
  </diagram>
</mxfile>
